<svg width="512" height="512" viewBox="0 0 512 512" fill="none" xmlns="http://www.w3.org/2000/svg">
<g clip-path="url(#clip0_27_13315)">
<rect width="512" height="512" fill="white"/>
<path d="M185.81 391L78.7851 135.009H164.116L227.752 326.4L208.95 328.328L274.515 135.009H358.881L246.553 391H185.81Z" fill="#111111"/>
<path d="M375.98 396.304C362.803 396.304 352.519 392.607 345.126 385.215C338.056 377.823 334.52 367.217 334.52 353.397C334.52 340.541 338.377 330.096 346.091 322.061C353.804 314.026 363.767 310.009 375.98 310.009C389.158 310.009 399.442 313.866 406.834 321.579C414.226 328.971 417.922 339.577 417.922 353.397C417.922 365.932 414.066 376.216 406.352 384.251C398.639 392.286 388.515 396.304 375.98 396.304Z" fill="#7B378D"/>
</g>
<defs>
<clipPath id="clip0_27_13315">
<rect width="512" height="512" fill="white"/>
</clipPath>
</defs>
</svg>
