<svg width="1010" height="726" viewBox="0 0 1010 726" fill="none" xmlns="http://www.w3.org/2000/svg">
<path d="M843.068 127.979L850.541 278.688C851.116 290.282 855.742 301.315 863.612 309.874L995.869 453.61C1017.3 476.908 1011.79 514.014 984.495 530.092L834.787 618.224C824.084 624.526 811.41 626.605 799.256 624.034L553.041 572.162C538.587 569.113 523.518 572.64 511.925 581.787L343.959 714.298C328.958 726.138 308.482 728.34 291.291 719.972L88.1353 620.999C66.3183 610.362 55.355 585.561 62.2122 562.291L98.072 440.526C104.546 418.513 95.1156 394.943 75.2285 383.458L25.8732 354.951C2.45481 341.429 -5.86687 311.706 7.13576 288.012L98.8659 120.896C111.294 98.2416 139.037 88.8761 162.675 99.349L276.605 149.8C293.96 157.483 314.189 154.639 328.739 142.458L483.798 12.6124C499.894 -0.854715 522.71 -2.79617 540.846 7.77246L607.255 46.4649C620.449 54.1486 629.373 67.4654 631.481 82.5732L634.451 103.957C640.022 143.989 688.528 161.011 717.928 133.256L759.18 94.304C778.137 76.407 807.714 76.1609 826.958 93.7571C836.635 102.603 842.425 114.894 843.082 127.979H843.068Z" stroke="url(#paint0_linear_266_1006)" stroke-miterlimit="10"/>
<path d="M106.573 606.821C86.0288 596.813 76.0373 572.408 82.4839 550.505C82.5387 550.313 116.209 435.494 116.031 435.398C122.135 414.685 112.814 392.249 94.1042 381.434C93.8989 381.311 47.3768 354.226 47.4863 354.021C25.4503 341.293 18.4152 311.856 30.6513 289.557C30.7608 289.365 117.331 131.998 117.536 132.08C129.239 110.765 156.339 102.384 178.58 112.242C178.731 112.31 286.146 159.766 286.269 159.671C302.612 166.903 322.991 163.089 336.692 151.631C336.829 151.508 482.979 29.3197 483.129 29.4018C498.267 16.7276 520.33 15.2374 537.398 25.1771C537.508 25.2454 600.084 61.7776 600.112 61.9143C612.526 69.1469 620.957 81.8621 622.928 96.0812C622.983 96.423 626.199 116.699 626.459 116.466C631.701 154.147 677.717 169.829 705.392 143.702C705.556 143.551 744.646 106.882 744.81 107.046C762.658 90.2022 790.484 89.9834 808.605 106.527C808.688 106.609 808.742 106.705 808.742 106.828C817.844 115.154 823.36 128.033 823.976 140.352C823.976 140.448 831.052 282.393 831.121 282.475C831.668 293.399 837.17 305.034 844.575 313.073C844.766 313.278 969.181 448.879 968.948 449.016C989.123 470.946 982.622 506.644 956.945 521.766C956.849 521.821 815.832 604.784 815.736 604.756C805.663 610.69 791.593 612.18 780.15 609.774C780.027 609.747 548.156 560.964 548.06 561.046C534.455 558.175 518.811 562.659 507.903 571.259C507.766 571.369 349.503 696.1 349.353 696.018C335.228 707.161 314.191 708.378 298.013 700.489C297.821 700.393 106.532 607.026 106.587 606.821H106.573Z" stroke="url(#paint1_linear_266_1006)" stroke-miterlimit="10"/>
<path d="M125.023 592.643C105.765 583.264 96.7179 559.242 102.768 538.72C102.877 538.337 134.357 430.477 134.001 430.286C139.722 410.871 130.538 389.57 112.992 379.439C112.581 379.206 68.8922 353.53 69.1112 353.12C48.4439 341.184 42.709 312.048 54.1787 291.143C54.3977 290.747 135.808 143.128 136.218 143.306C147.195 123.317 173.639 115.934 194.511 125.176C194.812 125.313 295.699 169.775 295.945 169.57C311.261 176.351 331.805 171.58 344.657 160.82C344.931 160.587 482.157 46.0004 482.472 46.1918C496.665 34.3107 517.962 33.2716 533.962 42.596C534.195 42.7328 592.939 77.1047 592.98 77.3645C604.614 84.1459 612.553 96.2595 614.4 109.59C614.496 110.287 617.959 129.456 618.479 128.963C623.393 164.279 666.917 178.621 692.854 154.134C693.183 153.82 730.096 119.448 730.439 119.762C747.164 103.971 773.265 103.766 790.237 119.284C790.401 119.434 790.511 119.653 790.524 119.885C799.065 127.692 804.307 141.159 804.882 152.712C804.882 152.917 811.561 286.085 811.698 286.235C812.205 296.476 818.583 308.712 825.536 316.259C825.905 316.669 942.505 444.136 942.026 444.423C960.941 464.986 953.468 499.262 929.379 513.44C929.187 513.549 796.875 591.344 796.656 591.303C787.212 596.868 771.732 597.784 761.015 595.528C760.769 595.473 543.255 549.767 543.05 549.931C530.294 547.238 514.075 552.666 503.851 560.732C503.591 560.937 355.018 677.903 354.717 677.753C341.482 688.198 319.87 688.417 304.705 681.034C304.322 680.843 124.886 593.081 125.009 592.671L125.023 592.643Z" stroke="url(#paint2_linear_266_1006)" stroke-miterlimit="10"/>
<path d="M143.47 578.466C125.499 569.716 117.41 546.09 123.049 526.935C123.213 526.361 152.503 425.46 151.983 425.159C157.321 407.03 148.26 386.877 131.891 377.416C131.275 377.06 90.419 352.819 90.7612 352.191C71.4762 341.048 67.028 312.199 77.7312 292.689C78.0597 292.101 154.323 154.23 154.939 154.504C165.177 135.841 190.991 129.456 210.467 138.07C210.919 138.275 305.277 179.743 305.66 179.428C319.963 185.759 340.672 180.016 352.648 169.981C353.072 169.625 481.36 62.6676 481.839 62.941C495.088 51.8529 515.619 51.2649 530.551 59.9605C530.893 60.1656 585.819 92.3773 585.874 92.7738C596.741 99.1041 604.173 110.63 605.898 123.071C606.048 124.111 609.758 142.172 610.524 141.447C615.109 174.411 656.143 187.413 680.355 164.553C680.848 164.088 715.599 131.999 716.105 132.464C731.722 117.726 756.071 117.534 771.921 132.013C772.167 132.246 772.332 132.56 772.345 132.902C780.311 140.189 785.279 154.244 785.813 165.032C785.827 165.332 792.096 289.736 792.301 289.968C792.78 299.525 800.034 312.363 806.522 319.405C807.083 320.02 915.853 439.351 915.141 439.775C932.798 458.957 924.339 491.825 901.865 505.06C901.591 505.224 777.957 577.851 777.642 577.782C768.828 582.978 751.952 583.319 741.946 581.214C741.563 581.132 538.407 538.516 538.106 538.748C526.199 536.246 509.405 542.604 499.851 550.137C499.454 550.452 360.6 659.624 360.148 659.405C347.789 669.154 325.63 668.388 311.464 661.484C310.889 661.21 143.305 579.04 143.483 578.439L143.47 578.466Z" stroke="url(#paint3_linear_266_1006)" stroke-miterlimit="10"/>
<path d="M161.922 564.287C145.237 556.152 138.106 532.937 143.348 515.149C143.567 514.384 170.668 420.442 169.97 420.045C174.924 403.215 165.987 384.197 150.781 375.406C149.959 374.941 111.937 352.108 112.389 351.274C94.486 340.938 91.3106 312.377 101.261 294.261C101.699 293.468 172.803 165.346 173.624 165.715C183.137 148.392 208.307 142.991 226.387 150.99C226.99 151.263 314.819 189.737 315.325 189.313C328.602 195.192 349.474 188.493 360.602 179.168C361.163 178.703 480.541 79.3609 481.17 79.73C493.475 69.4348 513.239 69.2981 527.104 77.3784C527.569 77.6518 578.649 107.703 578.731 108.223C588.819 114.102 595.744 125.026 597.359 136.579C597.551 137.974 601.52 154.914 602.547 153.957C606.803 184.569 645.332 196.231 667.82 174.998C668.477 174.369 701.065 144.577 701.736 145.193C716.231 131.507 738.841 131.329 753.569 144.769C753.911 145.083 754.103 145.507 754.13 145.958C761.535 152.726 766.215 167.369 766.708 177.377C766.722 177.787 772.607 293.413 772.881 293.714C773.319 302.587 781.463 316.027 787.485 322.562C788.238 323.369 889.179 434.579 888.221 435.14C904.618 452.954 895.174 484.401 874.301 496.692C873.932 496.911 759.002 564.369 758.578 564.287C750.393 569.1 732.121 568.881 722.828 566.926C722.321 566.817 533.523 527.277 533.113 527.605C522.053 525.281 504.685 532.595 495.816 539.582C495.295 539.992 366.131 641.399 365.529 641.112C354.06 650.163 331.325 648.399 318.186 642C317.419 641.631 161.689 565.08 161.935 564.26L161.922 564.287Z" stroke="url(#paint4_linear_266_1006)" stroke-miterlimit="10"/>
<path d="M180.372 550.109C164.96 542.603 158.788 519.784 163.633 503.364C163.92 502.407 188.817 415.424 187.941 414.918C192.512 399.386 183.712 381.503 169.669 373.395C168.656 372.807 133.453 351.397 134.014 350.358C117.48 340.814 115.605 312.554 124.789 295.833C125.337 294.848 191.28 176.474 192.321 176.926C201.094 160.929 225.635 156.527 242.319 163.91C243.072 164.238 324.386 199.731 325.016 199.211C337.266 204.639 358.303 196.969 368.568 188.369C369.266 187.781 479.72 96.0544 480.514 96.5192C491.874 87.017 510.871 87.3315 523.669 94.7828C524.244 95.111 571.505 123.016 571.6 123.672C580.908 129.1 587.34 139.423 588.832 150.087C589.079 151.823 593.281 167.669 594.567 166.453C598.495 194.713 634.533 205.036 655.296 185.43C656.118 184.65 686.53 157.142 687.365 157.907C700.751 145.274 721.623 145.11 735.215 157.525C735.639 157.908 735.885 158.441 735.913 159.015C742.742 165.249 747.163 180.494 747.615 189.736C747.642 190.242 753.117 297.104 753.459 297.474C753.87 305.663 762.89 319.705 768.447 325.748C769.377 326.759 862.49 429.834 861.313 430.532C876.451 446.979 866.035 477.017 846.763 488.351C846.298 488.625 740.06 550.929 739.54 550.806C731.984 555.25 712.316 554.457 703.735 552.652C703.105 552.515 528.651 516.065 528.144 516.462C517.934 514.315 499.99 522.573 491.805 529.026C491.148 529.546 371.688 623.173 370.949 622.804C360.356 631.158 337.06 628.41 324.934 622.49C323.989 622.025 180.112 551.08 180.399 550.068L180.372 550.109Z" stroke="url(#paint5_linear_266_1006)" stroke-miterlimit="10"/>
<path d="M198.824 535.931C184.699 529.054 179.484 506.632 183.919 491.579C184.261 490.43 206.968 410.407 205.927 409.805C210.116 395.558 201.438 378.824 188.572 371.386C187.354 370.675 154.984 350.686 155.655 349.442C140.504 340.692 139.915 312.718 148.333 297.392C148.976 296.202 209.787 187.59 211.019 188.137C219.067 173.481 242.964 170.049 258.266 176.83C259.17 177.227 333.955 209.726 334.708 209.097C345.945 214.073 367.133 205.446 376.549 197.557C377.384 196.86 478.914 112.749 479.872 113.309C490.288 104.586 508.519 105.366 520.249 112.202C520.933 112.598 564.376 138.329 564.485 139.122C573.026 144.099 578.952 153.82 580.307 163.596C580.595 165.687 585.057 180.412 586.589 178.963C590.189 204.858 623.736 213.841 642.761 195.889C643.746 194.96 671.996 169.734 672.995 170.664C685.259 159.084 704.393 158.933 716.849 170.309C717.355 170.773 717.656 171.416 717.697 172.1C723.952 177.815 728.099 193.661 728.51 202.124C728.537 202.725 733.615 300.824 734.026 301.275C734.395 308.781 744.305 323.424 749.396 328.961C750.518 330.178 835.802 425.118 834.379 425.966C848.244 441.046 836.856 469.662 819.2 480.053C818.639 480.381 721.105 537.517 720.476 537.38C713.55 541.455 692.486 540.088 684.616 538.433C683.863 538.269 523.753 504.895 523.15 505.374C513.802 503.405 495.27 512.606 487.77 518.526C486.989 519.142 377.234 605.003 376.33 604.566C366.626 612.222 342.756 608.476 331.642 603.062C330.506 602.501 198.482 537.162 198.837 535.945L198.824 535.931Z" stroke="url(#paint6_linear_266_1006)" stroke-miterlimit="10"/>
<path d="M217.273 521.754C204.435 515.505 200.178 493.479 204.202 479.793C204.599 478.454 225.116 405.389 223.898 404.678C227.702 391.731 219.148 376.131 207.459 369.377C206.036 368.556 176.5 349.976 177.28 348.526C163.511 340.569 164.209 312.897 171.86 298.965C172.612 297.584 228.264 198.706 229.701 199.349C237.01 186.018 260.278 183.585 274.183 189.751C275.237 190.216 343.494 219.72 344.384 218.982C354.594 223.508 375.946 213.91 384.5 206.746C385.486 205.925 478.092 129.443 479.187 130.085C488.658 122.155 506.123 123.386 516.799 129.593C517.606 130.058 557.203 153.629 557.34 154.559C565.1 159.084 570.534 168.217 571.766 177.104C572.108 179.538 576.816 193.155 578.609 191.474C581.88 215.017 612.936 222.66 630.236 206.335C631.386 205.242 657.46 182.327 658.637 183.393C669.792 172.866 687.188 172.729 698.507 183.065C699.096 183.598 699.451 184.35 699.493 185.157C705.186 190.353 709.046 206.787 709.429 214.47C709.47 215.181 714.138 304.502 714.617 305.021C714.959 311.844 725.73 327.102 730.37 332.133C731.671 333.555 809.139 420.36 807.469 421.345C820.075 435.044 807.702 462.252 791.647 471.7C790.99 472.082 702.162 524.05 701.409 523.9C695.113 527.605 672.652 525.664 665.494 524.16C664.618 523.968 518.866 493.684 518.154 494.231C509.654 492.44 490.547 502.599 483.731 507.972C482.814 508.697 382.762 586.779 381.708 586.259C372.88 593.218 348.449 588.488 338.348 583.566C337.02 582.923 216.849 523.175 217.273 521.767V521.754Z" stroke="url(#paint7_linear_266_1006)" stroke-miterlimit="10"/>
<path d="M235.722 507.574C224.17 501.941 220.872 480.326 224.499 468.007C224.951 466.476 243.277 400.37 241.895 399.564C245.33 387.915 236.886 373.45 226.36 367.366C224.732 366.422 198.015 349.264 198.932 347.609C186.531 340.445 188.516 313.073 195.4 300.522C196.263 298.95 246.754 209.821 248.41 210.545C254.993 198.555 277.618 197.105 290.128 202.656C291.332 203.19 353.061 229.7 354.073 228.852C363.257 232.927 384.773 222.372 392.479 215.918C393.601 214.975 477.284 146.122 478.543 146.846C487.056 139.709 503.768 141.391 513.376 146.983C514.293 147.516 550.071 168.927 550.222 169.98C557.202 174.054 562.143 182.586 563.252 190.584C563.635 193.373 568.589 205.883 570.642 203.942C573.585 225.134 602.15 231.436 617.712 216.739C619.026 215.495 642.937 194.863 644.278 196.08C654.311 186.605 669.969 186.482 680.166 195.793C680.836 196.408 681.247 197.27 681.288 198.172C686.407 202.848 689.993 219.87 690.335 226.788C690.376 227.595 694.647 308.151 695.194 308.753C695.495 314.892 707.156 330.751 711.331 335.277C712.823 336.904 782.462 415.574 780.56 416.695C791.906 429.027 778.561 454.813 764.108 463.317C763.369 463.755 683.218 510.555 682.369 510.377C676.703 513.713 652.833 511.197 646.4 509.844C645.387 509.625 513.992 482.417 513.185 483.06C505.534 481.447 485.852 492.549 479.72 497.389C478.68 498.209 388.318 568.525 387.128 567.937C379.189 574.199 354.197 568.47 345.095 564.041C343.576 563.302 235.257 509.174 235.736 507.547L235.722 507.574Z" stroke="url(#paint8_linear_266_1006)" stroke-miterlimit="10"/>
<path d="M254.172 493.396C243.907 488.392 241.553 467.173 244.783 456.222C245.289 454.499 261.426 395.339 259.866 394.451C262.918 384.087 254.61 370.757 245.248 365.356C243.414 364.29 219.53 348.553 220.557 346.693C209.539 340.336 212.81 313.238 218.928 302.095C219.9 300.317 265.245 220.936 267.092 221.757C272.95 211.092 294.918 210.641 306.046 215.577C307.401 216.178 362.614 239.695 363.75 238.751C371.921 242.374 393.587 230.849 400.445 225.12C401.704 224.067 476.462 162.816 477.886 163.65C485.455 157.306 501.4 159.439 509.94 164.402C510.981 165.003 542.926 184.254 543.09 185.443C549.304 189.066 553.739 196.996 554.724 204.106C555.162 207.237 560.363 218.639 562.663 216.466C565.277 235.306 591.351 240.255 605.188 227.198C606.68 225.79 628.401 207.456 629.921 208.823C638.844 200.401 652.764 200.291 661.811 208.563C662.564 209.26 663.029 210.217 663.07 211.243C667.628 215.399 670.94 233.009 671.242 239.161C671.283 240.064 675.17 311.857 675.786 312.527C676.059 317.982 688.597 334.443 692.306 338.463C693.989 340.295 755.786 410.844 753.651 412.101C763.738 423.066 749.408 447.43 736.569 454.991C735.735 455.483 664.289 497.115 663.33 496.924C658.294 499.891 633.027 496.801 627.306 495.598C626.17 495.365 509.133 471.234 508.216 471.945C501.414 470.509 481.157 482.554 475.696 486.861C474.519 487.791 393.875 550.314 392.52 549.658C385.457 555.222 359.904 548.509 351.815 544.572C350.104 543.738 253.638 495.215 254.186 493.396H254.172Z" stroke="url(#paint9_linear_266_1006)" stroke-miterlimit="10"/>
<path d="M272.623 479.218C263.631 474.843 262.248 454.02 265.068 444.436C265.629 442.522 279.576 390.321 277.838 389.323C280.507 380.259 272.322 368.063 264.137 363.346C262.098 362.17 241.047 347.842 242.183 345.777C232.548 340.213 237.105 313.415 242.457 303.653C243.538 301.684 283.723 232.052 285.79 232.968C290.909 223.643 312.247 224.176 321.992 228.483C323.498 229.153 372.182 249.675 373.441 248.622C380.586 251.794 402.417 239.312 408.412 234.294C409.808 233.118 475.656 179.496 477.23 180.412C483.854 174.861 499.033 177.431 506.506 181.793C507.656 182.463 535.769 199.553 535.961 200.865C541.394 204.024 545.322 211.379 546.198 217.6C546.678 221.087 552.139 231.368 554.698 228.962C556.984 245.45 580.553 249.06 592.666 237.63C594.322 236.071 613.881 220.02 615.55 221.551C623.352 214.182 635.533 214.086 643.458 221.319C644.307 222.085 644.799 223.165 644.868 224.3C648.851 227.936 651.889 246.134 652.149 251.521C652.204 252.533 655.681 315.548 656.365 316.3C656.598 321.072 670.025 338.134 673.268 341.662C675.13 343.685 729.111 406.113 726.73 407.507C735.558 417.105 720.242 440.061 709.005 446.678C708.074 447.225 645.32 483.689 644.266 483.47C639.858 486.068 613.196 482.404 608.187 481.351C606.928 481.091 504.234 460.036 503.221 460.829C497.268 459.571 476.436 472.573 471.659 476.333C470.359 477.359 399.406 532.116 397.914 531.391C391.741 536.272 365.612 528.548 358.536 525.102C356.634 524.172 272.035 481.255 272.623 479.232V479.218Z" stroke="url(#paint10_linear_266_1006)" stroke-miterlimit="10"/>
<path d="M291.073 465.04C283.367 461.294 282.943 440.868 285.352 432.651C285.968 430.545 297.725 385.304 295.822 384.21C298.108 376.444 290.046 365.384 283.039 361.337C280.794 360.038 262.577 347.131 263.822 344.862C255.555 340.09 261.413 313.593 265.998 305.226C267.189 303.052 302.214 243.181 304.486 244.179C308.88 236.181 329.574 237.712 337.923 241.404C339.579 242.142 381.735 259.67 383.131 258.508C389.263 261.215 411.258 247.775 416.391 243.482C417.937 242.197 474.848 196.19 476.586 197.202C482.266 192.444 496.679 195.465 503.084 199.198C504.343 199.936 528.638 214.866 528.843 216.315C533.497 219.023 536.932 225.777 537.671 231.109C538.205 234.937 543.899 244.125 546.718 241.459C548.689 255.582 569.753 257.865 580.128 248.062C581.948 246.353 599.345 232.585 601.179 234.267C607.872 227.95 618.301 227.868 625.104 234.076C626.034 234.923 626.582 236.099 626.65 237.357C630.072 240.474 632.823 259.26 633.056 263.867C633.11 264.975 636.19 319.226 636.943 320.047C637.148 324.135 651.451 341.799 654.229 344.821C656.282 347.049 702.435 401.342 699.821 402.873C707.39 411.09 691.102 432.637 681.466 438.311C680.44 438.913 626.39 470.222 625.227 469.976C621.449 472.205 593.391 467.966 589.093 467.064C587.711 466.777 499.361 448.798 498.253 449.687C493.147 448.606 471.741 462.552 467.649 465.779C466.211 466.914 404.962 513.891 403.32 513.085C398.023 517.268 371.333 508.559 365.27 505.606C363.176 504.594 290.43 467.283 291.087 465.054L291.073 465.04Z" stroke="url(#paint11_linear_266_1006)" stroke-miterlimit="10"/>
<path d="M309.536 450.862C303.117 447.731 303.637 427.715 305.662 420.865C306.333 418.568 315.9 380.286 313.82 379.083C315.722 372.616 307.798 362.69 301.94 359.313C299.49 357.905 284.105 346.407 285.46 343.932C278.576 339.953 285.707 313.744 289.539 306.784C290.839 304.419 320.718 254.283 323.182 255.377C326.836 248.718 346.901 251.234 353.854 254.31C355.675 255.117 391.288 269.651 392.807 268.379C397.913 270.635 420.072 256.238 424.342 252.656C426.026 251.248 474.012 212.87 475.915 213.964C480.65 209.999 494.296 213.471 499.634 216.589C501.017 217.395 521.479 230.165 521.698 231.738C525.571 233.993 528.514 240.146 529.13 244.589C529.705 248.773 535.658 256.84 538.724 253.941C540.367 265.713 558.94 266.656 567.59 258.494C569.575 256.621 584.795 245.15 586.807 246.982C592.377 241.718 601.082 241.65 606.735 246.818C607.748 247.748 608.35 249.033 608.418 250.4C611.265 252.998 613.743 272.371 613.934 276.213C613.989 277.43 616.672 322.904 617.493 323.793C617.657 327.211 632.836 345.477 635.163 347.979C637.407 350.412 675.731 396.57 672.87 398.252C679.18 405.101 661.907 425.227 653.873 429.957C652.75 430.614 607.392 456.755 606.133 456.482C602.985 458.341 573.53 453.528 569.944 452.776C568.439 452.462 494.447 437.573 493.229 438.53C488.972 437.628 466.991 452.517 463.583 455.21C462.009 456.441 410.477 495.652 408.671 494.777C404.263 498.264 377.013 488.57 371.948 486.096C369.663 484.988 308.769 453.282 309.495 450.849L309.536 450.862Z" stroke="url(#paint12_linear_266_1006)" stroke-miterlimit="10"/>
<path d="M327.986 436.684C322.854 434.182 324.332 414.563 325.947 409.08C326.686 406.592 334.05 375.269 331.791 373.97C333.311 368.788 325.509 360.011 320.828 357.317C318.173 355.786 305.622 345.71 307.1 343.03C301.584 339.844 310.015 313.935 313.081 308.357C314.491 305.787 339.21 265.413 341.892 266.602C344.821 261.27 364.243 264.784 369.8 267.245C371.771 268.12 400.87 279.659 402.512 278.278C406.591 280.083 428.914 264.715 432.336 261.858C434.156 260.326 473.233 229.564 475.286 230.767C479.077 227.595 491.956 231.519 496.227 234.007C497.719 234.882 514.348 245.492 514.595 247.201C517.702 249.006 520.138 254.557 520.631 258.112C521.26 262.637 527.447 269.596 530.786 266.465C532.1 275.885 548.183 275.475 555.094 268.954C557.243 266.93 570.301 257.742 572.477 259.725C576.939 255.514 583.892 255.459 588.422 259.602C589.517 260.6 590.174 261.995 590.243 263.471C592.515 265.549 594.732 285.511 594.883 288.587C594.951 289.9 597.223 326.609 598.113 327.58C598.249 330.315 614.304 349.182 616.166 351.192C618.588 353.831 649.083 391.853 645.99 393.672C651.04 399.154 632.782 417.858 626.363 421.645C625.144 422.356 588.491 443.329 587.108 443.042C584.59 444.519 553.739 439.145 550.879 438.544C549.236 438.202 489.602 426.389 488.288 427.428C484.88 426.717 462.324 442.55 459.6 444.696C457.903 446.036 416.062 477.469 414.119 476.512C410.587 479.301 382.775 468.609 378.724 466.64C376.247 465.437 327.206 439.337 327.986 436.698V436.684Z" stroke="url(#paint13_linear_266_1006)" stroke-miterlimit="10"/>
<path d="M346.436 422.506C342.59 420.633 345.026 401.409 346.23 397.294C347.024 394.614 352.198 370.25 349.775 368.842C350.925 364.959 343.233 357.316 339.729 355.293C336.869 353.639 327.151 344.984 328.739 342.099C324.605 339.707 334.323 314.099 336.622 309.915C338.141 307.153 357.7 276.514 360.588 277.799C362.778 273.807 381.57 278.305 385.745 280.15C387.866 281.094 410.436 289.639 412.202 288.162C415.268 289.516 437.742 273.191 440.315 271.045C442.272 269.404 472.424 246.257 474.628 247.542C477.461 245.163 489.588 249.538 492.791 251.411C494.392 252.355 507.203 260.804 507.463 262.636C509.79 263.99 511.733 268.953 512.103 271.619C512.787 276.5 519.22 282.352 522.806 278.961C523.792 286.03 537.383 284.279 542.57 279.385C544.883 277.197 555.764 270.306 558.119 272.439C561.458 269.281 566.687 269.24 570.081 272.344C571.258 273.424 571.97 274.928 572.052 276.514C573.763 278.072 575.693 298.622 575.802 300.932C575.871 302.34 577.759 330.287 578.717 331.326C578.813 333.376 595.758 352.846 597.154 354.35C599.768 357.193 622.434 387.081 619.108 389.036C622.885 393.151 603.669 410.447 598.851 413.277C597.551 414.043 569.575 429.848 568.096 429.533C566.208 430.641 533.947 424.693 531.812 424.242C530.047 423.873 484.77 415.15 483.347 416.257C480.801 415.724 457.656 432.5 455.617 434.113C453.783 435.563 421.646 459.216 419.552 458.19C416.91 460.282 388.523 448.606 385.485 447.129C382.829 445.83 345.642 425.336 346.477 422.506H346.436Z" stroke="url(#paint14_linear_266_1006)" stroke-miterlimit="10"/>
<path d="M364.887 408.328C362.314 407.084 365.708 388.257 366.516 385.509C367.364 382.638 370.348 365.233 367.748 363.729C368.514 361.145 360.959 354.637 358.618 353.297C355.566 351.533 348.668 344.301 350.365 341.197C347.614 339.611 358.618 314.277 360.138 311.487C361.766 308.534 376.179 287.643 379.258 289.01C380.723 286.344 398.872 291.84 401.65 293.071C403.922 294.069 419.963 299.634 421.866 298.048C423.905 298.95 446.544 281.655 448.254 280.219C450.362 278.455 471.577 262.937 473.945 264.318C475.834 262.732 487.194 267.559 489.329 268.803C491.054 269.801 500.032 276.104 500.306 278.072C501.853 278.975 503.29 283.336 503.55 285.114C504.275 290.336 510.968 295.081 514.8 291.458C515.457 296.161 526.558 293.085 530.007 289.817C532.484 287.479 541.203 282.871 543.707 285.168C545.938 283.063 549.415 283.036 551.687 285.1C552.946 286.248 553.713 287.862 553.795 289.571C554.931 290.61 556.587 311.747 556.669 313.278C556.737 314.796 558.229 333.965 559.256 335.086C559.324 336.453 577.145 356.524 578.075 357.535C580.881 360.584 595.718 382.337 592.146 384.429C594.664 387.163 574.462 403.05 571.246 404.937C569.849 405.757 550.578 416.394 548.991 416.066C547.731 416.805 514.075 410.283 512.652 409.968C510.763 409.572 479.83 403.925 478.311 405.128C476.614 404.773 452.894 422.492 451.526 423.572C449.568 425.117 427.135 440.991 424.891 439.897C423.125 441.292 394.177 428.617 392.151 427.633C389.305 426.238 363.97 411.363 364.86 408.314L364.887 408.328Z" stroke="url(#paint15_linear_266_1006)" stroke-miterlimit="10"/>
<path d="M383.338 394.15C382.052 393.521 386.404 375.105 386.815 373.724C387.718 370.661 388.512 360.216 385.747 358.603C386.13 357.304 378.698 351.944 377.521 351.274C374.264 349.388 370.199 343.577 372.005 340.268C370.623 339.475 382.914 314.441 383.68 313.047C385.419 309.888 394.671 298.759 397.969 300.209C398.695 298.882 416.214 305.349 417.597 305.965C420.019 307.031 429.532 309.601 431.557 307.906C432.584 308.357 455.373 290.105 456.235 289.38C458.48 287.507 470.784 279.591 473.303 281.067C474.247 280.274 484.841 285.552 485.908 286.181C487.742 287.247 492.902 291.376 493.19 293.482C493.97 293.933 494.901 297.693 495.024 298.582C495.804 304.16 502.73 307.783 506.836 303.927C507.164 306.279 515.76 301.863 517.498 300.222C520.14 297.734 526.682 295.41 529.365 297.857C530.473 296.804 532.225 296.79 533.347 297.83C534.702 299.06 535.496 300.769 535.592 302.601C536.167 303.121 537.549 324.846 537.577 325.612C537.659 327.225 538.74 337.629 539.835 338.819C539.862 339.502 558.573 360.175 559.038 360.681C562.022 363.921 569.029 377.552 565.238 379.795C566.497 381.162 545.31 395.627 543.708 396.57C542.217 397.445 531.65 402.928 529.953 402.559C529.323 402.928 494.271 395.818 493.559 395.668C491.547 395.244 474.959 392.687 473.344 393.959C472.495 393.781 448.201 412.444 447.516 412.991C445.422 414.645 432.693 422.739 430.298 421.577C429.422 422.274 399.899 408.616 398.9 408.123C395.862 406.647 382.38 397.363 383.338 394.123V394.15Z" stroke="url(#paint16_linear_266_1006)" stroke-miterlimit="10"/>
<path d="M517.387 315.672L518.496 337.985C518.578 339.707 519.262 341.334 520.426 342.606L539.998 363.88C543.173 367.325 542.352 372.821 538.315 375.2L516.155 388.244C514.568 389.173 512.693 389.488 510.9 389.105L474.451 381.421C472.316 380.97 470.085 381.49 468.36 382.843L443.491 402.463C441.274 404.213 438.235 404.541 435.69 403.297L405.619 388.64C402.389 387.068 400.76 383.39 401.787 379.945L407.097 361.911C408.056 358.657 406.66 355.157 403.717 353.462L396.408 349.237C392.945 347.241 391.713 342.838 393.63 339.324L407.207 314.578C409.041 311.228 413.147 309.833 416.651 311.392L433.513 318.857C436.086 319.992 439.084 319.568 441.233 317.763L464.186 298.54C466.567 296.544 469.948 296.257 472.631 297.829L482.458 303.558C484.415 304.693 485.729 306.662 486.044 308.904L486.482 312.076C487.303 317.996 494.489 320.525 498.841 316.41L504.946 310.64C507.752 307.988 512.131 307.96 514.978 310.558C516.415 311.871 517.264 313.689 517.36 315.63L517.387 315.672Z" stroke="url(#paint17_linear_266_1006)" stroke-miterlimit="10"/>
<defs>
<linearGradient id="paint0_linear_266_1006" x1="974.636" y1="108.469" x2="-32.1049" y2="190.979" gradientUnits="userSpaceOnUse">
<stop stop-color="#7C368D"/>
<stop offset="0.260417" stop-color="#753384"/>
<stop offset="0.71875" stop-color="#AA419E"/>
<stop offset="1" stop-color="#83357A"/>
</linearGradient>
<linearGradient id="paint1_linear_266_1006" x1="974.636" y1="108.469" x2="-32.1049" y2="190.979" gradientUnits="userSpaceOnUse">
<stop stop-color="#7C368D"/>
<stop offset="0.260417" stop-color="#753384"/>
<stop offset="0.71875" stop-color="#AA419E"/>
<stop offset="1" stop-color="#83357A"/>
</linearGradient>
<linearGradient id="paint2_linear_266_1006" x1="974.636" y1="108.469" x2="-32.1049" y2="190.979" gradientUnits="userSpaceOnUse">
<stop stop-color="#7C368D"/>
<stop offset="0.260417" stop-color="#753384"/>
<stop offset="0.71875" stop-color="#AA419E"/>
<stop offset="1" stop-color="#83357A"/>
</linearGradient>
<linearGradient id="paint3_linear_266_1006" x1="974.636" y1="108.469" x2="-32.1049" y2="190.979" gradientUnits="userSpaceOnUse">
<stop stop-color="#7C368D"/>
<stop offset="0.260417" stop-color="#753384"/>
<stop offset="0.71875" stop-color="#AA419E"/>
<stop offset="1" stop-color="#83357A"/>
</linearGradient>
<linearGradient id="paint4_linear_266_1006" x1="974.636" y1="108.469" x2="-32.1049" y2="190.979" gradientUnits="userSpaceOnUse">
<stop stop-color="#7C368D"/>
<stop offset="0.260417" stop-color="#753384"/>
<stop offset="0.71875" stop-color="#AA419E"/>
<stop offset="1" stop-color="#83357A"/>
</linearGradient>
<linearGradient id="paint5_linear_266_1006" x1="974.636" y1="108.469" x2="-32.1049" y2="190.979" gradientUnits="userSpaceOnUse">
<stop stop-color="#7C368D"/>
<stop offset="0.260417" stop-color="#753384"/>
<stop offset="0.71875" stop-color="#AA419E"/>
<stop offset="1" stop-color="#83357A"/>
</linearGradient>
<linearGradient id="paint6_linear_266_1006" x1="974.636" y1="108.469" x2="-32.1049" y2="190.979" gradientUnits="userSpaceOnUse">
<stop stop-color="#7C368D"/>
<stop offset="0.260417" stop-color="#753384"/>
<stop offset="0.71875" stop-color="#AA419E"/>
<stop offset="1" stop-color="#83357A"/>
</linearGradient>
<linearGradient id="paint7_linear_266_1006" x1="974.636" y1="108.469" x2="-32.1049" y2="190.979" gradientUnits="userSpaceOnUse">
<stop stop-color="#7C368D"/>
<stop offset="0.260417" stop-color="#753384"/>
<stop offset="0.71875" stop-color="#AA419E"/>
<stop offset="1" stop-color="#83357A"/>
</linearGradient>
<linearGradient id="paint8_linear_266_1006" x1="974.636" y1="108.469" x2="-32.1049" y2="190.979" gradientUnits="userSpaceOnUse">
<stop stop-color="#7C368D"/>
<stop offset="0.260417" stop-color="#753384"/>
<stop offset="0.71875" stop-color="#AA419E"/>
<stop offset="1" stop-color="#83357A"/>
</linearGradient>
<linearGradient id="paint9_linear_266_1006" x1="974.636" y1="108.469" x2="-32.1049" y2="190.979" gradientUnits="userSpaceOnUse">
<stop stop-color="#7C368D"/>
<stop offset="0.260417" stop-color="#753384"/>
<stop offset="0.71875" stop-color="#AA419E"/>
<stop offset="1" stop-color="#83357A"/>
</linearGradient>
<linearGradient id="paint10_linear_266_1006" x1="974.636" y1="108.469" x2="-32.1049" y2="190.979" gradientUnits="userSpaceOnUse">
<stop stop-color="#7C368D"/>
<stop offset="0.260417" stop-color="#753384"/>
<stop offset="0.71875" stop-color="#AA419E"/>
<stop offset="1" stop-color="#83357A"/>
</linearGradient>
<linearGradient id="paint11_linear_266_1006" x1="974.636" y1="108.469" x2="-32.1049" y2="190.979" gradientUnits="userSpaceOnUse">
<stop stop-color="#7C368D"/>
<stop offset="0.260417" stop-color="#753384"/>
<stop offset="0.71875" stop-color="#AA419E"/>
<stop offset="1" stop-color="#83357A"/>
</linearGradient>
<linearGradient id="paint12_linear_266_1006" x1="974.636" y1="108.469" x2="-32.1049" y2="190.979" gradientUnits="userSpaceOnUse">
<stop stop-color="#7C368D"/>
<stop offset="0.260417" stop-color="#753384"/>
<stop offset="0.71875" stop-color="#AA419E"/>
<stop offset="1" stop-color="#83357A"/>
</linearGradient>
<linearGradient id="paint13_linear_266_1006" x1="974.636" y1="108.469" x2="-32.1049" y2="190.979" gradientUnits="userSpaceOnUse">
<stop stop-color="#7C368D"/>
<stop offset="0.260417" stop-color="#753384"/>
<stop offset="0.71875" stop-color="#AA419E"/>
<stop offset="1" stop-color="#83357A"/>
</linearGradient>
<linearGradient id="paint14_linear_266_1006" x1="974.636" y1="108.469" x2="-32.1049" y2="190.979" gradientUnits="userSpaceOnUse">
<stop stop-color="#7C368D"/>
<stop offset="0.260417" stop-color="#753384"/>
<stop offset="0.71875" stop-color="#AA419E"/>
<stop offset="1" stop-color="#83357A"/>
</linearGradient>
<linearGradient id="paint15_linear_266_1006" x1="974.636" y1="108.469" x2="-32.1049" y2="190.979" gradientUnits="userSpaceOnUse">
<stop stop-color="#7C368D"/>
<stop offset="0.260417" stop-color="#753384"/>
<stop offset="0.71875" stop-color="#AA419E"/>
<stop offset="1" stop-color="#83357A"/>
</linearGradient>
<linearGradient id="paint16_linear_266_1006" x1="974.636" y1="108.469" x2="-32.1049" y2="190.979" gradientUnits="userSpaceOnUse">
<stop stop-color="#7C368D"/>
<stop offset="0.260417" stop-color="#753384"/>
<stop offset="0.71875" stop-color="#AA419E"/>
<stop offset="1" stop-color="#83357A"/>
</linearGradient>
<linearGradient id="paint17_linear_266_1006" x1="974.636" y1="108.469" x2="-32.1049" y2="190.979" gradientUnits="userSpaceOnUse">
<stop stop-color="#7C368D"/>
<stop offset="0.260417" stop-color="#753384"/>
<stop offset="0.71875" stop-color="#AA419E"/>
<stop offset="1" stop-color="#83357A"/>
</linearGradient>
</defs>
</svg>
