<svg width="193" height="48" viewBox="0 0 193 48" fill="none" xmlns="http://www.w3.org/2000/svg">
<path opacity="0.5" d="M8.64681 6.8666L5.76594 9.78743L10.8475 14.8689L15.969 19.9903H8.84687H1.65039V23.9915V27.9926H8.84687H15.969L18.8499 25.1118L21.7707 22.231V18.1898V14.1887L16.6492 9.06722L11.5677 3.98578L8.64681 6.8666Z" fill="white"/>
<path opacity="0.25" d="M21.6789 11.0832L21.6729 22.1906L22.7992 21.086C23.9105 19.9963 23.9596 20.0057 29.6813 20.0057H35.483L40.5646 14.9242L45.6861 9.80279L42.8052 6.92197L39.8844 4.00114L34.8028 9.08258L29.6813 14.204V7.08201V0H25.6801H21.6789L21.6789 11.0832Z" fill="white"/>
<path d="M22.7107 21.0727C22.2754 21.5286 21.4996 22.2596 21.3363 22.7201C21.1843 23.1488 21.63 23.2976 21.63 23.9535V25.754L30.7164 34.8366L39.8428 43.9592L42.7248 41.0784L45.6469 38.1576L40.5633 33.0761L35.4397 27.9547H42.5647H49.6497V23.9535V19.9524H36.7206H23.7915L22.7107 21.0727Z" fill="white"/>
<path opacity="0.75" d="M13.6021 30.2638L5.67969 38.1911L8.56055 41.1137L11.4814 43.9963L16.5629 38.9117L21.6845 33.787V40.9135V48H25.6857H29.6869V40.8735V33.787L25.6857 29.7834C22.0046 26.1401 21.773 25.6673 21.653 24.0659L21.6724 22.1906L13.6021 30.2638Z" fill="white"/>
<path d="M63.9544 13.088H71.6984C73.5117 13.088 75.1437 13.3653 76.5944 13.92C78.0451 14.4747 79.2824 15.264 80.3064 16.288C81.3304 17.2907 82.1091 18.496 82.6424 19.904C83.1971 21.312 83.4744 22.8587 83.4744 24.544C83.4744 26.2507 83.1971 27.808 82.6424 29.216C82.1091 30.624 81.3304 31.8293 80.3064 32.832C79.2824 33.8347 78.0451 34.6133 76.5944 35.168C75.1437 35.7227 73.5117 36 71.6984 36H63.9544V13.088ZM71.5064 31.904C72.7651 31.904 73.8744 31.7333 74.8344 31.392C75.7944 31.0293 76.5944 30.528 77.2344 29.888C77.8744 29.248 78.3544 28.48 78.6744 27.584C78.9944 26.6667 79.1544 25.6533 79.1544 24.544C79.1544 23.4347 78.9944 22.432 78.6744 21.536C78.3544 20.6187 77.8744 19.84 77.2344 19.2C76.5944 18.56 75.7944 18.0693 74.8344 17.728C73.8744 17.3653 72.7651 17.184 71.5064 17.184H68.2744V31.904H71.5064ZM88.7784 18.048C88.4157 18.048 88.0637 17.984 87.7224 17.856C87.4024 17.7067 87.1144 17.5147 86.8584 17.28C86.6237 17.024 86.4317 16.736 86.2824 16.416C86.1544 16.096 86.0904 15.744 86.0904 15.36C86.0904 14.976 86.1544 14.624 86.2824 14.304C86.4317 13.984 86.6237 13.7067 86.8584 13.472C87.1144 13.216 87.4024 13.024 87.7224 12.896C88.0637 12.7467 88.4157 12.672 88.7784 12.672C89.5251 12.672 90.1651 12.9387 90.6984 13.472C91.2317 13.984 91.4984 14.6133 91.4984 15.36C91.4984 16.1067 91.2317 16.7467 90.6984 17.28C90.1651 17.792 89.5251 18.048 88.7784 18.048ZM86.6984 36V20.32H90.8904V36H86.6984ZM100.932 36.512C99.9076 36.512 98.9903 36.384 98.1796 36.128C97.3903 35.872 96.697 35.5413 96.0996 35.136C95.5236 34.7093 95.033 34.2293 94.6276 33.696C94.2223 33.1413 93.913 32.5867 93.6996 32.032L97.4436 30.432C97.8063 31.2427 98.2863 31.8507 98.8836 32.256C99.5023 32.64 100.185 32.832 100.932 32.832C101.7 32.832 102.308 32.6933 102.756 32.416C103.204 32.1387 103.428 31.808 103.428 31.424C103.428 30.9973 103.236 30.656 102.852 30.4C102.489 30.1227 101.849 29.8773 100.932 29.664L98.7236 29.184C98.233 29.0773 97.721 28.9067 97.1876 28.672C96.6756 28.4373 96.2063 28.1387 95.7796 27.776C95.353 27.4133 95.001 26.976 94.7236 26.464C94.4463 25.952 94.3076 25.3547 94.3076 24.672C94.3076 23.904 94.4676 23.2213 94.7876 22.624C95.129 22.0267 95.5876 21.5253 96.1636 21.12C96.7396 20.6933 97.4116 20.3733 98.1796 20.16C98.969 19.9253 99.8116 19.808 100.708 19.808C102.201 19.808 103.534 20.1067 104.708 20.704C105.881 21.28 106.745 22.208 107.3 23.488L103.684 24.96C103.385 24.3413 102.948 23.8933 102.372 23.616C101.796 23.3387 101.22 23.2 100.644 23.2C100.046 23.2 99.5236 23.328 99.0756 23.584C98.6276 23.8187 98.4036 24.128 98.4036 24.512C98.4036 24.8747 98.585 25.1627 98.9476 25.376C99.3316 25.5893 99.8436 25.7813 100.484 25.952L102.884 26.528C104.484 26.912 105.668 27.5307 106.436 28.384C107.225 29.216 107.62 30.208 107.62 31.36C107.62 32.0427 107.46 32.6933 107.14 33.312C106.82 33.9307 106.361 34.4853 105.764 34.976C105.188 35.4453 104.484 35.8187 103.652 36.096C102.841 36.3733 101.934 36.512 100.932 36.512ZM125.229 32C124.546 33.3227 123.586 34.4107 122.349 35.264C121.133 36.096 119.607 36.512 117.773 36.512C116.557 36.512 115.437 36.3093 114.413 35.904C113.41 35.4773 112.535 34.8907 111.789 34.144C111.063 33.3973 110.487 32.5227 110.061 31.52C109.655 30.496 109.453 29.376 109.453 28.16C109.453 26.944 109.655 25.824 110.061 24.8C110.487 23.776 111.063 22.9013 111.789 22.176C112.535 21.4293 113.41 20.8533 114.413 20.448C115.437 20.0213 116.557 19.808 117.773 19.808C119.586 19.808 121.111 20.224 122.349 21.056C123.586 21.888 124.493 22.9653 125.069 24.288L121.229 25.888C120.866 25.1627 120.397 24.6187 119.821 24.256C119.266 23.872 118.562 23.68 117.709 23.68C117.154 23.68 116.631 23.7867 116.141 24C115.65 24.2133 115.213 24.512 114.829 24.896C114.466 25.28 114.178 25.7493 113.965 26.304C113.751 26.8587 113.645 27.4773 113.645 28.16C113.645 28.8427 113.751 29.4613 113.965 30.016C114.178 30.5707 114.466 31.04 114.829 31.424C115.213 31.808 115.65 32.1067 116.141 32.32C116.631 32.5333 117.154 32.64 117.709 32.64C118.583 32.64 119.319 32.448 119.917 32.064C120.535 31.6587 121.026 31.0827 121.389 30.336L125.229 32ZM135.054 19.808C136.27 19.808 137.379 20.0213 138.382 20.448C139.406 20.8533 140.281 21.4293 141.006 22.176C141.753 22.9013 142.329 23.776 142.734 24.8C143.161 25.824 143.374 26.944 143.374 28.16C143.374 29.376 143.161 30.496 142.734 31.52C142.329 32.544 141.753 33.4293 141.006 34.176C140.281 34.9013 139.406 35.4773 138.382 35.904C137.379 36.3093 136.27 36.512 135.054 36.512C133.838 36.512 132.718 36.3093 131.694 35.904C130.691 35.4773 129.817 34.9013 129.07 34.176C128.345 33.4293 127.769 32.544 127.342 31.52C126.937 30.496 126.734 29.376 126.734 28.16C126.734 26.944 126.937 25.824 127.342 24.8C127.769 23.776 128.345 22.9013 129.07 22.176C129.817 21.4293 130.691 20.8533 131.694 20.448C132.718 20.0213 133.838 19.808 135.054 19.808ZM135.054 32.64C135.587 32.64 136.099 32.544 136.59 32.352C137.102 32.1387 137.55 31.84 137.934 31.456C138.318 31.072 138.617 30.6027 138.83 30.048C139.065 29.4933 139.182 28.864 139.182 28.16C139.182 27.456 139.065 26.8267 138.83 26.272C138.617 25.7173 138.318 25.248 137.934 24.864C137.55 24.48 137.102 24.192 136.59 24C136.099 23.7867 135.587 23.68 135.054 23.68C134.499 23.68 133.977 23.7867 133.486 24C132.995 24.192 132.558 24.48 132.174 24.864C131.79 25.248 131.481 25.7173 131.246 26.272C131.033 26.8267 130.926 27.456 130.926 28.16C130.926 28.864 131.033 29.4933 131.246 30.048C131.481 30.6027 131.79 31.072 132.174 31.456C132.558 31.84 132.995 32.1387 133.486 32.352C133.977 32.544 134.499 32.64 135.054 32.64ZM144.091 20.32H148.859L152.763 30.304H152.987L156.923 20.32H161.659L154.907 36H150.779L144.091 20.32ZM177.947 32.224C177.221 33.504 176.24 34.5387 175.003 35.328C173.787 36.1173 172.293 36.512 170.523 36.512C169.328 36.512 168.219 36.3093 167.195 35.904C166.192 35.4773 165.317 34.8907 164.571 34.144C163.824 33.3973 163.237 32.5227 162.811 31.52C162.405 30.496 162.203 29.376 162.203 28.16C162.203 27.0293 162.405 25.9627 162.811 24.96C163.216 23.936 163.781 23.0507 164.507 22.304C165.232 21.536 166.085 20.928 167.067 20.48C168.069 20.032 169.168 19.808 170.363 19.808C171.621 19.808 172.741 20.0213 173.723 20.448C174.704 20.8533 175.525 21.4293 176.187 22.176C176.848 22.9013 177.349 23.7653 177.691 24.768C178.032 25.7707 178.203 26.8587 178.203 28.032C178.203 28.1813 178.203 28.3093 178.203 28.416C178.181 28.544 178.171 28.6613 178.171 28.768C178.149 28.8747 178.139 28.992 178.139 29.12H166.331C166.416 29.76 166.587 30.3147 166.843 30.784C167.12 31.232 167.451 31.616 167.835 31.936C168.24 32.2347 168.677 32.4587 169.147 32.608C169.616 32.736 170.096 32.8 170.587 32.8C171.547 32.8 172.336 32.5867 172.955 32.16C173.595 31.712 174.096 31.1573 174.459 30.496L177.947 32.224ZM174.139 26.144C174.117 25.8667 174.021 25.5573 173.851 25.216C173.701 24.8747 173.467 24.5547 173.147 24.256C172.848 23.9573 172.464 23.712 171.995 23.52C171.547 23.328 171.003 23.232 170.363 23.232C169.467 23.232 168.677 23.488 167.995 24C167.312 24.512 166.832 25.2267 166.555 26.144H174.139ZM180.88 20.32H184.816V22.496H185.072C185.264 22.112 185.52 21.76 185.84 21.44C186.16 21.12 186.512 20.8427 186.896 20.608C187.301 20.3733 187.728 20.192 188.176 20.064C188.645 19.936 189.104 19.872 189.552 19.872C190.107 19.872 190.576 19.9253 190.96 20.032C191.365 20.1387 191.707 20.2773 191.984 20.448L190.864 24.256C190.608 24.128 190.32 24.032 190 23.968C189.701 23.8827 189.328 23.84 188.88 23.84C188.304 23.84 187.781 23.9573 187.312 24.192C186.843 24.4053 186.437 24.7147 186.096 25.12C185.776 25.5253 185.52 26.0053 185.328 26.56C185.157 27.0933 185.072 27.68 185.072 28.32V36H180.88V20.32Z" fill="white"/>
</svg>
