<svg width="171" height="48" viewBox="0 0 171 48" fill="none" xmlns="http://www.w3.org/2000/svg">
<path d="M62.1284 21V3.816H67.3844C70.0084 3.816 72.1124 4.608 73.6964 6.192C75.2964 7.776 76.0964 9.848 76.0964 12.408C76.0964 14.984 75.2964 17.064 73.6964 18.648C72.1124 20.216 70.0084 21 67.3844 21H62.1284ZM64.3364 5.928V18.888H67.3844C69.3844 18.888 70.9604 18.32 72.1124 17.184C73.2644 16.032 73.8404 14.44 73.8404 12.408C73.8404 10.392 73.2644 8.808 72.1124 7.656C70.9604 6.504 69.3844 5.928 67.3844 5.928H64.3364ZM81.1941 5.184C81.1941 5.616 81.0421 5.984 80.7381 6.288C80.4341 6.592 80.0661 6.744 79.6341 6.744C79.2021 6.744 78.8341 6.592 78.5301 6.288C78.2261 5.984 78.0741 5.616 78.0741 5.184C78.0741 4.752 78.2261 4.384 78.5301 4.08C78.8341 3.776 79.2021 3.624 79.6341 3.624C80.0661 3.624 80.4341 3.776 80.7381 4.08C81.0421 4.384 81.1941 4.752 81.1941 5.184ZM80.7381 9.24V21H78.5301V9.24H80.7381ZM92.6116 17.736C92.6116 18.76 92.1636 19.624 91.2676 20.328C90.3716 21.032 89.2436 21.384 87.8836 21.384C86.6996 21.384 85.6596 21.08 84.7636 20.472C83.8676 19.848 83.2276 19.032 82.8436 18.024L84.8116 17.184C85.0996 17.888 85.5156 18.44 86.0596 18.84C86.6196 19.224 87.2276 19.416 87.8836 19.416C88.5876 19.416 89.1716 19.264 89.6356 18.96C90.1156 18.656 90.3556 18.296 90.3556 17.88C90.3556 17.128 89.7796 16.576 88.6276 16.224L86.6116 15.72C84.3236 15.144 83.1796 14.04 83.1796 12.408C83.1796 11.336 83.6116 10.48 84.4756 9.84C85.3556 9.184 86.4756 8.856 87.8356 8.856C88.8756 8.856 89.8116 9.104 90.6436 9.6C91.4916 10.096 92.0836 10.76 92.4196 11.592L90.4516 12.408C90.2276 11.912 89.8596 11.528 89.3476 11.256C88.8516 10.968 88.2916 10.824 87.6676 10.824C87.0916 10.824 86.5716 10.968 86.1076 11.256C85.6596 11.544 85.4356 11.896 85.4356 12.312C85.4356 12.984 86.0676 13.464 87.3316 13.752L89.1076 14.208C91.4436 14.784 92.6116 15.96 92.6116 17.736ZM100.176 19.368C101.232 19.368 102.12 18.968 102.84 18.168C103.56 17.384 103.92 16.368 103.92 15.12C103.92 13.888 103.56 12.872 102.84 12.072C102.12 11.272 101.232 10.872 100.176 10.872C99.1043 10.872 98.2083 11.272 97.4883 12.072C96.7843 12.872 96.4323 13.888 96.4323 15.12C96.4323 16.368 96.7843 17.392 97.4883 18.192C98.2083 18.976 99.1043 19.368 100.176 19.368ZM100.536 21.384C99.6723 21.384 98.8803 21.2 98.1603 20.832C97.4563 20.464 96.9123 19.976 96.5283 19.368H96.4323L96.5283 21V26.184H94.3203V9.24H96.4323V10.872H96.5283C96.9123 10.264 97.4563 9.776 98.1603 9.408C98.8803 9.04 99.6723 8.856 100.536 8.856C102.088 8.856 103.4 9.464 104.472 10.68C105.576 11.912 106.128 13.392 106.128 15.12C106.128 16.864 105.576 18.344 104.472 19.56C103.4 20.776 102.088 21.384 100.536 21.384ZM110.124 3.816V21H107.916V3.816H110.124ZM114.306 17.4C114.306 17.976 114.546 18.456 115.026 18.84C115.522 19.224 116.098 19.416 116.754 19.416C117.682 19.416 118.506 19.072 119.226 18.384C119.962 17.696 120.33 16.888 120.33 15.96C119.642 15.416 118.682 15.144 117.45 15.144C116.554 15.144 115.802 15.36 115.194 15.792C114.602 16.224 114.306 16.76 114.306 17.4ZM117.162 8.856C118.794 8.856 120.082 9.296 121.026 10.176C121.97 11.04 122.442 12.232 122.442 13.752V21H120.33V19.368H120.234C119.322 20.712 118.106 21.384 116.586 21.384C115.29 21.384 114.202 21 113.322 20.232C112.458 19.464 112.026 18.504 112.026 17.352C112.026 16.136 112.482 15.168 113.394 14.448C114.322 13.728 115.554 13.368 117.09 13.368C118.402 13.368 119.482 13.608 120.33 14.088V13.584C120.33 12.816 120.026 12.168 119.418 11.64C118.81 11.096 118.098 10.824 117.282 10.824C116.05 10.824 115.074 11.344 114.354 12.384L112.41 11.16C113.482 9.624 115.066 8.856 117.162 8.856ZM135.21 9.24L127.842 26.184H125.562L128.298 20.256L123.45 9.24H125.85L129.354 17.688H129.402L132.81 9.24H135.21ZM64.3364 43H62.1284V25.816H64.8164L73.1684 39.184H73.2644L73.1684 35.872V25.816H75.3764V43H73.0724L64.3364 28.984H64.2404L64.3364 32.296V43ZM83.7353 43.384C82.0073 43.384 80.5833 42.792 79.4633 41.608C78.3433 40.424 77.7833 38.928 77.7833 37.12C77.7833 35.328 78.3273 33.84 79.4153 32.656C80.5033 31.456 81.8953 30.856 83.5913 30.856C85.3353 30.856 86.7193 31.424 87.7433 32.56C88.7833 33.68 89.3033 35.256 89.3033 37.288L89.2793 37.528H80.0393C80.0713 38.68 80.4553 39.608 81.1913 40.312C81.9273 41.016 82.8073 41.368 83.8313 41.368C85.2393 41.368 86.3433 40.664 87.1433 39.256L89.1113 40.216C88.5833 41.208 87.8473 41.984 86.9033 42.544C85.9753 43.104 84.9193 43.384 83.7353 43.384ZM80.2073 35.704H86.9513C86.8873 34.888 86.5513 34.216 85.9433 33.688C85.3513 33.144 84.5513 32.872 83.5433 32.872C82.7113 32.872 81.9913 33.128 81.3833 33.64C80.7913 34.152 80.3993 34.84 80.2073 35.704ZM95.627 43.192C94.667 43.192 93.867 42.896 93.227 42.304C92.603 41.712 92.283 40.888 92.267 39.832V33.256H90.203V31.24H92.267V27.64H94.475V31.24H97.355V33.256H94.475V39.112C94.475 39.896 94.627 40.432 94.931 40.72C95.235 40.992 95.579 41.128 95.963 41.128C96.139 41.128 96.307 41.112 96.467 41.08C96.643 41.032 96.803 40.976 96.947 40.912L97.643 42.88C97.067 43.088 96.395 43.192 95.627 43.192ZM116.463 31.24L112.671 43H110.415L107.487 33.976L104.583 43H102.351L98.5589 31.24H100.863L103.479 40.12H103.503L106.407 31.24H108.687L111.591 40.12H111.615L114.207 31.24H116.463ZM116.994 37.12C116.994 35.312 117.562 33.816 118.698 32.632C119.85 31.448 121.298 30.856 123.042 30.856C124.786 30.856 126.226 31.448 127.362 32.632C128.514 33.816 129.09 35.312 129.09 37.12C129.09 38.944 128.514 40.44 127.362 41.608C126.226 42.792 124.786 43.384 123.042 43.384C121.298 43.384 119.85 42.792 118.698 41.608C117.562 40.424 116.994 38.928 116.994 37.12ZM119.202 37.12C119.202 38.384 119.57 39.408 120.306 40.192C121.042 40.976 121.954 41.368 123.042 41.368C124.13 41.368 125.042 40.976 125.778 40.192C126.514 39.408 126.882 38.384 126.882 37.12C126.882 35.872 126.514 34.856 125.778 34.072C125.026 33.272 124.114 32.872 123.042 32.872C121.97 32.872 121.058 33.272 120.306 34.072C119.57 34.856 119.202 35.872 119.202 37.12ZM133.07 43H130.862V31.24H132.974V33.16H133.07C133.294 32.536 133.75 32.008 134.438 31.576C135.142 31.128 135.83 30.904 136.502 30.904C137.142 30.904 137.686 31 138.134 31.192L137.462 33.328C137.19 33.216 136.758 33.16 136.166 33.16C135.334 33.16 134.606 33.496 133.982 34.168C133.374 34.84 133.07 35.624 133.07 36.52V43ZM150.042 43H147.378L143.706 37.456L141.906 39.232V43H139.698V25.816H141.906V36.4L146.994 31.24H149.826V31.336L145.242 35.896L150.042 42.904V43Z" fill="white"/>
<g clip-path="url(#clip0_201_8532)">
<path opacity="0.5" d="M23.9991 23.9756L30.6698 43.9952C30.6716 43.9991 30.6716 44.0031 30.6735 44.0091C30.9652 44.8192 31.4349 45.5396 32.0222 46.1445L32.7604 44.6062L32.3196 1.46437L32.0222 0.0547485L32.0046 0.00787354L31.3886 0.533624L23.7501 23.4026L23.9991 23.9756Z" fill="white"/>
<path opacity="0.25" d="M36.3131 47.9687L48.0003 47.9706L47.9885 47.9432L32.0283 0.0508423V46.1425C33.1128 47.2641 34.6258 47.9687 36.3131 47.9687Z" fill="white"/>
<path d="M15.9973 0.0058125L15.9954 0.0234375L15.9896 0.0058125L0.0118125 47.9452L0 47.9706H11.6872C13.3727 47.9706 14.8875 47.2659 15.972 46.1406C16.5591 45.5338 17.0289 44.8155 17.3205 44.0051C17.3226 43.9991 17.3226 43.9952 17.3244 43.9933L32.0085 0H15.9954V0.0058125H15.9973Z" fill="white"/>
</g>
<defs>
<clipPath id="clip0_201_8532">
<rect width="48" height="48" fill="white"/>
</clipPath>
</defs>
</svg>
