<svg width="620" height="286" viewBox="0 0 620 286" fill="none" xmlns="http://www.w3.org/2000/svg">
<g clip-path="url(#clip0_201_8550)">
<g clip-path="url(#clip1_201_8550)">
<path d="M167.5 131.891V25" stroke="#7E378F" stroke-miterlimit="10"/>
<path d="M165.765 132.026L149.042 26.4535" stroke="#7E378F" stroke-miterlimit="10"/>
<path d="M164.068 132.436L131.037 30.7762" stroke="#7E378F" stroke-miterlimit="10"/>
<path d="M162.459 133.101L113.931 37.8601" stroke="#7E378F" stroke-miterlimit="10"/>
<path d="M160.973 134.014L98.1416 47.5377" stroke="#7E378F" stroke-miterlimit="10"/>
<path d="M159.644 135.143L84.0605 59.5603" stroke="#7E378F" stroke-miterlimit="10"/>
<path d="M158.514 136.473L72.0371 73.6416" stroke="#7E378F" stroke-miterlimit="10"/>
<path d="M157.601 137.959L62.3603 89.4304" stroke="#7E378F" stroke-miterlimit="10"/>
<path d="M156.936 139.569L55.2761 106.538" stroke="#7E378F" stroke-miterlimit="10"/>
<path d="M156.525 141.265L50.9531 124.542" stroke="#7E378F" stroke-miterlimit="10"/>
<path d="M156.39 143H49.4999" stroke="#7E378F" stroke-miterlimit="10"/>
<path d="M156.525 144.74L50.9531 161.458" stroke="#7E378F" stroke-miterlimit="10"/>
<path d="M156.936 146.431L55.2761 179.462" stroke="#7E378F" stroke-miterlimit="10"/>
<path d="M157.601 148.047L62.3603 196.57" stroke="#7E378F" stroke-miterlimit="10"/>
<path d="M158.514 149.533L72.0371 212.358" stroke="#7E378F" stroke-miterlimit="10"/>
<path d="M159.644 150.857L84.0605 226.44" stroke="#7E378F" stroke-miterlimit="10"/>
<path d="M160.973 151.986L98.1416 238.468" stroke="#7E378F" stroke-miterlimit="10"/>
<path d="M162.459 152.899L113.931 248.14" stroke="#7E378F" stroke-miterlimit="10"/>
<path d="M164.068 153.564L131.037 255.224" stroke="#7E378F" stroke-miterlimit="10"/>
<path d="M165.765 153.974L149.042 259.546" stroke="#7E378F" stroke-miterlimit="10"/>
<path d="M167.5 154.109V261" stroke="#7E378F" stroke-miterlimit="10"/>
<path d="M169.24 153.974L185.958 259.546" stroke="#7E378F" stroke-miterlimit="10"/>
<path d="M170.931 153.564L203.962 255.224" stroke="#7E378F" stroke-miterlimit="10"/>
<path d="M172.547 152.899L221.069 248.14" stroke="#7E378F" stroke-miterlimit="10"/>
<path d="M174.032 151.986L236.858 238.468" stroke="#7E378F" stroke-miterlimit="10"/>
<path d="M175.356 150.857L250.94 226.44" stroke="#7E378F" stroke-miterlimit="10"/>
<path d="M176.485 149.533L262.967 212.358" stroke="#7E378F" stroke-miterlimit="10"/>
<path d="M177.399 148.047L272.64 196.57" stroke="#7E378F" stroke-miterlimit="10"/>
<path d="M178.064 146.431L279.724 179.462" stroke="#7E378F" stroke-miterlimit="10"/>
<path d="M178.475 144.74L284.047 161.458" stroke="#7E378F" stroke-miterlimit="10"/>
<path d="M178.609 143H285.5" stroke="#7E378F" stroke-miterlimit="10"/>
<path d="M178.475 141.265L284.047 124.542" stroke="#7E378F" stroke-miterlimit="10"/>
<path d="M178.064 139.569L279.724 106.538" stroke="#7E378F" stroke-miterlimit="10"/>
<path d="M177.399 137.959L272.64 89.4304" stroke="#7E378F" stroke-miterlimit="10"/>
<path d="M176.485 136.473L262.967 73.6416" stroke="#7E378F" stroke-miterlimit="10"/>
<path d="M175.356 135.143L250.94 59.5603" stroke="#7E378F" stroke-miterlimit="10"/>
<path d="M174.032 134.014L236.858 47.5377" stroke="#7E378F" stroke-miterlimit="10"/>
<path d="M172.547 133.101L221.069 37.8602" stroke="#7E378F" stroke-miterlimit="10"/>
<path d="M170.931 132.436L203.962 30.7762" stroke="#7E378F" stroke-miterlimit="10"/>
<path d="M169.24 132.026L185.958 26.4535" stroke="#7E378F" stroke-miterlimit="10"/>
</g>
</g>
<g opacity="0.25">
<g clip-path="url(#clip2_201_8550)">
<g clip-path="url(#clip3_201_8550)">
<path d="M350.5 134.621V54" stroke="#7E378F" stroke-miterlimit="10"/>
<path d="M351.808 134.723L364.422 55.0963" stroke="#7E378F" stroke-miterlimit="10"/>
<path d="M353.088 135.032L378.001 58.3567" stroke="#7E378F" stroke-miterlimit="10"/>
<path d="M354.303 135.534L390.904 63.6996" stroke="#7E378F" stroke-miterlimit="10"/>
<path d="M355.423 136.223L402.813 70.9988" stroke="#7E378F" stroke-miterlimit="10"/>
<path d="M356.426 137.074L413.434 80.0667" stroke="#7E378F" stroke-miterlimit="10"/>
<path d="M357.277 138.077L422.501 90.6873" stroke="#7E378F" stroke-miterlimit="10"/>
<path d="M357.966 139.198L429.801 102.596" stroke="#7E378F" stroke-miterlimit="10"/>
<path d="M358.468 140.412L435.144 115.499" stroke="#7E378F" stroke-miterlimit="10"/>
<path d="M358.777 141.692L438.403 129.078" stroke="#7E378F" stroke-miterlimit="10"/>
<path d="M358.879 143H439.5" stroke="#7E378F" stroke-miterlimit="10"/>
<path d="M358.777 144.312L438.403 156.922" stroke="#7E378F" stroke-miterlimit="10"/>
<path d="M358.468 145.588L435.144 170.501" stroke="#7E378F" stroke-miterlimit="10"/>
<path d="M357.966 146.806L429.801 183.404" stroke="#7E378F" stroke-miterlimit="10"/>
<path d="M357.277 147.927L422.501 195.313" stroke="#7E378F" stroke-miterlimit="10"/>
<path d="M356.426 148.926L413.434 205.933" stroke="#7E378F" stroke-miterlimit="10"/>
<path d="M355.423 149.777L402.813 215.005" stroke="#7E378F" stroke-miterlimit="10"/>
<path d="M354.303 150.466L390.904 222.3" stroke="#7E378F" stroke-miterlimit="10"/>
<path d="M353.088 150.968L378.001 227.643" stroke="#7E378F" stroke-miterlimit="10"/>
<path d="M351.808 151.277L364.422 230.904" stroke="#7E378F" stroke-miterlimit="10"/>
<path d="M350.5 151.379V232" stroke="#7E378F" stroke-miterlimit="10"/>
</g>
</g>
</g>
<g opacity="0.1">
<g clip-path="url(#clip4_201_8550)">
<g clip-path="url(#clip5_201_8550)">
<path d="M507.711 147.417L538.591 189.925" stroke="#7E378F" stroke-miterlimit="10"/>
<path d="M508.361 146.862L545.512 184.013" stroke="#7E378F" stroke-miterlimit="10"/>
<path d="M508.917 146.211L551.425 177.091" stroke="#7E378F" stroke-miterlimit="10"/>
<path d="M509.365 145.481L556.178 169.331" stroke="#7E378F" stroke-miterlimit="10"/>
<path d="M509.692 144.687L559.661 160.922" stroke="#7E378F" stroke-miterlimit="10"/>
<path d="M509.894 143.855L561.785 152.073" stroke="#7E378F" stroke-miterlimit="10"/>
<path d="M509.961 143H562.5" stroke="#7E378F" stroke-miterlimit="10"/>
<path d="M509.894 142.147L561.785 133.927" stroke="#7E378F" stroke-miterlimit="10"/>
<path d="M509.692 141.314L559.661 125.078" stroke="#7E378F" stroke-miterlimit="10"/>
<path d="M509.365 140.522L556.178 116.669" stroke="#7E378F" stroke-miterlimit="10"/>
<path d="M508.917 139.792L551.425 108.909" stroke="#7E378F" stroke-miterlimit="10"/>
<path d="M508.361 139.138L545.512 101.987" stroke="#7E378F" stroke-miterlimit="10"/>
<path d="M507.711 138.583L538.591 96.0779" stroke="#7E378F" stroke-miterlimit="10"/>
</g>
</g>
</g>
<defs>
<clipPath id="clip0_201_8550">
<rect width="236" height="236" fill="white" transform="translate(49.5 261) rotate(-90)"/>
</clipPath>
<clipPath id="clip1_201_8550">
<rect width="236" height="236" fill="white" transform="translate(49.5 25)"/>
</clipPath>
<clipPath id="clip2_201_8550">
<rect width="178" height="178" fill="white" transform="matrix(4.37114e-08 -1 -1 -4.37114e-08 439.5 232)"/>
</clipPath>
<clipPath id="clip3_201_8550">
<rect width="178" height="178" fill="white" transform="matrix(-1 0 0 1 439.5 54)"/>
</clipPath>
<clipPath id="clip4_201_8550">
<rect width="116" height="116" fill="white" transform="translate(503.5 201) rotate(-90)"/>
</clipPath>
<clipPath id="clip5_201_8550">
<rect width="116" height="116" fill="white" transform="translate(446.5 85)"/>
</clipPath>
</defs>
</svg>
