<svg viewBox="0 0 284 40"  xmlns="http://www.w3.org/2000/svg">
<path d="M18.6361 1.63401C16.5458 1.20991 14.9529 0.888672 12.7604 0.888672C6.46068 0.888672 3.94634 3.88519 3.94634 9.21997V13.1082H0V19.408H3.94634V38.5849H11.6345V19.408H17.247L17.7733 13.1082H11.6345V10.0682C11.6345 8.35787 11.7955 7.2913 14.2511 7.2913C15.1574 7.2913 16.6045 7.45222 17.6711 7.67122L18.6361 1.63401ZM41.8035 38.5849V21.9804C41.8035 14.7744 39.83 12.041 30.8121 12.041C27.8156 12.041 23.9128 12.5819 21.4578 13.3272L22.4808 19.1006C24.9365 18.6185 27.2312 18.3408 29.5259 18.3408C33.6332 18.3408 34.1153 19.2616 34.1153 21.9217V23.8952H28.5029C23.1681 23.8952 20.7705 25.9854 20.7705 31.218C20.7705 35.6465 22.744 39.1107 27.5524 39.1107C29.3063 39.1107 31.9816 38.5843 34.9629 36.9182L35.5038 38.5843H41.8035V38.5849ZM34.1153 32.2265C32.9459 32.7673 31.8206 33.1328 30.2125 33.1328C28.7219 33.1328 28.1368 32.5484 28.1368 31.1012C28.1368 29.6686 28.7799 29.2451 30.4315 29.2451H34.1147L34.1153 32.2265ZM54.3008 22.5067C54.3008 19.8466 55.4115 18.6185 58.5103 18.6185C60.0155 18.6185 62.2522 18.8816 63.8602 19.2616L64.8101 12.8451C62.1935 12.2607 60.3229 12.041 58.5103 12.041C50.0768 12.041 46.6126 15.1985 46.6126 22.6235V28.5433C46.6126 35.9683 50.0768 39.1113 58.5103 39.1113C60.3229 39.1113 62.1935 38.9068 64.8101 38.3072L63.8602 31.9053C61.9896 32.3294 60.4838 32.5484 58.5103 32.5484C55.4115 32.5484 54.3008 31.3208 54.3008 28.6456V22.5067ZM89.9649 28.2801V22.828C89.9649 17.1713 88.0943 12.041 79.4411 12.041C70.7879 12.041 68.2887 16.8501 68.2887 22.4626V28.5433C68.2887 34.9453 71.4897 39.1113 79.9233 39.1113C83.5484 39.1113 87.3483 38.3072 89.6872 37.4597L88.5764 31.7008C86.2817 32.3881 83.0662 32.8115 80.6686 32.8115C77.1458 32.8115 75.9769 32.0075 75.9769 29.0261V28.2808H89.9649V28.2801ZM82.7008 22.5067H75.9769V21.396C75.9769 19.5689 76.8245 18.0782 79.4998 18.0782C82.1599 18.0782 82.7008 19.5689 82.7008 21.396V22.5067ZM118.628 28.1634V21.4395C118.628 15.622 116.392 12.041 110.618 12.041C107.797 12.041 105.341 12.6841 103.251 13.4882V0.888672L95.5628 1.95588V38.2637C99.1438 38.8481 103.353 39.1113 106.131 39.1113C116.874 39.1113 118.628 34.3609 118.628 28.1634ZM103.252 20.1679C104.699 19.408 106.511 18.7207 108.163 18.7207C110.195 18.7207 110.94 19.7879 110.94 21.4976V28.2215C110.94 30.6771 110.253 32.4455 106.408 32.4455C105.341 32.4455 104.377 32.4455 103.251 32.3287L103.252 20.1679ZM134.648 39.1113C143.885 39.1113 146.385 33.9368 146.385 28.602V22.5654C146.385 17.2307 143.886 12.0417 134.648 12.0417C125.409 12.0417 122.896 17.2307 122.896 22.5654V28.602C122.896 33.9368 125.41 39.1113 134.648 39.1113ZM134.648 32.6506C131.871 32.6506 130.584 31.2622 130.584 28.8065V22.3458C130.584 19.8902 131.871 18.5017 134.648 18.5017C137.424 18.5017 138.696 19.8902 138.696 22.3458V28.8065C138.697 31.2622 137.425 32.6506 134.648 32.6506ZM162.404 39.1113C171.642 39.1113 174.156 33.9368 174.156 28.602V22.5654C174.156 17.2307 171.642 12.0417 162.404 12.0417C153.167 12.0417 150.667 17.2307 150.667 22.5654V28.602C150.668 33.9368 153.167 39.1113 162.404 39.1113ZM162.404 32.6506C159.628 32.6506 158.356 31.2622 158.356 28.8065V22.3458C158.356 19.8902 159.628 18.5017 162.404 18.5017C165.181 18.5017 166.468 19.8902 166.468 22.3458V28.8065C166.468 31.2622 165.182 32.6506 162.404 32.6506ZM187.443 38.5849V0.888672L179.755 1.95588V38.5849H187.443ZM188.466 25.5033L195.395 38.5849H203.624L196.476 25.5033L203.302 12.5825H195.088L188.466 25.5033Z" />
<path opacity="0.5" d="M237.007 38.6285H239.784L228.646 6.63309H224.466L213.314 38.6285H216.106L219.088 30.224H233.982L237.007 38.6285ZM226.528 8.27019L233.12 27.769H219.95L226.528 8.27019ZM244.696 32.6216C244.696 36.8601 246.757 39.1113 251.318 39.1113C253.919 39.1113 256.843 38.205 259.211 36.4221L259.342 38.6292H261.9V5.28882L259.108 5.66875V15.5204C256.418 14.994 254.357 14.7605 251.902 14.7605C246.61 14.7605 244.696 17.6838 244.696 21.9666V32.6216H244.696ZM259.108 33.6301C256.901 35.4136 254.401 36.6121 251.522 36.6121C248.35 36.6121 247.473 35.3259 247.473 32.6216V21.9659C247.473 18.794 248.73 17.2591 251.799 17.2591C254.065 17.2591 256.564 17.5368 259.108 18.0631V33.6301ZM284 32.7238C284 28.3534 283.62 27.2427 276.735 25.5178C272.423 24.4071 272.219 24.0707 272.219 20.8552C272.219 18.3118 272.803 17.2597 276.882 17.2597C278.811 17.2597 281.544 17.5374 283.416 17.9319L283.708 15.5639C281.881 15.0376 279.235 14.7599 277.072 14.7599C271.313 14.7599 269.441 16.8646 269.441 20.7529C269.441 25.0356 269.924 26.4828 275.785 27.8712C281.12 29.1139 281.207 29.4642 281.207 32.8261C281.207 35.7936 280.345 36.6115 276.018 36.6115C274.293 36.6115 271.838 36.2751 269.821 35.6617L269.339 37.9128C271.078 38.6291 273.855 39.1113 276.208 39.1113C282.465 39.1113 284 36.9479 284 32.7238Z" />
</svg>
