<svg width="612" height="270" viewBox="0 0 612 270" fill="none" xmlns="http://www.w3.org/2000/svg">
<g opacity="0.1">
<g clip-path="url(#clip0_201_8779)">
<g clip-path="url(#clip1_201_8779)">
<g clip-path="url(#clip2_201_8779)">
<path d="M74.5385 183.741C74.4416 179.068 76.5878 174.398 80.1964 171.425C81.8195 170.09 83.7105 169.085 85.2137 167.615C88.1842 164.711 89.2535 160.418 89.9962 156.332C90.7414 152.247 91.3564 147.962 93.7298 144.555C95.1972 142.447 97.2465 140.819 99.3366 139.328C101.409 137.848 103.555 136.472 105.763 135.202" stroke="#111111" stroke-miterlimit="10"/>
<path d="M67.3011 178.219C67.9365 173.587 70.7871 169.309 74.8168 166.941C76.6287 165.877 78.6525 165.18 80.3675 163.963C83.7566 161.562 85.4817 157.486 86.8573 153.569C88.2328 149.649 89.5114 145.514 92.3875 142.518C94.1663 140.665 96.4452 139.379 98.7446 138.233C101.024 137.098 103.359 136.072 105.737 135.163" stroke="#111111" stroke-miterlimit="10"/>
<path d="M61.0174 171.634C62.37 167.161 65.8535 163.381 70.2047 161.671C72.1595 160.903 74.2701 160.531 76.1535 159.599C79.8769 157.757 82.2171 154.002 84.1898 150.348C86.16 146.691 88.0689 142.807 91.3814 140.301C93.4282 138.749 95.8807 137.835 98.3306 137.062C100.76 136.296 103.225 135.648 105.719 135.123" stroke="#111111" stroke-miterlimit="10"/>
<path d="M55.8396 164.147C57.8761 159.938 61.9083 156.751 66.4739 155.743C68.5257 155.289 70.6669 155.253 72.6728 154.628C76.6387 153.39 79.5378 150.049 82.0566 146.747C84.5755 143.445 87.0688 139.908 90.731 137.948C92.9946 136.735 95.5594 136.217 98.1012 135.837C100.62 135.459 103.157 135.207 105.701 135.077" stroke="#111111" stroke-miterlimit="10"/>
<path d="M51.8993 155.939C54.5687 152.101 59.0501 149.585 63.7152 149.302C65.813 149.174 67.9337 149.473 70.0136 149.169C74.1224 148.567 77.5115 145.721 80.5152 142.853C83.519 139.984 86.5354 136.881 90.4579 135.518C92.8849 134.676 95.4982 134.564 98.0681 134.587C100.615 134.61 103.159 134.755 105.694 135.026" stroke="#111111" stroke-miterlimit="10"/>
<path d="M49.289 147.219C52.525 143.845 57.3457 142.062 61.9981 142.513C64.0908 142.717 66.1375 143.343 68.2378 143.368C72.39 143.417 76.1823 141.135 79.5994 138.772C83.0166 136.409 86.4797 133.816 90.5681 133.084C93.0971 132.632 95.6951 132.93 98.2293 133.354C100.74 133.775 103.231 134.316 105.691 134.98" stroke="#111111" stroke-miterlimit="10"/>
<path d="M48.0759 138.198C51.7994 135.373 56.8396 134.365 61.3644 135.539C63.3983 136.067 65.3226 137.006 67.3948 137.358C71.4883 138.055 75.5919 136.396 79.3332 134.597C83.077 132.798 86.9051 130.776 91.0572 130.695C93.6246 130.644 96.146 131.346 98.5832 132.16C100.997 132.969 103.373 133.892 105.698 134.934" stroke="#111111" stroke-miterlimit="10"/>
<path d="M48.2885 129.097C52.41 126.89 57.5447 126.68 61.8296 128.548C63.7563 129.388 65.5096 130.616 67.5002 131.289C71.4354 132.619 75.7458 131.621 79.7244 130.429C83.703 129.238 87.799 127.842 91.9155 128.408C94.4598 128.758 96.8409 129.845 99.1173 131.032C101.376 132.208 103.578 133.494 105.712 134.885" stroke="#111111" stroke-miterlimit="10"/>
<path d="M49.9238 120.142C54.3388 118.606 59.4429 119.203 63.3858 121.719C65.1569 122.85 66.6983 124.338 68.5587 125.312C72.2388 127.242 76.6512 126.93 80.7676 126.377C84.8841 125.823 89.1485 125.083 93.1246 126.287C95.5822 127.032 97.7642 128.477 99.8288 130.006C101.875 131.522 103.848 133.134 105.739 134.842" stroke="#111111" stroke-miterlimit="10"/>
<path d="M52.9386 111.552C57.5399 110.725 62.4883 112.113 65.9871 115.214C67.5592 116.608 68.848 118.317 70.5348 119.573C73.8678 122.054 78.2751 122.436 82.4273 122.533C86.5795 122.63 90.9077 122.567 94.6439 124.379C96.956 125.499 98.8828 127.267 100.685 129.1C102.468 130.917 104.166 132.821 105.766 134.801" stroke="#111111" stroke-miterlimit="10"/>
<path d="M57.2582 103.541C61.931 103.444 66.6012 105.591 69.5743 109.199C70.909 110.822 71.9145 112.713 73.3845 114.216C76.2887 117.187 80.5812 118.256 84.667 118.999C88.7528 119.744 93.0377 120.359 96.4447 122.733C98.5526 124.2 100.181 126.249 101.671 128.339C103.151 130.412 104.527 132.558 105.798 134.765" stroke="#111111" stroke-miterlimit="10"/>
<path d="M62.7816 96.3035C67.4135 96.9389 71.6907 99.7895 74.059 103.819C75.1232 105.631 75.8199 107.655 77.0372 109.37C79.4387 112.759 83.5143 114.484 87.4317 115.86C91.3516 117.235 95.4859 118.514 98.482 121.39C100.335 123.169 101.621 125.448 102.767 127.747C103.902 130.026 104.928 132.361 105.837 134.74" stroke="#111111" stroke-miterlimit="10"/>
<path d="M69.366 90.0178C73.8397 91.3704 77.6193 94.8539 79.3292 99.2051C80.0973 101.16 80.4699 103.271 81.4014 105.154C83.244 108.877 86.998 111.218 90.6525 113.19C94.3096 115.16 98.1938 117.069 100.7 120.382C102.251 122.429 103.165 124.881 103.938 127.331C104.704 129.761 105.352 132.226 105.878 134.719" stroke="#111111" stroke-miterlimit="10"/>
</g>
</g>
</g>
</g>
<g opacity="0.25">
<g clip-path="url(#clip3_201_8779)">
<g clip-path="url(#clip4_201_8779)">
<path d="M263.907 46.1175C259.572 51.831 258.025 59.5652 259.826 66.5083C260.637 69.6294 262.078 72.5821 262.619 75.762C263.688 82.0433 261.142 88.3403 258.381 94.0812C255.621 99.8261 252.519 105.7 252.394 112.072C252.315 116.011 253.392 119.88 254.642 123.62C255.883 127.325 257.301 130.97 258.898 134.538" stroke="#111111" stroke-miterlimit="10"/>
<path d="M249.943 46.4465C246.555 52.7709 246.234 60.65 249.101 67.2251C250.389 70.1817 252.273 72.872 253.307 75.9265C255.347 81.9651 253.816 88.5793 251.987 94.6844C250.158 100.79 248.016 107.075 248.885 113.391C249.422 117.296 251.09 120.949 252.911 124.442C254.716 127.908 256.69 131.288 258.824 134.561" stroke="#111111" stroke-miterlimit="10"/>
<path d="M236.201 48.9527C233.843 55.7275 234.76 63.5596 238.621 69.6098C240.356 72.3276 242.639 74.6929 244.135 77.5477C247.095 83.1946 246.618 89.9655 245.768 96.282C244.918 102.599 243.782 109.142 245.631 115.244C246.774 119.015 248.991 122.363 251.336 125.531C253.663 128.672 256.137 131.699 258.757 134.601" stroke="#111111" stroke-miterlimit="10"/>
<path d="M223.02 53.5775C221.751 60.6382 223.881 68.2314 228.639 73.6003C230.777 76.0126 233.401 77.9902 235.328 80.5787C239.134 85.693 239.721 92.4561 239.87 98.8275C240.019 105.199 239.921 111.84 242.702 117.574C244.421 121.122 247.135 124.078 249.946 126.843C252.734 129.58 255.656 132.184 258.695 134.64" stroke="#111111" stroke-miterlimit="10"/>
<path d="M210.727 60.2114C210.579 67.3817 213.872 74.5481 219.409 79.1103C221.9 81.1584 224.802 82.7013 227.108 84.9569C231.667 89.4134 233.307 96.0002 234.447 102.27C235.59 108.539 236.534 115.114 240.176 120.342C242.428 123.577 245.572 126.075 248.78 128.362C251.96 130.634 255.253 132.744 258.64 134.695" stroke="#111111" stroke-miterlimit="10"/>
<path d="M199.621 68.6817C200.596 75.7894 204.971 82.3527 211.154 85.9868C213.934 87.6198 217.04 88.6888 219.671 90.5568C224.872 94.2418 227.519 100.496 229.63 106.507C231.741 112.522 233.703 118.866 238.116 123.463C240.845 126.306 244.342 128.28 247.871 130.038C251.368 131.781 254.951 133.355 258.601 134.749" stroke="#111111" stroke-miterlimit="10"/>
<path d="M189.976 78.7891C192.051 85.6539 197.397 91.4536 204.074 94.0773C207.073 95.256 210.312 95.8278 213.202 97.2571C218.915 100.085 222.506 105.845 225.534 111.453C228.561 117.061 231.486 123.025 236.569 126.87C239.71 129.251 243.473 130.653 247.232 131.84C250.96 133.015 254.743 134.009 258.569 134.816" stroke="#111111" stroke-miterlimit="10"/>
<path d="M182.034 90.2787C185.159 96.7363 191.347 101.627 198.352 103.174C201.501 103.871 204.786 103.926 207.864 104.886C213.95 106.785 218.399 111.911 222.264 116.978C226.129 122.046 229.955 127.473 235.574 130.481C239.048 132.341 242.984 133.136 246.884 133.719C250.749 134.299 254.642 134.687 258.546 134.886" stroke="#111111" stroke-miterlimit="10"/>
<path d="M175.983 102.869C180.08 108.759 186.956 112.62 194.115 113.055C197.334 113.25 200.588 112.792 203.779 113.258C210.084 114.182 215.285 118.549 219.894 122.95C224.503 127.352 229.132 132.114 235.151 134.205C238.875 135.497 242.885 135.67 246.829 135.634C250.737 135.599 254.641 135.376 258.53 134.961" stroke="#111111" stroke-miterlimit="10"/>
<path d="M171.981 116.25C176.947 121.427 184.344 124.164 191.483 123.471C194.695 123.158 197.835 122.198 201.058 122.159C207.43 122.085 213.249 125.586 218.492 129.212C223.736 132.838 229.05 136.817 235.324 137.941C239.204 138.634 243.191 138.176 247.079 137.526C250.933 136.88 254.755 136.05 258.53 135.031" stroke="#111111" stroke-miterlimit="10"/>
<path d="M170.117 130.093C175.831 134.428 183.565 135.975 190.508 134.174C193.629 133.363 196.582 131.922 199.762 131.382C206.043 130.313 212.34 132.858 218.081 135.619C223.822 138.38 229.7 141.481 236.071 141.606C240.011 141.685 243.88 140.608 247.62 139.359C251.324 138.117 254.97 136.7 258.538 135.102" stroke="#111111" stroke-miterlimit="10"/>
<path d="M170.446 144.058C176.771 147.445 184.65 147.766 191.225 144.9C194.181 143.611 196.872 141.728 199.926 140.694C205.965 138.654 212.579 140.185 218.684 142.014C224.789 143.842 231.075 145.985 237.391 145.115C241.295 144.579 244.949 142.91 248.442 141.09C251.908 139.284 255.287 137.311 258.561 135.176" stroke="#111111" stroke-miterlimit="10"/>
<path d="M172.953 157.799C179.728 160.157 187.56 159.24 193.61 155.379C196.328 153.644 198.693 151.361 201.548 149.865C207.195 146.905 213.966 147.382 220.282 148.232C226.599 149.082 233.143 150.218 239.244 148.369C243.015 147.226 246.363 145.009 249.531 142.664C252.672 140.337 255.699 137.863 258.601 135.243" stroke="#111111" stroke-miterlimit="10"/>
<path d="M177.578 170.981C184.639 172.249 192.232 170.119 197.601 165.361C200.013 163.223 201.991 160.599 204.579 158.672C209.694 154.866 216.457 154.279 222.828 154.13C229.199 153.981 235.841 154.079 241.574 151.299C245.122 149.579 248.079 146.866 250.843 144.054C253.581 141.266 256.185 138.344 258.64 135.305" stroke="#111111" stroke-miterlimit="10"/>
<path d="M184.212 183.277C191.382 183.426 198.549 180.133 203.111 174.595C205.159 172.105 206.702 169.203 208.957 166.896C213.414 162.338 220.001 160.697 226.27 159.558C232.54 158.414 239.115 157.47 244.343 153.828C247.577 151.577 250.076 148.432 252.363 145.225C254.634 142.045 256.745 138.752 258.695 135.364" stroke="#111111" stroke-miterlimit="10"/>
<path d="M192.682 194.383C199.789 193.408 206.353 189.034 209.987 182.85C211.62 180.07 212.689 176.964 214.557 174.333C218.242 169.132 224.496 166.485 230.507 164.374C236.522 162.264 242.866 160.302 247.463 155.888C250.306 153.159 252.28 149.662 254.038 146.133C255.781 142.636 257.355 139.053 258.749 135.403" stroke="#111111" stroke-miterlimit="10"/>
<path d="M202.789 204.024C209.654 201.949 215.454 196.603 218.077 189.926C219.256 186.927 219.828 183.688 221.257 180.798C224.085 175.085 229.845 171.494 235.453 168.467C241.065 165.443 247.025 162.514 250.87 157.431C253.251 154.29 254.653 150.527 255.84 146.768C257.015 143.04 258.009 139.257 258.816 135.431" stroke="#111111" stroke-miterlimit="10"/>
<path d="M214.279 211.97C220.737 208.845 225.628 202.658 227.175 195.652C227.872 192.503 227.927 189.218 228.886 186.14C230.785 180.054 235.912 175.606 240.979 171.74C246.046 167.875 251.474 164.049 254.481 158.43C256.342 154.956 257.137 151.021 257.72 147.12C258.3 143.255 258.687 139.363 258.887 135.458" stroke="#111111" stroke-miterlimit="10"/>
<path d="M226.869 218.016C232.759 213.92 236.62 207.044 237.055 199.885C237.251 196.666 236.792 193.412 237.258 190.22C238.183 183.915 242.549 178.715 246.951 174.106C251.352 169.496 256.114 164.868 258.205 158.849C259.498 155.125 259.67 151.115 259.635 147.171C259.599 143.263 259.376 139.359 258.961 135.47" stroke="#111111" stroke-miterlimit="10"/>
<path d="M240.25 222.022C245.427 217.057 248.164 209.659 247.471 202.52C247.158 199.309 246.199 196.169 246.159 192.946C246.085 186.574 249.586 180.755 253.212 175.512C256.839 170.268 260.817 164.954 261.941 158.68C262.634 154.8 262.176 150.813 261.526 146.924C260.88 143.071 260.05 139.249 259.032 135.474" stroke="#111111" stroke-miterlimit="10"/>
</g>
</g>
</g>
<g clip-path="url(#clip5_201_8779)">
<path d="M403.399 24.9336C411.208 30.3645 416.328 39.4818 416.904 48.9728C417.163 53.2407 416.556 57.5553 417.174 61.7868C418.399 70.1461 424.188 77.0411 430.024 83.1522C435.86 89.2632 442.174 95.4003 444.946 103.38C446.66 108.318 446.888 113.635 446.841 118.863C446.795 124.045 446.499 129.221 445.948 134.377" stroke="#111111" stroke-miterlimit="10"/>
<path d="M421.14 19.6272C428.004 26.2107 431.633 36.0185 430.714 45.4837C430.299 49.7412 429.027 53.9052 428.975 58.1783C428.876 66.6257 433.518 74.3411 438.326 81.2933C443.134 88.2455 448.409 95.2911 449.899 103.609C450.818 108.754 450.21 114.04 449.349 119.195C448.492 124.304 447.391 129.372 446.041 134.377" stroke="#111111" stroke-miterlimit="10"/>
<path d="M439.495 17.1558C445.242 24.731 447.293 34.9853 444.905 44.1908C443.83 48.3289 441.919 52.2437 441.203 56.4597C439.785 64.7877 443.16 73.1366 446.821 80.7481C450.481 88.3649 454.593 96.153 454.759 104.6C454.863 109.824 453.435 114.953 451.779 119.912C450.133 124.824 448.254 129.657 446.135 134.387" stroke="#111111" stroke-miterlimit="10"/>
<path d="M458.009 17.5918C462.5 25.977 462.926 36.4234 459.125 45.1409C457.417 49.0609 454.919 52.6278 453.549 56.6776C450.844 64.6838 452.874 73.4532 455.298 81.5476C457.723 89.642 460.563 97.9753 459.411 106.35C458.699 111.527 456.487 116.371 454.073 121.002C451.68 125.597 449.063 130.078 446.233 134.418" stroke="#111111" stroke-miterlimit="10"/>
<path d="M476.229 20.9148C479.354 29.8971 478.139 40.2812 473.02 48.3029C470.72 51.9062 467.693 55.0422 465.709 58.8272C461.784 66.3142 462.418 75.2913 463.544 83.6661C464.671 92.0409 466.177 100.717 463.726 108.806C462.21 113.806 459.271 118.245 456.161 122.446C453.077 126.61 449.796 130.623 446.322 134.47" stroke="#111111" stroke-miterlimit="10"/>
<path d="M493.705 27.0466C495.387 36.4079 492.563 46.4753 486.254 53.5936C483.419 56.792 479.941 59.4139 477.386 62.8459C472.339 69.6267 471.561 78.5934 471.363 87.0409C471.166 95.4884 471.296 104.294 467.609 111.895C465.33 116.599 461.732 120.519 458.004 124.185C454.307 127.814 450.434 131.267 446.405 134.522" stroke="#111111" stroke-miterlimit="10"/>
<path d="M510.002 35.842C510.2 45.3487 505.833 54.8501 498.491 60.8989C495.189 63.6143 491.342 65.66 488.284 68.6506C482.24 74.5592 480.065 83.2923 478.554 91.6048C477.038 99.9172 475.787 108.635 470.958 115.566C467.973 119.855 463.803 123.167 459.551 126.199C455.335 129.211 450.969 132.009 446.477 134.595" stroke="#111111" stroke-miterlimit="10"/>
<path d="M524.727 47.0725C523.434 56.4961 517.634 65.198 509.436 70.0162C505.75 72.1813 501.632 73.5988 498.143 76.0754C491.248 80.9611 487.738 89.2528 484.94 97.2226C482.141 105.198 479.54 113.609 473.689 119.704C470.07 123.474 465.433 126.091 460.755 128.422C456.119 130.732 451.368 132.819 446.529 134.668" stroke="#111111" stroke-miterlimit="10"/>
<path d="M537.516 60.4731C534.764 69.5748 527.677 77.2643 518.824 80.743C514.847 82.3058 510.553 83.0638 506.722 84.9589C499.146 88.7076 494.385 96.3451 490.372 103.78C486.358 111.215 482.48 119.123 475.74 124.221C471.576 127.378 466.587 129.237 461.602 130.81C456.66 132.368 451.644 133.686 446.571 134.756" stroke="#111111" stroke-miterlimit="10"/>
<path d="M548.045 75.7065C543.902 84.2683 535.698 90.7531 526.41 92.804C522.235 93.7282 517.879 93.8009 513.798 95.0729C505.73 97.5911 499.831 104.387 494.707 111.106C489.582 117.825 484.51 125.021 477.059 129.008C472.454 131.474 467.236 132.528 462.064 133.302C456.94 134.071 451.779 134.585 446.602 134.849" stroke="#111111" stroke-miterlimit="10"/>
<path d="M556.066 92.3991C550.636 100.208 541.518 105.327 532.027 105.904C527.759 106.163 523.445 105.556 519.213 106.174C510.854 107.399 503.959 113.188 497.848 119.024C491.737 124.86 485.6 131.173 477.62 133.946C472.682 135.659 467.365 135.888 462.137 135.841C456.955 135.794 451.779 135.498 446.623 134.948" stroke="#111111" stroke-miterlimit="10"/>
<path d="M561.373 110.14C554.79 117.004 544.982 120.634 535.517 119.715C531.259 119.299 527.095 118.027 522.822 117.975C514.375 117.877 506.659 122.518 499.707 127.326C492.755 132.134 485.709 137.409 477.391 138.899C472.246 139.818 466.961 139.211 461.805 138.349C456.696 137.492 451.628 136.391 446.623 135.042" stroke="#111111" stroke-miterlimit="10"/>
<path d="M563.844 128.494C556.269 134.242 546.014 136.293 536.809 133.905C532.671 132.83 528.756 130.919 524.54 130.203C516.212 128.785 507.863 132.16 500.251 135.82C492.64 139.481 484.847 143.593 476.399 143.759C471.176 143.863 466.046 142.435 461.088 140.779C456.176 139.133 451.342 137.253 446.612 135.135" stroke="#111111" stroke-miterlimit="10"/>
<path d="M563.408 147.009C555.023 151.5 544.577 151.926 535.859 148.126C531.939 146.417 528.372 143.92 524.322 142.549C516.316 139.844 507.547 141.874 499.452 144.299C491.358 146.724 483.025 149.564 474.65 148.411C469.473 147.7 464.629 145.488 459.998 143.074C455.403 140.68 450.922 138.063 446.582 135.234" stroke="#111111" stroke-miterlimit="10"/>
<path d="M560.085 165.228C551.103 168.354 540.719 167.139 532.697 162.019C529.094 159.719 525.958 156.692 522.173 154.709C514.686 150.784 505.709 151.417 497.334 152.544C488.959 153.671 480.283 155.176 472.194 152.726C467.194 151.21 462.755 148.271 458.554 145.161C454.39 142.077 450.377 138.795 446.529 135.322" stroke="#111111" stroke-miterlimit="10"/>
<path d="M553.953 182.705C544.592 184.387 534.524 181.562 527.406 175.254C524.208 172.419 521.586 168.941 518.154 166.386C511.373 161.339 502.406 160.561 493.959 160.363C485.511 160.166 476.706 160.296 469.104 156.609C464.4 154.33 460.48 150.732 456.815 147.004C453.186 143.307 449.733 139.434 446.477 135.405" stroke="#111111" stroke-miterlimit="10"/>
<path d="M545.158 199.008C535.652 199.205 526.15 194.839 520.101 187.497C517.386 184.195 515.34 180.348 512.35 177.289C506.441 171.246 497.708 169.07 489.395 167.559C481.083 166.043 472.365 164.792 465.434 159.963C461.145 156.978 457.833 152.809 454.801 148.557C451.789 144.341 448.991 139.974 446.405 135.483" stroke="#111111" stroke-miterlimit="10"/>
<path d="M533.928 213.732C524.504 212.439 515.802 206.64 510.984 198.442C508.819 194.755 507.401 190.638 504.925 187.149C500.039 180.254 491.747 176.744 483.778 173.946C475.803 171.147 467.391 168.546 461.296 162.694C457.527 159.075 454.91 154.439 452.578 149.761C450.268 145.124 448.181 140.374 446.332 135.535" stroke="#111111" stroke-miterlimit="10"/>
<path d="M520.526 226.515C511.425 223.763 503.735 216.676 500.257 207.824C498.694 203.847 497.936 199.553 496.041 195.721C492.292 188.146 484.654 183.385 477.219 179.371C469.779 175.363 461.877 171.479 456.778 164.74C453.621 160.576 451.763 155.586 450.189 150.602C448.632 145.659 447.313 140.644 446.244 135.571" stroke="#111111" stroke-miterlimit="10"/>
<path d="M505.293 237.05C496.731 232.907 490.246 224.703 488.196 215.415C487.271 211.24 487.199 206.884 485.927 202.803C483.408 194.735 476.612 188.836 469.893 183.712C463.175 178.587 455.979 173.515 451.991 166.064C449.525 161.459 448.471 156.241 447.697 151.069C446.929 145.945 446.415 140.784 446.15 135.607" stroke="#111111" stroke-miterlimit="10"/>
<path d="M488.601 245.067C480.792 239.636 475.672 230.518 475.096 221.027C474.836 216.759 475.444 212.445 474.826 208.213C473.601 199.854 467.812 192.959 461.976 186.848C456.14 180.737 449.826 174.6 447.054 166.62C445.34 161.682 445.112 156.365 445.159 151.137C445.205 145.955 445.501 140.779 446.052 135.623" stroke="#111111" stroke-miterlimit="10"/>
<path d="M470.859 250.378C463.995 243.794 460.366 233.987 461.285 224.522C461.701 220.264 462.973 216.1 463.025 211.827C463.123 203.379 458.481 195.664 453.674 188.712C448.866 181.76 443.591 174.714 442.1 166.396C441.182 161.251 441.789 155.966 442.651 150.81C443.508 145.701 444.608 140.633 445.958 135.628" stroke="#111111" stroke-miterlimit="10"/>
<path d="M452.505 252.844C446.757 245.269 444.706 235.015 447.095 225.809C448.17 221.671 450.08 217.756 450.797 213.54C452.214 205.212 448.839 196.864 445.179 189.252C441.518 181.635 437.406 173.847 437.24 165.4C437.136 160.176 438.564 155.047 440.22 150.088C441.866 145.177 443.746 140.343 445.864 135.613" stroke="#111111" stroke-miterlimit="10"/>
<path d="M433.99 252.413C429.499 244.028 429.073 233.582 432.874 224.864C434.582 220.944 437.079 217.377 438.45 213.327C441.155 205.321 439.125 196.552 436.7 188.457C434.276 180.363 431.436 172.03 432.588 163.655C433.299 158.478 435.511 153.634 437.926 149.003C440.319 144.408 442.936 139.927 445.766 135.587" stroke="#111111" stroke-miterlimit="10"/>
<path d="M415.772 249.085C412.646 240.103 413.861 229.719 418.98 221.697C421.28 218.094 424.307 214.958 426.291 211.173C430.216 203.686 429.582 194.709 428.456 186.334C427.329 177.959 425.823 169.283 428.274 161.194C429.79 156.194 432.729 151.755 435.839 147.554C438.923 143.39 442.204 139.377 445.678 135.53" stroke="#111111" stroke-miterlimit="10"/>
<path d="M398.295 242.953C396.613 233.592 399.437 223.525 405.746 216.406C408.581 213.208 412.059 210.586 414.614 207.154C419.661 200.373 420.439 191.407 420.637 182.959C420.834 174.512 420.704 165.706 424.391 158.105C426.67 153.401 430.268 149.481 433.996 145.815C437.693 142.186 441.566 138.733 445.595 135.478" stroke="#111111" stroke-miterlimit="10"/>
<path d="M381.992 234.163C381.795 224.657 386.161 215.155 393.503 209.106C396.805 206.391 400.652 204.345 403.71 201.355C409.754 195.446 411.929 186.713 413.44 178.4C414.956 170.088 416.208 161.37 421.036 154.439C424.022 150.15 428.191 146.838 432.443 143.806C436.659 140.794 441.026 137.996 445.517 135.41" stroke="#111111" stroke-miterlimit="10"/>
<path d="M367.267 222.928C368.56 213.504 374.36 204.802 382.558 199.984C386.244 197.819 390.361 196.401 393.851 193.925C400.746 189.039 404.255 180.747 407.054 172.777C409.852 164.802 412.454 156.391 418.305 150.296C421.924 146.526 426.561 143.91 431.239 141.578C435.875 139.268 440.626 137.181 445.465 135.332" stroke="#111111" stroke-miterlimit="10"/>
<path d="M354.484 209.532C357.236 200.43 364.323 192.741 373.176 189.262C377.153 187.699 381.447 186.941 385.279 185.046C392.854 181.298 397.615 173.66 401.628 166.225C405.637 158.785 409.52 150.883 416.26 145.784C420.424 142.627 425.413 140.768 430.398 139.195C435.34 137.638 440.356 136.319 445.429 135.249" stroke="#111111" stroke-miterlimit="10"/>
<path d="M343.95 194.299C348.093 185.737 356.297 179.252 365.585 177.201C369.76 176.277 374.116 176.204 378.197 174.932C386.265 172.414 392.163 165.618 397.288 158.899C402.412 152.181 407.485 144.984 414.936 140.997C419.541 138.531 424.759 137.477 429.93 136.703C435.055 135.935 440.216 135.421 445.392 135.156" stroke="#111111" stroke-miterlimit="10"/>
<path d="M335.933 177.601C341.364 169.792 350.482 164.673 359.973 164.096C364.241 163.837 368.555 164.444 372.787 163.826C381.146 162.601 388.041 156.812 394.152 150.976C400.263 145.14 406.4 138.827 414.38 136.054C419.318 134.341 424.635 134.112 429.863 134.159C435.045 134.206 440.221 134.502 445.377 135.052" stroke="#111111" stroke-miterlimit="10"/>
<path d="M330.621 159.86C337.205 152.996 347.013 149.367 356.478 150.286C360.735 150.701 364.899 151.973 369.172 152.025C377.62 152.124 385.335 147.482 392.287 142.674C399.24 137.866 406.285 132.591 414.603 131.101C419.748 130.182 425.034 130.789 430.19 131.651C435.298 132.508 440.366 133.609 445.371 134.959" stroke="#111111" stroke-miterlimit="10"/>
<path d="M328.155 141.506C335.73 135.758 345.985 133.707 355.19 136.095C359.328 137.17 363.243 139.081 367.459 139.797C375.787 141.215 384.136 137.84 391.748 134.18C399.364 130.519 407.152 126.407 415.6 126.241C420.823 126.137 425.953 127.565 430.911 129.221C435.823 130.867 440.657 132.747 445.387 134.865" stroke="#111111" stroke-miterlimit="10"/>
<path d="M328.587 122.991C336.972 118.5 347.418 118.074 356.136 121.874C360.056 123.583 363.623 126.08 367.672 127.451C375.679 130.156 384.448 128.126 392.542 125.701C400.637 123.276 408.97 120.436 417.345 121.589C422.521 122.3 427.366 124.512 431.997 126.926C436.592 129.32 441.073 131.937 445.413 134.766" stroke="#111111" stroke-miterlimit="10"/>
<path d="M331.914 104.772C340.896 101.646 351.281 102.861 359.302 107.98C362.906 110.281 366.042 113.307 369.827 115.291C377.314 119.216 386.291 118.583 394.665 117.456C403.04 116.329 411.716 114.824 419.805 117.274C424.805 118.79 429.245 121.729 433.445 124.839C437.609 127.923 441.622 131.205 445.47 134.678" stroke="#111111" stroke-miterlimit="10"/>
<path d="M338.047 87.2954C347.408 85.6132 357.475 88.4377 364.594 94.7461C367.792 97.5809 370.414 101.06 373.846 103.614C380.627 108.661 389.594 109.44 398.041 109.637C406.489 109.834 415.294 109.704 422.895 113.391C427.599 115.67 431.519 119.268 435.185 122.996C438.814 126.693 442.267 130.566 445.522 134.595" stroke="#111111" stroke-miterlimit="10"/>
<path d="M346.837 70.9975C356.343 70.8002 365.845 75.1667 371.894 82.5083C374.609 85.8105 376.655 89.6578 379.645 92.7159C385.554 98.7595 394.287 100.935 402.6 102.446C410.912 103.962 419.63 105.213 426.561 110.042C430.85 113.027 434.162 117.196 437.194 121.449C440.206 125.665 443.004 130.031 445.59 134.522" stroke="#111111" stroke-miterlimit="10"/>
<path d="M358.072 56.2727C367.495 57.5655 376.197 63.3651 381.015 71.5633C383.181 75.2497 384.598 79.367 387.075 82.8561C391.96 89.7511 400.252 93.261 408.222 96.0595C416.197 98.858 424.608 101.459 430.703 107.311C434.473 110.93 437.09 115.566 439.421 120.244C441.731 124.881 443.819 129.631 445.667 134.47" stroke="#111111" stroke-miterlimit="10"/>
<path d="M371.468 43.4846C380.57 46.2364 388.259 53.3236 391.738 62.176C393.301 66.1532 394.059 70.447 395.954 74.2787C399.703 81.854 407.34 86.6151 414.775 90.6285C422.215 94.6368 430.118 98.5205 435.216 105.26C438.373 109.424 440.232 114.413 441.805 119.398C443.363 124.341 444.681 129.356 445.751 134.429" stroke="#111111" stroke-miterlimit="10"/>
<path d="M386.701 32.9553C395.263 37.0986 401.748 45.302 403.798 54.5906C404.723 58.7651 404.795 63.1212 406.067 67.2022C408.586 75.2706 415.382 81.1688 422.1 86.2934C428.819 91.4179 436.015 96.4906 440.003 103.941C442.469 108.547 443.523 113.765 444.297 118.936C445.065 124.06 445.579 129.221 445.844 134.398" stroke="#111111" stroke-miterlimit="10"/>
</g>
<defs>
<clipPath id="clip0_201_8779">
<rect width="116" height="116" fill="white" transform="translate(48 193) rotate(-90)"/>
</clipPath>
<clipPath id="clip1_201_8779">
<rect width="116" height="116" fill="white" transform="translate(48 193) rotate(-90)"/>
</clipPath>
<clipPath id="clip2_201_8779">
<rect width="116" height="116" fill="white" transform="matrix(-1 0 0 1 164 77)"/>
</clipPath>
<clipPath id="clip3_201_8779">
<rect width="178" height="178" fill="white" transform="matrix(4.37114e-08 -1 -1 -4.37114e-08 264 224)"/>
</clipPath>
<clipPath id="clip4_201_8779">
<rect width="178" height="178" fill="white" transform="translate(170 46)"/>
</clipPath>
<clipPath id="clip5_201_8779">
<rect width="236" height="236" fill="white" transform="matrix(-1 0 0 1 564 17)"/>
</clipPath>
</defs>
</svg>
