<svg width="221" height="220" viewBox="0 0 221 220" fill="none" xmlns="http://www.w3.org/2000/svg">
<g id="Group 8">
<path id="Vector" d="M110.878 0.000976562V0.511261C114.587 0.511261 118.358 0.705169 122.083 1.08278C136.79 2.57791 150.756 6.91023 163.61 13.9573C176.021 20.7645 186.869 29.8016 195.855 40.8237C204.841 51.8459 211.511 64.2917 215.675 77.8194C219.987 91.8267 221.415 106.38 219.92 121.086C217.16 148.234 204.464 173.217 184.18 191.434C164.034 209.529 138.091 219.495 111.133 219.495C107.413 219.495 103.642 219.301 99.9167 218.923C85.2103 217.428 71.2438 213.096 58.3897 206.049C45.9796 199.242 35.1309 190.204 26.1448 179.182C17.1587 168.16 10.4893 155.714 6.32534 142.187C2.01344 128.179 0.584641 113.621 2.07978 98.9197C4.84042 71.7776 17.5363 46.7941 37.8201 28.5769C57.9662 10.4822 83.909 0.516364 110.867 0.511261L110.878 0.000976562ZM110.867 0.000976562C55.129 0.00607941 7.33571 42.2219 1.56949 98.8686C-4.57944 159.302 39.4275 213.28 99.8605 219.428C103.647 219.811 107.403 220 111.128 220C166.866 220 214.659 177.784 220.42 121.132C226.574 60.6993 182.567 6.72143 122.134 0.572495C118.343 0.189782 114.592 0.000976562 110.867 0.000976562Z" fill="white"/>
<path id="Vector_2" d="M111.699 1.66422C114.766 1.66422 117.873 1.8224 120.945 2.12857C134.299 3.47573 146.99 7.63455 158.67 14.4877C169.953 21.1112 179.817 29.9646 187.991 40.7979C196.171 51.6364 202.244 63.9087 206.04 77.2731C209.975 91.112 211.286 105.528 209.944 120.117C207.443 147.223 195.814 172.212 177.194 190.48C158.706 208.625 134.937 218.622 110.27 218.622C107.198 218.622 104.085 218.464 101.019 218.158C87.6644 216.81 74.9736 212.652 63.2932 205.798C52.0108 199.175 42.147 190.322 33.9722 179.488C25.7975 168.65 19.72 156.383 15.9234 143.013C11.9892 129.174 10.6777 114.759 12.0198 100.17C14.5202 73.0684 26.1496 48.0746 44.7698 29.8064C63.2575 11.6607 87.0265 1.66422 111.699 1.66422ZM111.694 1.15393C60.6346 1.15393 16.7297 43.5994 11.5146 100.124C5.9831 160.057 46.0353 213.131 100.973 218.668C104.096 218.984 107.198 219.137 110.275 219.137C161.334 219.137 205.239 176.692 210.454 120.168C215.986 60.2296 175.933 7.15488 120.996 1.62339C117.873 1.30702 114.771 1.15393 111.694 1.15393Z" fill="white"/>
<path id="Vector_3" d="M112.358 2.29688V2.80716C114.827 2.80716 117.333 2.92963 119.813 3.17967C131.82 4.37373 143.23 8.35906 153.737 15.0285C163.891 21.4734 172.77 30.138 180.139 40.7825C187.507 51.4373 192.988 63.531 196.422 76.7372C199.979 90.4128 201.178 104.685 199.979 119.157C197.744 146.223 187.196 171.216 170.28 189.546C153.482 207.748 131.927 217.775 109.587 217.775C107.112 217.775 104.601 217.652 102.126 217.402C90.1246 216.208 78.7095 212.223 68.2027 205.553C58.0481 199.109 49.1691 190.444 41.8006 179.799C34.4321 169.145 28.9516 157.051 25.5174 143.845C21.9607 130.169 20.7616 115.896 21.9607 101.425C24.1958 74.3644 34.7434 49.3655 51.6593 31.0361C68.4579 12.8343 90.0072 2.81226 112.353 2.80716L112.363 2.29688M112.353 2.29688C66.0442 2.29688 26.1196 44.9822 21.4556 101.384C16.5415 160.822 52.639 212.988 102.075 217.907C104.596 218.157 107.097 218.28 109.587 218.28C155.895 218.28 195.82 175.595 200.484 119.193C205.398 59.76 169.3 7.58853 119.864 2.66938C117.343 2.41934 114.843 2.29688 112.353 2.29688Z" fill="white"/>
<path id="Vector_4" d="M112.837 3.43018V3.94046C114.771 3.94046 116.736 4.03741 118.68 4.22622C129.335 5.2672 139.464 9.08413 148.797 15.5596C157.824 21.8208 165.723 30.3018 172.28 40.7575C185.783 62.2915 192.079 89.7907 190.008 118.188C188.038 145.213 178.598 170.222 163.427 188.612C148.363 206.87 129.059 216.928 109.082 216.928C107.143 216.928 105.173 216.831 103.234 216.642C92.579 215.601 82.4499 211.785 73.1168 205.314C64.0899 199.053 56.1906 190.572 49.6335 180.116C36.1314 158.582 29.8344 131.083 31.9062 102.686C33.8759 75.661 43.3162 50.6519 58.4869 32.2613C73.5505 13.9982 92.8546 3.94556 112.832 3.94046V3.43018M112.832 3.43018C71.3461 3.43018 35.4986 46.3604 31.3959 102.64C27.0993 161.578 59.2421 212.841 103.178 217.148C105.158 217.342 107.117 217.438 109.077 217.438C150.563 217.438 186.41 174.508 190.513 118.229C194.809 59.291 162.667 8.02274 118.731 3.72104C116.751 3.52713 114.792 3.43018 112.832 3.43018Z" fill="white"/>
<path id="Vector_5" d="M113.133 4.55261V5.0629C114.592 5.0629 116.077 5.13434 117.542 5.27722C126.839 6.17021 135.693 9.80855 143.847 16.0901C151.746 22.1727 158.666 30.4649 164.411 40.7318C176.255 61.8933 181.797 89.0609 180.026 117.223C178.327 144.212 170.014 169.237 156.619 187.689C143.321 206.003 126.319 216.091 108.739 216.091C107.275 216.091 105.79 216.02 104.325 215.877C95.028 214.984 86.1745 211.345 78.0202 205.064C70.121 198.981 63.2015 190.689 57.4557 180.422C45.612 159.261 40.0703 132.093 41.841 103.931C43.5402 76.9416 51.8528 51.9172 65.2477 33.4653C78.5458 15.1512 95.5484 5.0629 113.128 5.0629V4.55261M113.128 4.55261C76.5454 4.55261 44.867 47.738 41.3358 103.9C37.6617 162.338 65.8448 212.703 104.285 216.387C105.78 216.53 107.265 216.601 108.75 216.601C145.332 216.601 177.01 173.416 180.541 117.254C184.215 58.8163 156.032 8.45119 117.593 4.76693C116.098 4.62405 114.613 4.55261 113.128 4.55261Z" fill="white"/>
<path id="Vector_6" d="M113.246 6.17532C114.297 6.17532 115.363 6.22635 116.414 6.32331C149.037 9.3646 173.102 58.6836 170.066 116.259C168.642 143.212 161.483 168.257 149.904 186.775C138.418 205.145 123.752 215.264 108.612 215.264C107.561 215.264 106.494 215.213 105.443 215.116C72.8208 212.075 48.7557 162.756 51.7919 105.181C53.2156 78.2275 60.3749 53.1827 71.9533 34.6645C83.4398 16.2943 98.1054 6.17532 113.246 6.17532ZM113.246 5.66504C81.6436 5.66504 54.2413 49.1158 51.2817 105.16C48.2251 163.098 72.4534 212.56 105.392 215.632C106.469 215.734 107.541 215.78 108.612 215.78C140.214 215.78 167.616 172.329 170.576 116.29C173.633 58.3519 149.404 8.89004 116.465 5.81812C115.389 5.71607 114.317 5.67014 113.246 5.67014V5.66504Z" fill="white"/>
<path id="Vector_7" d="M113.163 6.76709V7.27737C113.862 7.27737 114.577 7.30799 115.281 7.37433C142.413 9.80328 162.513 58.2191 160.094 115.3C158.951 142.217 152.965 167.282 143.244 185.882C133.605 204.314 121.328 214.463 108.662 214.463C107.958 214.463 107.244 214.433 106.545 214.366C79.4128 211.937 59.3127 163.521 61.7315 106.441C62.8745 79.5235 68.8601 54.4583 78.5811 35.8635C88.2152 17.432 100.498 7.28248 113.163 7.28248V6.77219M113.163 6.77219C86.6232 6.77219 63.594 50.4985 61.2212 106.421C58.782 163.858 79.0556 212.417 106.499 214.871C107.223 214.938 107.943 214.968 108.662 214.968C135.202 214.968 158.231 171.242 160.604 115.32C163.043 57.8823 142.77 9.32362 115.327 6.86915C114.602 6.80281 113.883 6.77219 113.163 6.77219Z" fill="white"/>
<path id="Vector_8" d="M112.877 8.36942C113.296 8.36942 113.724 8.38983 114.143 8.42044C119.363 8.85929 124.364 11.9567 128.997 17.6362C133.523 23.1779 137.509 30.9189 140.836 40.6347C147.699 60.6787 150.996 86.8512 150.118 114.33C149.261 141.217 144.474 166.308 136.652 184.984C128.905 203.472 119.052 213.652 108.907 213.652C108.489 213.652 108.06 213.631 107.642 213.601C102.422 213.162 97.4208 210.065 92.7874 204.385C88.2612 198.843 84.2759 191.102 80.9488 181.387C74.0855 161.343 70.7891 135.17 71.6668 107.691C72.524 80.8043 77.3105 55.7136 85.1332 37.0372C92.8793 18.5496 102.733 8.36942 112.877 8.36942ZM112.877 7.85913C91.4811 7.85913 72.9425 51.8712 71.1565 107.676C69.3348 164.613 85.6486 212.269 107.596 214.111C108.035 214.147 108.468 214.167 108.907 214.167C130.304 214.167 148.842 170.155 150.628 114.35C152.45 57.4129 136.136 9.75739 114.189 7.91526C113.75 7.87954 113.316 7.85913 112.877 7.85913Z" fill="white"/>
<path id="Vector_9" d="M112.398 9.45132C112.602 9.45132 112.811 9.46153 113.02 9.47684C116.873 9.7626 120.583 12.6763 124.048 18.1364C127.456 23.5046 130.462 31.0619 132.983 40.5991C138.182 60.2757 140.729 86.1216 140.147 113.371C139.576 140.227 136.024 165.348 130.14 184.106C127.288 193.2 124.042 200.328 120.491 205.283C116.888 210.315 113.143 212.866 109.362 212.866C109.152 212.866 108.943 212.856 108.739 212.841C104.886 212.555 101.177 209.641 97.7118 204.181C94.3031 198.813 91.2975 191.256 88.7767 181.718C83.5769 162.042 81.0306 136.196 81.6123 108.947C82.1838 82.0903 85.7354 56.969 91.619 38.211C94.4715 29.1177 97.7169 21.9941 101.268 17.0342C104.871 12.0027 108.617 9.45132 112.398 9.45132ZM112.398 8.94104C96.232 8.94104 82.291 53.2542 81.102 108.936C79.9029 165.379 92.2569 212.126 108.703 213.351C108.923 213.366 109.142 213.376 109.362 213.376C125.527 213.376 139.468 169.063 140.657 113.381C141.857 56.9384 129.503 10.1912 113.056 8.96655C112.837 8.95125 112.617 8.94104 112.398 8.94104Z" fill="white"/>
<path id="Vector_10" d="M111.698 10.0073V10.5176C111.765 10.5176 111.826 10.5176 111.892 10.5227C116.857 10.7983 121.68 21.749 125.129 40.5581C128.671 59.8672 130.462 85.3866 130.181 112.411C129.9 139.237 127.604 164.394 123.716 183.244C119.934 201.578 114.944 212.095 110.035 212.095C109.969 212.095 109.907 212.095 109.841 212.09C104.876 211.815 100.054 200.864 96.6043 182.055C93.0629 162.746 91.2718 137.226 91.5524 110.207C91.8331 83.3812 94.1294 58.2241 98.0177 39.3742C101.799 21.0397 106.79 10.5227 111.698 10.5227V10.0124M111.698 10.0124C100.845 10.0124 91.6188 54.6368 91.0422 110.202C90.4604 166.144 98.8597 211.988 109.81 212.601C109.887 212.601 109.958 212.606 110.03 212.606C120.884 212.606 130.11 167.981 130.686 112.416C131.268 56.4738 122.869 10.6299 111.918 10.0175C111.841 10.0175 111.77 10.0124 111.698 10.0124Z" fill="white"/>
<path id="Vector_11" d="M110.785 11.5742C111.392 11.5742 114.546 12.9673 117.271 40.5125C119.144 59.4543 120.185 84.647 120.205 111.442C120.22 138.242 119.215 163.435 117.363 182.377C114.674 209.927 111.515 211.32 110.913 211.325C110.306 211.325 107.152 209.932 104.427 182.387C102.554 163.445 101.513 138.252 101.493 111.457C101.478 84.6572 102.483 59.4645 104.335 40.5227C107.024 12.9724 110.183 11.5742 110.785 11.5742ZM110.785 11.064C105.335 11.064 100.947 56.0149 100.983 111.457C101.018 166.9 105.463 211.841 110.913 211.835C116.363 211.835 120.751 166.884 120.715 111.442C120.68 55.9996 116.235 11.0589 110.785 11.064Z" fill="white"/>
</g>
</svg>
