<svg width="200" height="207" viewBox="0 0 200 207" fill="none" xmlns="http://www.w3.org/2000/svg">
<g id="Layer_1" clip-path="url(#clip0_201_8277)">
<path id="Vector" d="M99.8909 7.4115V7.87443C103.268 7.87443 106.692 8.05034 110.078 8.39291C123.448 9.7493 136.145 13.6796 147.83 20.0727C159.112 26.2482 168.974 34.4467 177.144 44.4461C185.313 54.4454 191.376 65.7363 195.161 78.0086C199.081 90.7161 200.38 103.919 199.021 117.261C196.511 141.889 184.97 164.554 166.53 181.08C148.215 197.496 124.631 206.537 100.123 206.537C96.7411 206.537 93.3129 206.361 89.9264 206.019C76.5569 204.662 63.86 200.732 52.1745 194.339C40.8925 188.163 31.03 179.965 22.8608 169.965C14.6916 159.966 8.62842 148.675 4.84302 136.403C0.923093 123.695 -0.37582 110.493 0.983399 97.1509C3.49308 72.5275 15.0348 49.8624 33.4748 33.3357C51.7894 16.9201 75.374 7.87906 99.8816 7.87906L99.8909 7.41613M99.8816 7.41613C49.2148 7.42076 5.76154 45.7191 0.524141 97.1092C-5.06582 151.934 34.9407 200.903 89.88 206.481C93.3221 206.829 96.7364 207 100.123 207C150.794 207 194.243 168.702 199.48 117.307C205.07 62.4819 165.064 13.5129 110.124 7.93461C106.682 7.58278 103.268 7.41613 99.8816 7.41613Z" fill="white"/>
<path id="Vector_2" d="M105.378 7.45317C108.575 7.45317 111.817 7.62445 115.018 7.95313C127.362 9.23545 139.081 12.8972 149.857 18.8274C160.262 24.5585 169.35 32.1552 176.87 41.4092C184.389 50.6632 189.956 61.107 193.421 72.4534C197.007 84.198 198.172 96.4009 196.882 108.72C194.502 131.422 183.809 152.309 166.78 167.526C149.871 182.636 128.114 190.959 105.522 190.959C102.321 190.959 99.0787 190.788 95.8731 190.459C83.5288 189.177 71.8108 185.515 61.0345 179.585C50.6293 173.854 41.5415 166.257 34.0217 157.003C26.502 147.749 20.9352 137.306 17.4699 125.959C13.884 114.215 12.7196 102.012 14.0092 89.693C16.389 66.9908 27.0818 46.108 44.1115 30.8868C61.0205 15.7767 82.7773 7.45317 105.374 7.45317M105.369 6.99023C58.6454 6.99023 18.5183 42.2471 13.5453 89.6467C8.22905 140.301 45.0671 185.645 95.8175 190.927C99.074 191.265 102.307 191.432 105.513 191.432C152.237 191.432 192.364 156.175 197.337 108.775C202.653 58.1211 165.815 12.7769 115.065 7.49483C111.808 7.15689 108.575 6.99023 105.369 6.99023Z" fill="white"/>
<path id="Vector_3" d="M110.871 6.56897V7.0319C113.887 7.0319 116.944 7.19393 119.964 7.51798C131.283 8.73086 142.027 12.1195 151.889 17.5914C161.418 22.8781 169.731 29.8683 176.596 38.3817C183.462 46.895 188.542 56.4916 191.682 66.9075C194.934 77.6938 195.964 88.8922 194.739 100.192C192.485 120.973 182.646 140.074 167.026 153.985C151.518 167.794 131.594 175.4 110.918 175.4C107.898 175.4 104.841 175.238 101.821 174.914C90.5016 173.701 79.7577 170.313 69.8953 164.841C60.3668 159.554 52.0538 152.564 45.1881 144.051C38.3224 135.537 33.2428 125.941 30.1022 115.525C26.8503 104.738 25.8204 93.54 27.0451 82.2398C29.2996 61.4588 39.1389 42.3582 54.7583 28.4471C70.2664 14.6379 90.1908 7.0319 110.867 7.0319V6.56897M110.867 6.56897C68.0907 6.56897 31.2851 38.7798 26.5812 82.1889C21.5433 128.667 55.2083 170.387 101.77 175.372C104.845 175.701 107.893 175.863 110.918 175.863C153.694 175.863 190.499 143.652 195.203 100.243C200.241 53.7649 166.576 12.0455 120.015 7.05968C116.939 6.731 113.891 6.56897 110.867 6.56897Z" fill="white"/>
<path id="Vector_4" d="M116.359 6.14771V6.61064C119.194 6.61064 122.07 6.76803 124.904 7.08283C145.265 9.33731 163.524 19.369 176.309 35.3309C189.103 51.3067 194.892 71.31 192.601 91.6559C190.476 110.511 181.486 127.839 167.277 140.44C153.174 152.948 135.073 159.832 116.313 159.832C113.478 159.832 110.602 159.674 107.763 159.36C87.4028 157.105 69.1438 147.073 56.3588 131.112C43.5645 115.136 37.7751 95.1325 40.0667 74.7866C42.1914 55.9314 51.1817 38.6039 65.3909 26.0075C79.4933 13.5037 97.5946 6.61527 116.355 6.61527V6.15233M116.355 6.15233C77.5264 6.15233 44.0423 35.317 39.6074 74.7403C34.8479 117.043 65.3352 155.138 107.712 159.827C110.602 160.147 113.469 160.304 116.313 160.304C155.141 160.304 188.625 131.139 193.06 91.716C197.82 49.4133 167.332 11.3187 124.955 6.62915C122.065 6.30973 119.198 6.15233 116.355 6.15233Z" fill="white"/>
<path id="Vector_5" d="M121.852 5.72179V6.18472C124.505 6.18472 127.191 6.33749 129.845 6.64303C148.178 8.74937 164.581 17.8599 176.026 32.2895C187.489 46.7376 192.615 64.7919 190.458 83.1194C188.467 100.053 180.321 115.599 167.522 126.89C154.826 138.093 138.552 144.263 121.703 144.263C119.05 144.263 116.359 144.111 113.706 143.805C95.3725 141.699 78.9691 132.588 67.5248 118.159C56.0619 103.711 50.9358 85.6562 53.093 67.3288C55.0831 50.3947 63.2291 34.8495 76.028 23.5586C88.7249 12.3556 104.998 6.18472 121.847 6.18472V5.72179M121.847 5.72179C86.9621 5.72179 56.7995 31.845 52.6337 67.2732C48.1478 105.405 75.4667 139.875 113.655 144.263C116.359 144.574 119.045 144.726 121.703 144.726C156.588 144.726 186.751 118.603 190.917 83.1749C195.403 45.0432 168.084 10.5733 129.896 6.18009C127.191 5.86993 124.505 5.71716 121.847 5.71716V5.72179Z" fill="white"/>
<path id="Vector_6" d="M127.345 5.75883C129.813 5.75883 132.318 5.9116 134.786 6.20787C151.092 8.17071 165.639 16.3553 175.748 29.2526C185.875 42.1731 190.342 58.2738 188.319 74.5875C184.497 105.437 158.18 128.704 127.103 128.704C124.631 128.704 122.126 128.552 119.658 128.255C103.352 126.292 88.804 118.108 78.6957 105.21C68.5689 92.2901 64.1015 76.1893 66.1241 59.8756C69.9513 29.0258 96.2682 5.76346 127.345 5.75883ZM127.345 5.2959C96.4027 5.2959 69.5662 28.3777 65.6695 59.8154C61.4619 93.7715 85.6078 124.617 119.607 128.714C122.126 129.019 124.631 129.167 127.108 129.167C158.05 129.167 184.886 106.085 188.783 74.6477C192.991 40.6917 168.845 9.84652 134.846 5.74957C132.327 5.44404 129.822 5.2959 127.345 5.2959Z" fill="white"/>
<path id="Vector_7" d="M132.837 4.87012V5.33305C135.124 5.33305 137.443 5.48119 139.73 5.77283C154.004 7.59216 166.701 14.8509 175.473 26.2159C184.269 37.6087 188.073 51.7559 186.185 66.0558C184.454 79.1429 178.011 91.1329 168.037 99.8082C158.147 108.409 145.529 113.145 132.507 113.145C130.22 113.145 127.901 112.997 125.614 112.705C111.34 110.886 98.6427 103.627 89.8704 92.2624C81.0749 80.8696 77.2709 66.7225 79.159 52.4225C80.8893 39.3354 87.3329 27.3455 97.3113 18.6701C107.202 10.0688 119.82 5.33305 132.841 5.33305V4.87012M132.841 4.87012C105.842 4.87012 82.3228 24.9151 78.6997 52.3623C74.7659 82.1427 95.7433 109.368 125.553 113.164C127.891 113.46 130.211 113.608 132.507 113.608C159.506 113.608 183.026 93.5632 186.649 66.116C190.582 36.3356 169.605 9.11057 139.795 5.31453C137.457 5.01825 135.137 4.87012 132.841 4.87012Z" fill="white"/>
<path id="Vector_8" d="M138.329 4.43958V4.90251C140.436 4.90251 142.569 5.04602 144.666 5.33303C156.913 7.00422 167.754 13.3418 175.186 23.1698C182.646 33.0349 185.791 45.2331 184.037 57.5147C182.441 68.6806 176.847 78.8883 168.283 86.2582C159.794 93.5586 149.004 97.5815 137.893 97.5815C135.787 97.5815 133.653 97.438 131.552 97.1509C119.305 95.4798 108.464 89.1422 101.032 79.3142C93.5726 69.4491 90.4274 57.2508 92.1809 44.9693C93.7767 33.8033 99.3713 23.5957 107.935 16.2258C116.424 8.92538 127.214 4.90251 138.325 4.90251V4.43958M138.325 4.43958C115.264 4.43958 95.0664 21.4477 91.717 44.9045C88.0615 70.5138 105.866 94.1095 131.487 97.6093C133.639 97.9055 135.773 98.0444 137.889 98.0444C160.949 98.0444 181.147 81.0363 184.496 57.5795C188.152 31.9701 170.348 8.3745 144.727 4.87473C142.574 4.57845 140.44 4.43958 138.325 4.43958Z" fill="white"/>
<path id="Vector_9" d="M143.827 4.46733C145.752 4.46733 147.696 4.61084 149.611 4.89785C159.826 6.42553 168.812 11.8326 174.912 20.1283C181.04 28.4657 183.527 38.7104 181.903 48.9782C180.447 58.223 175.701 66.6576 168.548 72.722C161.464 78.7262 152.492 82.0362 143.289 82.0362C141.363 82.0362 139.42 81.8927 137.504 81.6057C127.289 80.078 118.303 74.671 112.203 66.3752C106.075 58.0378 103.588 47.7931 105.212 37.5253C106.668 28.2805 111.414 19.8459 118.567 13.7815C125.651 7.77729 134.623 4.46733 143.827 4.46733ZM143.827 4.00439C124.7 4.00439 107.824 17.9803 104.753 37.4512C101.371 58.885 116.007 78.8605 137.439 82.064C139.406 82.3556 141.359 82.4991 143.293 82.4991C162.42 82.4991 179.296 68.5232 182.367 49.0523C185.749 27.6186 171.113 7.64304 149.681 4.43955C147.714 4.1479 145.761 4.00439 143.827 4.00439Z" fill="white"/>
<path id="Vector_10" d="M149.319 4.02287C151.059 4.02287 152.817 4.17101 154.543 4.46265C162.73 5.84219 169.86 10.3234 174.625 17.0868C179.421 23.8919 181.249 32.1876 179.765 40.4417C178.447 47.7653 174.56 54.4269 168.812 59.1905C163.129 63.9031 155.981 66.4955 148.684 66.4955C146.944 66.4955 145.186 66.3474 143.46 66.0557C135.272 64.6762 128.142 60.195 123.378 53.4316C118.581 46.6265 116.754 38.3308 118.238 30.0767C119.555 22.7531 123.443 16.0915 129.191 11.3279C134.873 6.61529 142.022 4.02287 149.319 4.02287ZM149.319 3.55994C134.117 3.55994 120.562 14.5175 117.779 29.9934C114.675 47.2561 126.138 63.6022 143.381 66.5094C145.163 66.8103 146.93 66.9538 148.684 66.9538C163.886 66.9538 177.441 55.9962 180.224 40.5204C183.327 23.2577 171.865 6.91156 154.621 4.00435C152.84 3.70345 151.068 3.55994 149.319 3.55994Z" fill="white"/>
<path id="Vector_11" d="M154.821 3.09705V3.55998C156.375 3.55998 157.943 3.71737 159.473 4.02291C165.629 5.25431 170.908 8.805 174.341 14.0269C177.811 19.3043 178.976 25.6511 177.63 31.8914C175.241 42.9462 165.337 50.9688 154.078 50.9688C152.524 50.9688 150.956 50.8114 149.421 50.5059C143.265 49.2745 137.986 45.7238 134.553 40.5019C131.083 35.2245 129.919 28.8777 131.264 22.6374C133.653 11.5872 143.557 3.56461 154.816 3.55998V3.09705M154.816 3.09705C143.52 3.09705 133.291 11.0456 130.809 22.5356C127.984 35.6226 136.274 48.3486 149.323 50.9549C150.915 51.2744 152.501 51.4271 154.069 51.4271C165.365 51.4271 175.594 43.4786 178.076 31.9886C180.901 18.9015 172.611 6.17554 159.562 3.56924C157.97 3.24981 156.384 3.09705 154.816 3.09705Z" fill="white"/>
<path id="Vector_12" d="M160.318 3.05534C161.691 3.05534 163.06 3.23125 164.391 3.57845C168.515 4.65245 171.943 7.27265 174.049 10.9483C176.193 14.6981 176.708 19.0959 175.497 23.3271C173.451 30.4841 166.854 35.4791 159.465 35.4791C158.091 35.4791 156.723 35.3032 155.392 34.956C151.267 33.8773 147.839 31.2618 145.733 27.5861C143.59 23.8364 143.075 19.4385 144.286 15.2073C146.332 8.05037 152.928 3.05534 160.318 3.05534ZM160.318 2.59241C152.896 2.59241 145.988 7.57356 143.84 15.0823C141.289 23.9938 146.406 33.095 155.271 35.4097C156.667 35.7754 158.073 35.9467 159.465 35.9467C166.887 35.9467 173.794 30.9655 175.942 23.4567C178.494 14.5453 173.377 5.44407 164.512 3.12941C163.115 2.76369 161.71 2.59241 160.318 2.59241Z" fill="white"/>
<path id="Vector_13" d="M165.816 2.40727C167.017 2.40727 168.182 2.64799 169.272 3.11555C171.364 4.01827 172.955 5.68483 173.748 7.80505C174.583 10.0364 174.453 12.4899 173.382 14.7213C171.805 18.0081 168.455 20.1329 164.855 20.1329C163.654 20.1329 162.49 19.8922 161.399 19.4246C159.307 18.5219 157.716 16.8554 156.923 14.7351C156.088 12.5038 156.218 10.0503 157.285 7.81894C158.862 4.53213 162.211 2.40727 165.811 2.40727M165.811 1.94434C162.156 1.94434 158.57 4.07382 156.862 7.61988C154.589 12.3603 156.533 17.8322 161.209 19.8505C162.383 20.3598 163.621 20.5959 164.851 20.5959C168.506 20.5959 172.092 18.4664 173.799 14.9203C176.072 10.1799 174.129 4.70804 169.453 2.68966C168.279 2.18043 167.04 1.94434 165.811 1.94434Z" fill="white"/>
<path id="Vector_14" d="M171.071 0.462932C172.468 0.462932 173.627 1.23603 173.952 2.3841C174.152 3.08313 174.017 3.83771 173.576 4.50433C173.122 5.1941 172.398 5.70332 171.535 5.94868C171.192 6.04589 170.839 6.09681 170.487 6.09681C169.09 6.09681 167.931 5.32372 167.606 4.17565C167.188 2.70352 168.274 1.10641 170.023 0.61107C170.366 0.513854 170.719 0.462932 171.071 0.462932ZM171.071 0C170.686 0 170.292 0.0509225 169.898 0.162026C167.898 0.726803 166.674 2.57853 167.161 4.29601C167.55 5.67555 168.928 6.55049 170.487 6.55049C170.872 6.55049 171.266 6.49956 171.66 6.38846C173.66 5.82368 174.884 3.97196 174.397 2.25448C174.008 0.874941 172.63 0 171.071 0Z" fill="white"/>
</g>
<defs>
<clipPath id="clip0_201_8277">
<rect width="200" height="207" fill="white"/>
</clipPath>
</defs>
</svg>
