<svg width="306" height="220" viewBox="0 0 306 220" fill="none" xmlns="http://www.w3.org/2000/svg" stroke="white">
<g clip-path="url(#clip0_307_452)">
<path d="M255.491 38.7181L257.757 84.4273C257.931 87.9438 259.334 91.2902 261.719 93.886L301.814 137.48C308.311 144.546 306.639 155.801 298.366 160.677L252.981 187.407C249.736 189.319 245.894 189.949 242.209 189.169L167.568 173.437C163.187 172.512 158.618 173.582 155.104 176.356L104.184 216.546C99.6366 220.137 93.4293 220.805 88.2178 218.267L26.6303 188.249C20.0163 185.023 16.6928 177.5 18.7716 170.443L29.6426 133.512C31.6052 126.836 28.7464 119.687 22.7175 116.204L7.75527 107.558C0.655877 103.457 -1.86688 94.4417 2.07493 87.2554L29.8833 36.5701C33.6508 29.6989 42.0614 26.8584 49.2272 30.0348L83.7657 45.3362C89.0269 47.6667 95.1595 46.8042 99.5702 43.1094L146.577 3.72805C151.457 -0.356471 158.374 -0.945305 163.871 2.26011L184.004 13.9953C188.003 16.3258 190.709 20.3647 191.348 24.9468L192.248 31.4323C193.937 43.5739 208.642 48.7365 217.555 40.3187L230.06 28.5047C235.807 23.0766 244.774 23.002 250.608 28.3388C253.541 31.0217 255.296 34.7497 255.495 38.7181H255.491Z"  stroke-width="0.345324" stroke-miterlimit="10"/>
<path d="M32.2198 183.948C25.9917 180.913 22.9628 173.511 24.9171 166.868C24.9337 166.81 35.1409 131.986 35.0869 131.957C36.9375 125.675 34.1118 118.87 28.4398 115.59C28.3775 115.553 14.2742 107.338 14.3074 107.276C7.62707 103.415 5.49435 94.4872 9.20379 87.7239C9.23699 87.6658 35.4811 39.9371 35.5433 39.962C39.091 33.4972 47.3065 30.9553 54.049 33.9451C54.0947 33.9658 86.6581 48.3591 86.6955 48.3301C91.6497 50.5237 97.8279 49.3667 101.981 45.8918C102.023 45.8545 146.329 8.79524 146.374 8.82012C150.963 4.97612 157.652 4.52412 162.826 7.53879C162.859 7.55952 181.83 18.6396 181.838 18.681C185.601 20.8746 188.157 24.7311 188.755 29.0437C188.772 29.1473 189.747 35.2969 189.825 35.2264C191.415 46.6548 205.364 51.4111 213.754 43.4867C213.804 43.4411 225.654 32.3196 225.704 32.3693C231.115 27.2606 239.55 27.1942 245.044 32.2118C245.069 32.2366 245.085 32.2657 245.085 32.303C247.845 34.8283 249.517 38.7346 249.703 42.4707C249.703 42.4998 251.849 85.551 251.869 85.5759C252.035 88.8891 253.703 92.418 255.948 94.8562C256.006 94.9184 293.723 136.046 293.652 136.087C299.769 142.738 297.798 153.565 290.014 158.152C289.985 158.168 247.235 183.331 247.206 183.322C244.152 185.122 239.886 185.574 236.418 184.844C236.38 184.836 166.088 170.04 166.058 170.065C161.934 169.194 157.191 170.555 153.885 173.163C153.843 173.196 105.865 211.027 105.819 211.002C101.537 214.381 95.16 214.75 90.2555 212.358C90.1975 212.329 32.2073 184.011 32.2239 183.948H32.2198Z"  stroke-width="0.345324" stroke-miterlimit="10"/>
<path d="M37.8128 179.648C31.9748 176.804 29.2321 169.518 31.0661 163.294C31.0993 163.178 40.6426 130.464 40.5347 130.406C42.2691 124.518 39.485 118.057 34.1656 114.984C34.0411 114.914 20.7967 107.126 20.8631 107.002C14.5977 103.382 12.8591 94.5452 16.3362 88.2048C16.4026 88.0846 41.0824 43.3125 41.2069 43.3664C44.5346 37.3039 52.551 35.0646 58.8786 37.8678C58.9699 37.9093 89.5542 51.3944 89.6288 51.3322C94.2719 53.389 100.5 51.9418 104.396 48.6783C104.479 48.6078 146.08 13.8542 146.175 13.9122C150.478 10.3087 156.934 9.99358 161.785 12.8216C161.855 12.8631 179.664 23.288 179.676 23.3667C183.203 25.4235 185.61 29.0975 186.17 33.1406C186.199 33.352 187.249 39.1657 187.406 39.0165C188.896 49.7274 202.091 54.0773 209.953 46.6506C210.053 46.5552 221.244 36.1303 221.347 36.2257C226.418 31.4363 234.33 31.3741 239.475 36.0806C239.525 36.1262 239.558 36.1925 239.563 36.263C242.152 38.6308 243.741 42.7153 243.915 46.2193C243.915 46.2815 245.94 86.6706 245.981 86.7162C246.135 89.8221 248.069 93.5334 250.176 95.8224C250.288 95.9468 285.636 134.607 285.491 134.694C291.225 140.93 288.96 151.326 281.657 155.626C281.599 155.66 241.488 179.254 241.421 179.242C238.558 180.93 233.866 181.207 230.617 180.523C230.542 180.507 164.602 166.644 164.54 166.694C160.673 165.877 155.756 167.523 152.656 169.97C152.577 170.032 107.537 205.507 107.446 205.462C103.433 208.63 96.8818 208.696 92.2844 206.457C92.1682 206.399 37.7713 179.781 37.8087 179.657L37.8128 179.648Z"  stroke-width="0.345324" stroke-miterlimit="10"/>
<path d="M43.4052 175.349C37.9572 172.695 35.505 165.529 37.2145 159.72C37.2643 159.545 46.1437 128.943 45.986 128.851C47.6042 123.353 44.8574 117.241 39.8949 114.371C39.7082 114.263 27.3226 106.911 27.4263 106.72C21.58 103.341 20.2315 94.5912 23.4762 88.6739C23.5758 88.4956 46.6955 46.6801 46.8822 46.763C49.9859 41.1027 57.8114 39.1662 63.7158 41.7786C63.8527 41.8408 92.4578 54.4178 92.574 54.3225C96.9099 56.2424 103.188 54.5008 106.818 51.4571C106.947 51.3493 145.838 18.9095 145.983 18.9924C150 15.6294 156.224 15.4511 160.751 18.0884C160.854 18.1506 177.505 27.9203 177.522 28.0406C180.816 29.9605 183.069 33.4562 183.592 37.2297C183.638 37.5448 184.762 43.0226 184.995 42.8029C186.385 52.8006 198.824 56.7441 206.164 49.8108C206.314 49.6698 216.849 39.9375 217.002 40.0785C221.736 35.6083 229.118 35.5503 233.923 39.9416C233.998 40.0121 234.047 40.1075 234.051 40.2112C236.466 42.4214 237.972 46.6842 238.134 49.956C238.138 50.0472 240.039 87.7782 240.101 87.8487C240.246 90.7472 242.445 94.641 244.412 96.7766C244.582 96.9632 277.556 133.156 277.341 133.284C282.693 139.102 280.129 149.071 273.316 153.085C273.233 153.135 235.753 175.162 235.657 175.141C232.985 176.717 227.869 176.821 224.836 176.182C224.72 176.157 163.132 163.232 163.041 163.302C159.431 162.544 154.34 164.472 151.444 166.757C151.323 166.852 109.229 199.964 109.092 199.897C105.345 202.854 98.6277 202.622 94.3332 200.527C94.159 200.445 43.3554 175.523 43.4093 175.34L43.4052 175.349Z"  stroke-width="0.345324" stroke-miterlimit="10"/>
<path d="M48.999 171.048C43.941 168.581 41.7793 161.54 43.3684 156.145C43.4348 155.913 51.6504 127.421 51.4387 127.301C52.9408 122.196 50.2313 116.428 45.6215 113.762C45.3725 113.621 33.8459 106.696 33.9828 106.443C28.5555 103.308 27.5929 94.6452 30.6094 89.1508C30.7422 88.9102 52.2976 50.0513 52.5466 50.1633C55.4303 44.9094 63.0608 43.2715 68.542 45.6973C68.7246 45.7802 95.3504 57.4491 95.5039 57.3205C99.5287 59.1036 105.856 57.0717 109.23 54.2437C109.4 54.1027 145.59 23.9726 145.781 24.0846C149.511 20.9621 155.502 20.9206 159.706 23.3714C159.847 23.4543 175.332 32.5688 175.357 32.7263C178.415 34.5094 180.514 37.8227 181.004 41.3266C181.062 41.7496 182.265 46.8874 182.576 46.5971C183.867 55.8816 195.547 59.4188 202.364 52.9789C202.563 52.7882 212.443 43.7525 212.646 43.9391C217.04 39.7882 223.895 39.7343 228.359 43.8105C228.463 43.9059 228.521 44.0344 228.529 44.1713C230.774 46.2239 232.193 50.6651 232.343 53.7005C232.347 53.8249 234.131 88.8937 234.214 88.9849C234.347 91.6761 236.815 95.7523 238.641 97.7345C238.869 97.9791 269.47 131.709 269.18 131.879C274.151 137.282 271.288 146.819 264.96 150.547C264.848 150.613 230.007 171.073 229.878 171.048C227.397 172.508 221.857 172.442 219.04 171.849C218.887 171.816 161.652 159.823 161.527 159.923C158.174 159.218 152.909 161.436 150.22 163.555C150.063 163.68 110.906 194.436 110.723 194.349C107.246 197.094 100.354 196.559 96.3711 194.618C96.1388 194.506 48.9284 171.289 49.0031 171.04L48.999 171.048Z"  stroke-width="0.345324" stroke-miterlimit="10"/>
<path d="M54.5922 166.748C49.9201 164.471 48.0488 157.55 49.5177 152.57C49.6048 152.28 57.1523 125.899 56.8868 125.745C58.2726 121.034 55.6046 115.611 51.3475 113.152C51.0404 112.973 40.3685 106.48 40.5386 106.164C35.5263 103.27 34.9579 94.6987 37.742 89.6272C37.908 89.3287 57.8992 53.4264 58.2145 53.5632C60.8742 48.7116 68.3138 47.3763 73.3718 49.6156C73.6 49.7151 98.2508 60.48 98.4416 60.3224C102.155 61.9686 108.533 59.6423 111.645 57.034C111.856 56.8557 145.341 29.0354 145.581 29.1764C149.025 26.2944 154.785 26.3898 158.664 28.6498C158.838 28.7493 173.166 37.2127 173.195 37.4118C176.016 39.058 177.966 42.1888 178.419 45.4232C178.493 45.9499 179.767 50.7559 180.157 50.3869C181.348 58.9581 192.273 62.0889 198.568 56.1425C198.817 55.9061 208.036 47.5629 208.289 47.7952C212.347 43.9636 218.675 43.9138 222.795 47.679C222.924 47.7952 222.998 47.9569 223.007 48.131C225.077 50.0219 226.417 54.6455 226.554 57.4487C226.563 57.6021 228.222 90.0129 228.326 90.1249C228.451 92.6087 231.185 96.8674 232.87 98.7003C233.152 99.0071 261.379 130.269 261.022 130.481C265.611 135.469 262.454 144.58 256.612 148.017C256.471 148.1 224.264 166.997 224.106 166.959C221.816 168.307 215.853 168.067 213.252 167.519C213.061 167.478 160.174 156.423 160.021 156.543C156.926 155.892 151.486 158.396 149.005 160.354C148.805 160.511 112.591 188.908 112.367 188.796C109.155 191.33 102.093 190.496 98.4167 188.701C98.1304 188.56 54.5134 167.042 54.6005 166.735L54.5922 166.748Z"  stroke-width="0.345324" stroke-miterlimit="10"/>
<path d="M60.186 162.448C55.904 160.362 54.3231 153.562 55.6674 148.996C55.7712 148.648 62.6548 124.377 62.3395 124.195C63.6091 119.874 60.9785 114.798 57.0782 112.542C56.7089 112.327 46.8959 106.264 47.0992 105.887C42.506 103.233 42.3276 94.7487 44.8794 90.1002C45.0744 89.7395 63.5096 56.7979 63.883 56.9638C66.3228 52.5185 73.5674 51.4777 78.2062 53.5345C78.4801 53.6547 101.152 63.5115 101.38 63.3207C104.786 64.8301 111.21 62.2135 114.064 59.8209C114.317 59.6094 145.097 34.0988 145.387 34.2688C148.545 31.6232 154.071 31.8596 157.627 33.9329C157.835 34.0532 171.005 41.8573 171.038 42.0978C173.627 43.6072 175.424 46.5555 175.834 49.5204C175.921 50.1549 177.274 54.6209 177.739 54.1813C178.83 62.0352 189 64.7596 194.767 59.315C195.066 59.033 203.63 51.3823 203.933 51.6643C207.651 48.152 213.452 48.1064 217.227 51.5565C217.381 51.6975 217.472 51.8924 217.485 52.0997C219.381 53.833 220.638 58.6391 220.763 61.2059C220.771 61.3883 222.31 91.141 222.435 91.2779C222.547 93.5544 225.551 97.9956 227.094 99.675C227.435 100.044 253.289 128.839 252.857 129.096C257.06 133.67 253.608 142.349 248.256 145.5C248.085 145.6 218.518 162.929 218.327 162.888C216.227 164.123 209.842 163.709 207.456 163.207C207.228 163.157 158.69 153.035 158.507 153.18C155.673 152.583 150.055 155.374 147.781 157.169C147.545 157.356 114.272 183.397 113.998 183.265C111.056 185.587 103.82 184.451 100.45 182.808C100.106 182.638 60.0823 162.821 60.1901 162.452L60.186 162.448Z"  stroke-width="0.345324" stroke-miterlimit="10"/>
<path d="M65.7789 158.148C61.8869 156.253 60.5965 149.573 61.8164 145.422C61.9367 145.015 68.1565 122.855 67.7872 122.64C68.9407 118.713 66.3474 113.981 62.8039 111.933C62.3724 111.684 53.4183 106.049 53.6548 105.609C49.4806 103.196 49.6922 94.8027 52.0117 90.5772C52.2399 90.1584 69.1108 60.1693 69.5465 60.3642C71.7622 56.3212 78.8159 55.5831 83.0316 57.4532C83.3511 57.5942 104.043 66.5428 104.313 66.3189C107.409 67.6915 113.881 64.7805 116.475 62.6076C116.773 62.3588 144.847 39.1621 145.179 39.357C148.051 36.9519 153.345 37.3251 156.581 39.2077C156.826 39.3487 168.83 46.4976 168.872 46.7796C171.224 48.1522 172.871 50.9222 173.245 53.6175C173.349 54.3556 174.776 58.4858 175.32 57.9757C176.311 65.1164 185.726 67.4344 190.971 62.4832C191.319 62.1515 199.223 55.2016 199.58 55.525C202.962 52.332 208.236 52.2906 211.667 55.4255C211.846 55.5872 211.953 55.8153 211.966 56.0599C213.692 57.6357 214.862 62.6201 214.978 64.9505C214.991 65.1661 216.406 92.2567 216.551 92.4142C216.655 94.4834 219.92 99.1112 221.327 100.637C221.721 101.068 245.206 127.396 244.699 127.695C248.521 131.85 244.77 140.101 239.903 142.967C239.704 143.083 212.775 158.845 212.547 158.799C210.638 159.923 203.829 159.334 201.659 158.878C201.394 158.82 157.208 149.635 156.992 149.801C154.416 149.257 148.623 152.338 146.557 153.968C146.279 154.188 115.948 177.87 115.628 177.712C112.952 179.823 105.546 178.388 102.483 176.895C102.081 176.7 65.6503 158.579 65.7789 158.152V158.148Z"  stroke-width="0.345324" stroke-miterlimit="10"/>
<path d="M71.3717 153.848C67.8697 152.139 66.8697 145.583 67.9693 141.847C68.1062 141.383 73.6621 121.333 73.243 121.089C74.2845 117.556 71.7244 113.168 68.5336 111.323C68.0398 111.037 59.9405 105.833 60.2185 105.331C56.4592 103.158 57.0609 94.8565 59.148 91.0498C59.4094 90.5729 74.716 63.5404 75.2181 63.7602C77.2139 60.1235 84.0726 59.684 87.865 61.3676C88.2302 61.5293 106.943 69.5698 107.25 69.3127C110.035 70.5484 116.557 67.3471 118.893 65.3899C119.233 65.1038 144.602 44.2209 144.984 44.4407C147.565 42.2761 152.631 42.7861 155.544 44.4821C155.822 44.6438 166.668 51.1376 166.714 51.4569C168.83 52.6926 170.328 55.2802 170.664 57.706C170.78 58.5519 172.282 62.3462 172.904 61.7574C173.796 68.1848 182.456 70.0964 187.174 65.6387C187.572 65.2613 194.821 59.0039 195.227 59.373C198.269 56.4993 203.015 56.462 206.107 59.2859C206.31 59.4725 206.434 59.7338 206.447 60.0074C207.999 61.4256 209.086 66.5883 209.19 68.6865C209.202 68.9312 210.497 93.3636 210.663 93.5461C210.754 95.408 214.289 100.218 215.555 101.591C216.007 102.084 237.118 125.944 236.541 126.284C239.981 130.025 235.936 137.846 231.554 140.425C231.33 140.557 207.032 154.752 206.775 154.698C205.057 155.71 197.821 154.947 195.87 154.536C195.563 154.47 155.73 146.218 155.486 146.413C153.166 145.923 147.2 149.29 145.341 150.758C145.025 151.007 117.632 172.334 117.271 172.155C114.864 174.055 107.288 172.317 104.528 170.974C104.068 170.75 71.2306 154.333 71.3758 153.839L71.3717 153.848Z"  stroke-width="0.345324" stroke-miterlimit="10"/>
<path d="M76.9652 149.547C73.8532 148.03 73.1396 141.594 74.1188 138.272C74.2723 137.75 79.1643 119.807 78.6913 119.537C79.6166 116.394 77.098 112.351 74.2599 110.713C73.7039 110.39 66.4634 105.617 66.7746 105.053C63.4344 103.125 64.4261 94.906 66.2808 91.5264C66.5754 90.9873 80.3219 66.9115 80.8821 67.1603C82.658 63.9258 89.3175 63.789 92.6909 65.2859C93.1017 65.4684 109.84 72.6008 110.184 72.3146C112.661 73.4135 119.23 69.9178 121.308 68.1804C121.69 67.8611 144.353 49.2838 144.785 49.5367C147.079 47.6126 151.913 48.2595 154.502 49.7648C154.818 49.9472 164.502 55.7858 164.552 56.1466C166.436 57.2455 167.78 59.6506 168.079 61.8069C168.212 62.7564 169.788 66.2148 170.485 65.5555C171.278 71.2697 179.182 72.7708 183.377 68.8107C183.83 68.3835 190.414 62.8228 190.875 63.2375C193.58 60.6831 197.8 60.6499 200.543 63.1587C200.771 63.3702 200.912 63.6604 200.924 63.9714C202.306 65.232 203.31 70.573 203.402 72.439C203.414 72.7127 204.592 94.4871 204.779 94.6903C204.862 96.3449 208.663 101.338 209.787 102.557C210.298 103.112 229.032 124.509 228.384 124.891C231.442 128.217 227.098 135.606 223.206 137.899C222.953 138.048 201.294 150.675 201.003 150.617C199.476 151.517 191.817 150.58 190.082 150.215C189.738 150.144 154.258 142.825 153.98 143.041C151.918 142.606 145.777 146.259 144.121 147.565C143.764 147.847 119.317 166.81 118.906 166.611C116.765 168.299 109.018 166.263 106.566 165.068C106.047 164.816 76.8034 150.099 76.9693 149.547H76.9652Z"  stroke-width="0.345324" stroke-miterlimit="10"/>
<path d="M82.5586 145.247C79.8325 143.92 79.4134 137.605 80.2682 134.698C80.4383 134.117 84.6664 118.285 84.1395 117.983C84.9486 115.233 82.4673 111.534 79.986 110.104C79.3678 109.747 72.9862 105.401 73.3306 104.775C70.4095 103.088 71.7912 94.96 73.4136 91.9992C73.7414 91.4021 85.9236 70.2829 86.5502 70.5607C88.102 67.7326 94.5707 67.8943 97.525 69.2006C97.9814 69.4037 112.74 75.628 113.122 75.3087C115.288 76.2707 121.906 72.4848 123.723 70.9629C124.147 70.6063 144.109 54.3429 144.586 54.6207C146.594 52.9371 151.196 53.7167 153.461 55.0395C153.81 55.2427 162.332 60.4261 162.39 60.8242C164.038 61.7821 165.229 64.013 165.494 65.8998C165.639 66.9572 167.295 70.0755 168.071 69.3457C168.764 74.3466 175.909 75.4414 179.581 71.9747C180.083 71.502 186.012 66.6337 186.518 67.0982C188.883 64.8631 192.576 64.8341 194.979 67.0277C195.236 67.2599 195.385 67.5875 195.406 67.9317C196.614 69.0347 197.535 74.554 197.614 76.1878C197.63 76.4946 198.684 95.6069 198.892 95.8349C198.962 97.2821 203.032 102.457 204.016 103.527C204.58 104.141 220.945 123.075 220.223 123.498C222.899 126.409 218.256 133.371 214.85 135.378C214.567 135.544 195.543 146.603 195.224 146.537C193.888 147.325 185.805 146.213 184.286 145.894C183.904 145.815 152.772 139.429 152.465 139.67C150.66 139.288 144.345 143.232 142.897 144.372C142.503 144.683 120.993 161.291 120.541 161.071C118.67 162.551 110.749 160.209 108.604 159.164C108.027 158.882 82.3802 145.865 82.5586 145.251V145.247Z"  stroke-width="0.345324" stroke-miterlimit="10"/>
<path d="M88.1519 140.947C85.8158 139.811 85.6872 133.616 86.4175 131.124C86.6042 130.485 90.1684 116.764 89.5916 116.432C90.2846 114.077 87.8407 110.722 85.7162 109.494C85.0358 109.1 79.5131 105.186 79.8907 104.498C77.3845 103.05 79.1604 95.0141 80.5504 92.4763C80.9114 91.817 91.5294 73.6585 92.2181 73.9612C93.55 71.5354 99.8237 71.9998 102.355 73.1194C102.857 73.3433 115.637 78.6594 116.06 78.307C117.919 79.128 124.587 75.0518 126.143 73.7497C126.611 73.3599 143.864 59.4062 144.391 59.7131C146.113 58.27 150.482 59.1864 152.424 60.3185C152.806 60.5424 160.171 65.0706 160.233 65.5102C161.644 66.3312 162.685 68.3797 162.909 69.9969C163.071 71.158 164.797 73.9446 165.652 73.136C166.249 77.4196 172.635 78.1121 175.78 75.1389C176.332 74.6205 181.606 70.4448 182.162 70.9548C184.191 69.039 187.352 69.0142 189.415 70.8968C189.697 71.1539 189.863 71.5105 189.884 71.892C190.921 72.8374 191.755 78.535 191.825 79.9325C191.842 80.2684 192.776 96.7225 193.004 96.9713C193.066 98.2112 197.402 103.569 198.244 104.485C198.867 105.161 212.858 121.628 212.066 122.092C214.36 124.584 209.422 131.12 206.501 132.84C206.19 133.023 189.805 142.519 189.452 142.444C188.307 143.12 179.801 141.835 178.498 141.561C178.079 141.474 151.295 136.021 150.959 136.291C149.412 135.963 142.922 140.193 141.682 141.171C141.246 141.515 122.678 155.764 122.18 155.519C120.574 156.788 112.483 154.146 110.645 153.251C110.01 152.944 87.9568 141.627 88.156 140.951L88.1519 140.947Z"  stroke-width="0.345324" stroke-miterlimit="10"/>
<path d="M93.7486 136.647C91.8026 135.697 91.9603 129.627 92.5744 127.549C92.7777 126.852 95.678 115.242 95.0474 114.877C95.6241 112.915 93.2217 109.905 91.4458 108.88C90.7031 108.453 86.0393 104.966 86.4501 104.215C84.363 103.009 86.5248 95.0595 87.6866 92.9488C88.0807 92.2314 97.1386 77.0254 97.8855 77.3571C98.9933 75.3377 105.076 76.1007 107.184 77.0337C107.736 77.2784 118.532 81.6863 118.993 81.3007C120.54 81.9849 127.258 77.6184 128.553 76.5319C129.063 76.1048 143.61 64.465 144.187 64.7967C145.623 63.5942 149.76 64.6474 151.378 65.5929C151.797 65.8376 158 69.7106 158.066 70.1875C159.241 70.8717 160.133 72.7377 160.319 74.0854C160.494 75.3543 162.299 77.8008 163.228 76.9217C163.726 80.4921 169.357 80.7782 171.979 78.3026C172.581 77.7345 177.194 74.2554 177.804 74.8111C179.493 73.2146 182.132 73.1938 183.846 74.7613C184.153 75.0433 184.335 75.4331 184.356 75.8477C185.219 76.6356 185.97 82.5115 186.028 83.6767C186.045 84.0458 186.858 97.8378 187.107 98.1073C187.157 99.144 191.758 104.684 192.464 105.443C193.144 106.181 204.762 120.18 203.895 120.69C205.808 122.768 200.571 128.872 198.136 130.307C197.796 130.506 184.045 138.434 183.663 138.351C182.709 138.915 173.78 137.456 172.693 137.227C172.236 137.132 149.805 132.616 149.436 132.907C148.145 132.633 141.482 137.149 140.449 137.966C139.971 138.339 124.349 150.232 123.802 149.966C122.466 151.024 114.205 148.084 112.669 147.333C111.976 146.997 93.5163 137.381 93.7362 136.643L93.7486 136.647Z"  stroke-width="0.345324" stroke-miterlimit="10"/>
<path d="M99.3422 132.347C97.7862 131.588 98.2344 125.638 98.724 123.975C98.948 123.22 101.18 113.72 100.496 113.326C100.956 111.754 98.5912 109.092 97.1721 108.275C96.3672 107.811 92.5623 104.755 93.0104 103.942C91.3383 102.976 93.8942 95.1178 94.8237 93.4259C95.251 92.6463 102.745 80.401 103.558 80.7618C104.446 79.1446 110.334 80.2103 112.018 80.9567C112.616 81.2221 121.437 84.7219 121.935 84.3031C123.171 84.8505 129.939 80.1896 130.976 79.3229C131.528 78.8585 143.374 69.5284 143.997 69.8933C145.146 68.9312 149.05 70.1213 150.345 70.876C150.797 71.1414 155.839 74.3593 155.913 74.8776C156.855 75.425 157.594 77.1086 157.743 78.1867C157.934 79.5593 159.809 81.6699 160.822 80.7203C161.22 83.5774 166.096 83.453 168.191 81.475C168.842 80.8613 172.801 78.0747 173.461 78.676C174.813 77.3988 176.921 77.3822 178.294 78.6387C178.626 78.9414 178.826 79.3644 178.846 79.8122C179.535 80.4425 180.207 86.4967 180.253 87.4297C180.274 87.8278 180.962 98.9618 181.232 99.2562C181.274 100.086 186.141 105.808 186.705 106.418C187.439 107.218 196.684 118.75 195.746 119.301C197.277 120.964 191.742 126.637 189.796 127.786C189.427 128.001 178.315 134.362 177.896 134.275C177.133 134.723 167.78 133.093 166.913 132.911C166.415 132.807 148.337 129.225 147.938 129.54C146.905 129.324 140.067 134.126 139.242 134.777C138.727 135.183 126.043 144.717 125.454 144.426C124.383 145.272 115.952 142.03 114.724 141.432C113.973 141.068 99.1057 133.151 99.3422 132.351V132.347Z"  stroke-width="0.345324" stroke-miterlimit="10"/>
<path d="M104.935 128.047C103.769 127.479 104.508 121.648 104.873 120.4C105.114 119.587 106.682 112.198 105.948 111.771C106.296 110.593 103.964 108.275 102.902 107.661C102.035 107.16 99.0891 104.535 99.5704 103.66C98.3173 102.934 101.263 95.1674 101.96 93.8985C102.421 93.0608 108.35 83.768 109.226 84.1578C109.89 82.947 115.587 84.3113 116.852 84.8711C117.495 85.1572 124.337 87.7489 124.873 87.301C125.802 87.7116 132.615 82.7604 133.395 82.1094C133.989 81.6117 143.129 74.5914 143.797 74.9811C144.656 74.2596 148.333 75.5866 149.303 76.1547C149.789 76.4408 153.673 79.0035 153.751 79.5591C154.457 79.9696 155.046 81.4749 155.158 82.2835C155.366 83.7639 157.316 85.5387 158.403 84.5103C158.702 86.6542 162.822 86.1234 164.394 84.6389C165.096 83.9754 168.394 81.8854 169.108 82.5323C170.12 81.5744 171.705 81.562 172.734 82.5033C173.091 82.8309 173.307 83.287 173.332 83.768C173.851 84.2408 174.436 90.4733 174.469 91.1741C174.49 91.6012 175.062 100.077 175.353 100.392C175.382 101.014 180.518 106.919 180.942 107.375C181.734 108.238 188.605 117.303 187.597 117.896C188.742 119.144 182.917 124.389 181.456 125.248C181.062 125.48 172.581 130.273 172.133 130.178C171.56 130.514 161.78 128.71 161.133 128.573C160.598 128.461 146.872 125.816 146.44 126.152C145.669 125.99 138.652 131.078 138.034 131.567C137.478 132.007 127.736 139.181 127.101 138.87C126.3 139.504 117.694 135.963 116.773 135.515C115.968 135.121 104.695 128.905 104.948 128.047H104.935Z"  stroke-width="0.345324" stroke-miterlimit="10"/>
<path d="M110.529 123.747C109.749 123.369 110.778 117.659 111.023 116.826C111.28 115.955 112.184 110.676 111.396 110.22C111.628 109.436 109.338 107.462 108.628 107.056C107.703 106.521 105.612 104.327 106.126 103.386C105.292 102.905 108.628 95.2213 109.089 94.3753C109.583 93.4796 113.952 87.1434 114.885 87.5581C115.329 86.7495 120.831 88.4165 121.674 88.7897C122.362 89.0924 127.225 90.7801 127.802 90.2991C128.42 90.5728 135.283 85.3272 135.802 84.8918C136.441 84.3569 142.872 79.6503 143.59 80.0691C144.163 79.5881 147.607 81.0519 148.254 81.4293C148.777 81.732 151.499 83.6436 151.582 84.2407C152.05 84.5144 152.486 85.8372 152.565 86.3763C152.785 87.9604 154.814 89.3993 155.976 88.3004C156.175 89.7269 159.54 88.7938 160.585 87.8028C161.337 87.0937 163.98 85.6962 164.739 86.3929C165.415 85.7543 166.469 85.746 167.158 86.3722C167.54 86.7205 167.772 87.2098 167.797 87.7281C168.141 88.0433 168.643 94.4541 168.668 94.9185C168.689 95.3788 169.141 101.193 169.452 101.533C169.473 101.947 174.876 108.035 175.158 108.341C176.008 109.266 180.506 115.864 179.423 116.498C180.187 117.327 174.062 122.146 173.087 122.718C172.664 122.967 166.822 126.193 166.341 126.094C165.959 126.317 155.756 124.34 155.324 124.244C154.752 124.124 145.374 122.411 144.914 122.776C144.399 122.668 137.209 128.043 136.794 128.37C136.2 128.839 129.4 133.653 128.719 133.321C128.184 133.744 119.408 129.9 118.794 129.602C117.931 129.179 110.251 124.667 110.52 123.742L110.529 123.747Z"  stroke-width="0.345324" stroke-miterlimit="10"/>
<path d="M116.122 119.447C115.732 119.256 117.052 113.67 117.176 113.251C117.45 112.323 117.691 109.154 116.853 108.665C116.969 108.271 114.716 106.646 114.359 106.442C113.371 105.87 112.139 104.108 112.687 103.104C112.268 102.864 115.994 95.2712 116.226 94.8483C116.753 93.8904 119.558 90.5149 120.558 90.9545C120.778 90.5523 126.089 92.5137 126.508 92.7003C127.242 93.0237 130.126 93.8033 130.74 93.2891C131.051 93.4259 137.96 87.8901 138.221 87.6703C138.902 87.1022 142.632 84.7012 143.395 85.1491C143.682 84.9086 146.893 86.5092 147.217 86.7C147.773 87.0234 149.337 88.2757 149.424 88.9143C149.661 89.0511 149.943 90.1915 149.98 90.461C150.217 92.1529 152.316 93.2518 153.561 92.0824C153.661 92.7956 156.266 91.4562 156.793 90.9586C157.594 90.2039 159.578 89.499 160.391 90.2413C160.727 89.922 161.258 89.9178 161.598 90.233C162.009 90.6062 162.25 91.1245 162.279 91.6802C162.453 91.8377 162.872 98.4269 162.88 98.6591C162.905 99.1484 163.233 102.304 163.565 102.665C163.573 102.872 169.245 109.142 169.386 109.295C170.291 110.278 172.415 114.412 171.266 115.093C171.648 115.507 165.225 119.894 164.739 120.181C164.287 120.446 161.084 122.109 160.569 121.997C160.378 122.109 149.752 119.952 149.536 119.907C148.926 119.778 143.897 119.003 143.408 119.389C143.151 119.335 135.786 124.995 135.578 125.161C134.943 125.663 131.085 128.117 130.358 127.765C130.093 127.976 121.143 123.834 120.84 123.685C119.919 123.237 115.832 120.421 116.122 119.438V119.447Z"  stroke-width="0.345324" stroke-miterlimit="10"/>
<path d="M156.76 95.6442L157.096 102.412C157.121 102.934 157.328 103.428 157.681 103.813L163.615 110.266C164.577 111.31 164.328 112.977 163.104 113.699L156.387 117.655C155.905 117.937 155.337 118.032 154.793 117.916L143.744 115.586C143.096 115.449 142.42 115.606 141.897 116.017L134.358 121.968C133.686 122.498 132.765 122.598 131.993 122.221L122.877 117.775C121.898 117.298 121.404 116.183 121.715 115.138L123.325 109.668C123.616 108.681 123.192 107.62 122.3 107.106L120.085 105.824C119.035 105.219 118.661 103.884 119.242 102.818L123.358 95.3125C123.914 94.2965 125.159 93.8735 126.221 94.3463L131.333 96.6104C132.113 96.9546 133.022 96.826 133.673 96.2786L140.632 90.4484C141.354 89.8429 142.379 89.7559 143.192 90.2327L146.171 91.9702C146.764 92.3144 147.163 92.9115 147.258 93.5916L147.391 94.5536C147.64 96.3491 149.818 97.1163 151.138 95.8681L152.988 94.1182C153.839 93.3137 155.167 93.3054 156.03 94.0933C156.465 94.4914 156.723 95.0429 156.752 95.6318L156.76 95.6442Z"  stroke-width="0.345324" stroke-miterlimit="10"/>
</g>
<defs>
<clipPath id="clip0_307_452">
<rect width="306" height="220" fill="white"/>
</clipPath>
</defs>
</svg>
