<svg width="348" height="185" viewBox="0 0 348 185" fill="none" xmlns="http://www.w3.org/2000/svg" stroke="white">
<path d="M1.81633 12.7964L0.538086 11.5184L17.7583 10.3682L19.9351 11.5184L1.81633 12.7964Z"  stroke-width="0.368188" stroke-miterlimit="10"/>
<path d="M3.25516 14.2273L1.82031 12.7927L19.9351 11.5146L22.3712 12.8009L3.25516 14.2273Z"  stroke-width="0.368188" stroke-miterlimit="10"/>
<path d="M19.9356 11.5188L17.7588 10.3686L33.4492 9.31738L36.3639 10.3563L19.9356 11.5188Z"  stroke-width="0.368188" stroke-miterlimit="10"/>
<path d="M22.3707 12.8007L19.9346 11.5144L36.3629 10.356L39.6034 11.5103L22.3707 12.8007Z"  stroke-width="0.368188" stroke-miterlimit="10"/>
<path d="M36.3259 10.3603L33.4111 9.3214L47.7786 8.36084L51.2908 9.30491L36.3259 10.3603Z"  stroke-width="0.368188" stroke-miterlimit="10"/>
<path d="M39.5664 11.5146L36.3223 10.3562L51.2872 9.30078L55.1831 10.3479L39.5664 11.5146Z"  stroke-width="0.368188" stroke-miterlimit="10"/>
<path d="M51.2915 9.30482L47.7793 8.36075L60.9716 7.47852L64.9826 8.34013L51.2915 9.30482Z"  stroke-width="0.368188" stroke-miterlimit="10"/>
<path d="M55.183 10.3478L51.2871 9.30062L64.9742 8.33594L69.3934 9.28825L55.183 10.3478Z"  stroke-width="0.368188" stroke-miterlimit="10"/>
<path d="M4.87948 15.8556L3.25098 14.2272L22.3674 12.8008L25.1131 14.2478L4.87948 15.8556Z"  stroke-width="0.368188" stroke-miterlimit="10"/>
<path d="M6.7435 17.7149L4.87988 15.8515L25.1095 14.2437L28.222 15.8886L6.7435 17.7149Z"  stroke-width="0.368188" stroke-miterlimit="10"/>
<path d="M25.1129 14.2479L22.3672 12.8009L39.5995 11.5146L43.2317 12.8091L25.1129 14.2479Z"  stroke-width="0.368188" stroke-miterlimit="10"/>
<path d="M28.2209 15.8884L25.1084 14.2435L43.2272 12.8047L47.3168 14.2641L28.2209 15.8884Z"  stroke-width="0.368188" stroke-miterlimit="10"/>
<path d="M43.1864 12.813L39.5586 11.5143L55.1749 10.3477L59.512 11.5143L43.1864 12.813Z"  stroke-width="0.368188" stroke-miterlimit="10"/>
<path d="M47.2712 14.2683L43.1816 12.8089L59.5029 11.5103L64.3594 12.8171L47.2712 14.2683Z"  stroke-width="0.368188" stroke-miterlimit="10"/>
<path d="M59.511 11.5143L55.1738 10.3476L69.3887 9.28809L74.2903 10.3393L59.511 11.5143Z"  stroke-width="0.368188" stroke-miterlimit="10"/>
<path d="M64.3604 12.8172L59.5039 11.5104L74.2836 10.3354L79.7376 11.5104L64.3604 12.8172Z"  stroke-width="0.368188" stroke-miterlimit="10"/>
<path d="M64.9445 8.33978L60.9375 7.47816L73.1031 6.66602L77.5144 7.45343L64.9445 8.33978Z"  stroke-width="0.368188" stroke-miterlimit="10"/>
<path d="M69.3607 9.28838L64.9414 8.34019L77.5068 7.44971L82.3549 8.31957L69.3607 9.28838Z"  stroke-width="0.368188" stroke-miterlimit="10"/>
<path d="M77.5148 7.45396L73.1035 6.66654L84.35 5.91211L89.095 6.63768L77.5148 7.45396Z"  stroke-width="0.368188" stroke-miterlimit="10"/>
<path d="M82.3549 8.31943L77.5068 7.44957L89.0871 6.6333L94.2818 7.42484L82.3549 8.31943Z"  stroke-width="0.368188" stroke-miterlimit="10"/>
<path d="M89.0702 6.63713L84.3252 5.91568L94.7597 5.21484L99.7768 5.88271L89.0702 6.63713Z"  stroke-width="0.368188" stroke-miterlimit="10"/>
<path d="M94.2528 7.42878L89.0625 6.63724L99.7647 5.88281L105.235 6.60838L94.2528 7.42878Z"  stroke-width="0.368188" stroke-miterlimit="10"/>
<path d="M99.7769 5.88298L94.7598 5.21511L104.46 4.56787L109.7 5.18213L99.7769 5.88298Z"  stroke-width="0.368188" stroke-miterlimit="10"/>
<path d="M105.235 6.60854L99.7646 5.88297L109.688 5.18213L115.385 5.84999L105.235 6.60854Z"  stroke-width="0.368188" stroke-miterlimit="10"/>
<path d="M74.254 10.3435L69.3564 9.28814L82.3506 8.31934L87.6975 9.27165L74.254 10.3435Z"  stroke-width="0.368188" stroke-miterlimit="10"/>
<path d="M79.6995 11.5147L74.2451 10.3397L87.689 9.27197L93.6172 10.3315L79.6995 11.5147Z"  stroke-width="0.368188" stroke-miterlimit="10"/>
<path d="M87.6975 9.27172L82.3506 8.3194L94.2775 7.4248L99.9831 8.29879L87.6975 9.27172Z"  stroke-width="0.368188" stroke-miterlimit="10"/>
<path d="M93.6177 10.331L87.6895 9.27148L99.9706 8.29443L106.266 9.255L93.6177 10.331Z"  stroke-width="0.368188" stroke-miterlimit="10"/>
<path d="M99.9536 8.29865L94.248 7.42879L105.23 6.6084L111.221 7.40405L99.9536 8.29865Z"  stroke-width="0.368188" stroke-miterlimit="10"/>
<path d="M106.242 9.25918L99.9424 8.29862L111.209 7.3999L117.793 8.27389L106.242 9.25918Z"  stroke-width="0.368188" stroke-miterlimit="10"/>
<path d="M111.222 7.40431L105.231 6.60865L115.381 5.8501L121.594 6.57979L111.222 7.40431Z"  stroke-width="0.368188" stroke-miterlimit="10"/>
<path d="M117.792 8.27418L111.208 7.4002L121.576 6.57568L128.383 7.37547L117.792 8.27418Z"  stroke-width="0.368188" stroke-miterlimit="10"/>
<path d="M8.88515 19.8628L6.7373 17.715L28.2202 15.8887L31.782 17.7686L8.88515 19.8628Z"  stroke-width="0.368188" stroke-miterlimit="10"/>
<path d="M11.3923 22.3608L8.88574 19.8584L31.7785 17.7642L35.8931 19.9368L11.3923 22.3608Z"  stroke-width="0.368188" stroke-miterlimit="10"/>
<path d="M31.7834 17.7681L28.2217 15.8882L47.3176 14.2681L51.9636 15.9253L31.7834 17.7681Z"  stroke-width="0.368188" stroke-miterlimit="10"/>
<path d="M35.8938 19.9368L31.7793 17.7642L51.9554 15.9214L57.2777 17.8219L35.8938 19.9368Z"  stroke-width="0.368188" stroke-miterlimit="10"/>
<path d="M51.9134 15.9299L47.2715 14.2727L64.3597 12.8174L69.8386 14.2933L51.9134 15.9299Z"  stroke-width="0.368188" stroke-miterlimit="10"/>
<path d="M57.2284 17.8262L51.9102 15.9257L69.8309 14.2891L76.0562 15.9628L57.2284 17.8262Z"  stroke-width="0.368188" stroke-miterlimit="10"/>
<path d="M69.8383 14.293L64.3594 12.8171L79.7405 11.5103L85.8628 12.8295L69.8383 14.293Z"  stroke-width="0.368188" stroke-miterlimit="10"/>
<path d="M76.0554 15.9625L69.8301 14.2887L85.8506 12.8252L92.7599 14.3093L76.0554 15.9625Z"  stroke-width="0.368188" stroke-miterlimit="10"/>
<path d="M14.3446 25.3206L11.3848 22.3606L35.8851 19.9365L40.6921 22.476L14.3446 25.3206Z"  stroke-width="0.368188" stroke-miterlimit="10"/>
<path d="M17.8984 28.8665L14.3447 25.3129L40.6882 22.4683L46.3773 25.4695L17.8984 28.8665Z"  stroke-width="0.368188" stroke-miterlimit="10"/>
<path d="M40.6918 22.4762L35.8848 19.9367L57.2686 17.8218L63.4235 20.0191L40.6918 22.4762Z"  stroke-width="0.368188" stroke-miterlimit="10"/>
<path d="M46.3776 25.4695L40.6885 22.4683L63.4162 20.0112L70.6183 22.5837L46.3776 25.4695Z"  stroke-width="0.368188" stroke-miterlimit="10"/>
<path d="M63.3736 20.0236L57.2188 17.8263L76.0506 15.9629L83.191 17.884L63.3736 20.0236Z"  stroke-width="0.368188" stroke-miterlimit="10"/>
<path d="M70.5643 22.5917L63.3623 20.0192L83.1793 17.8755L91.4494 20.1017L70.5643 22.5917Z"  stroke-width="0.368188" stroke-miterlimit="10"/>
<path d="M83.1922 17.8838L76.0518 15.9627L92.7567 14.3096L100.619 15.9998L83.1922 17.8838Z"  stroke-width="0.368188" stroke-miterlimit="10"/>
<path d="M91.4488 20.1017L83.1787 17.8755L100.601 15.9956L109.625 17.9332L91.4488 20.1017Z"  stroke-width="0.368188" stroke-miterlimit="10"/>
<path d="M85.8219 12.8293L79.7041 11.5142L93.6218 10.3311L100.234 11.5142L85.8219 12.8293Z"  stroke-width="0.368188" stroke-miterlimit="10"/>
<path d="M92.7199 14.3136L85.8105 12.8254L100.219 11.5103L107.639 12.8336L92.7199 14.3136Z"  stroke-width="0.368188" stroke-miterlimit="10"/>
<path d="M100.234 11.5145L93.6211 10.3314L106.273 9.25537L113.261 10.3231L100.234 11.5145Z"  stroke-width="0.368188" stroke-miterlimit="10"/>
<path d="M107.638 12.8336L100.218 11.5103L113.245 10.3188L121.045 11.5103L107.638 12.8336Z"  stroke-width="0.368188" stroke-miterlimit="10"/>
<path d="M113.233 10.3272L106.245 9.25949L117.797 8.27832L125.069 9.243L113.233 10.3272Z"  stroke-width="0.368188" stroke-miterlimit="10"/>
<path d="M121.017 11.5103L113.217 10.323L125.057 9.23877L133.129 10.3148L121.017 11.5103Z"  stroke-width="0.368188" stroke-miterlimit="10"/>
<path d="M125.07 9.24302L117.798 8.27833L128.389 7.37549L135.875 8.25772L125.07 9.24302Z"  stroke-width="0.368188" stroke-miterlimit="10"/>
<path d="M133.129 10.3147L125.057 9.23871L135.858 8.25342L144.128 9.22222L133.129 10.3147Z"  stroke-width="0.368188" stroke-miterlimit="10"/>
<path d="M100.572 16.004L92.71 14.3138L107.634 12.8379L116.015 14.3344L100.572 16.004Z"  stroke-width="0.368188" stroke-miterlimit="10"/>
<path d="M109.58 17.9373L100.556 15.9997L115.999 14.3301L125.547 16.0368L109.58 17.9373Z"  stroke-width="0.368188" stroke-miterlimit="10"/>
<path d="M116.015 14.3342L107.634 12.8377L121.041 11.5103L129.797 12.846L116.015 14.3342Z"  stroke-width="0.368188" stroke-miterlimit="10"/>
<path d="M125.547 16.0368L115.999 14.33L129.781 12.8418L139.683 14.3507L125.547 16.0368Z"  stroke-width="0.368188" stroke-miterlimit="10"/>
<path d="M129.769 12.8498L121.013 11.5141L133.125 10.3145L142.145 11.51L129.769 12.8498Z"  stroke-width="0.368188" stroke-miterlimit="10"/>
<path d="M139.655 14.355L129.748 12.8462L142.124 11.5063L152.258 12.8544L139.655 14.355Z"  stroke-width="0.368188" stroke-miterlimit="10"/>
<path d="M142.145 11.5105L133.125 10.3149L144.124 9.22656L153.318 10.3026L142.145 11.5105Z"  stroke-width="0.368188" stroke-miterlimit="10"/>
<path d="M152.257 12.8541L142.124 11.506L153.292 10.3022L163.565 11.506L152.257 12.8541Z"  stroke-width="0.368188" stroke-miterlimit="10"/>
<path d="M22.2304 33.2117L17.8896 28.8706L46.3725 25.4736L53.2158 29.0891L22.2304 33.2117Z"  stroke-width="0.368188" stroke-miterlimit="10"/>
<path d="M27.6568 38.6204L22.2314 33.1992L53.2088 29.0767L61.59 33.5002L27.6568 38.6204Z"  stroke-width="0.368188" stroke-miterlimit="10"/>
<path d="M53.2164 29.0889L46.373 25.4734L70.6137 22.5835L79.1556 25.6342L53.2164 29.0889Z"  stroke-width="0.368188" stroke-miterlimit="10"/>
<path d="M61.5892 33.5001L53.208 29.0766L79.1428 25.626L89.4332 29.2992L61.5892 33.5001Z"  stroke-width="0.368188" stroke-miterlimit="10"/>
<path d="M79.1024 25.6423L70.5605 22.5916L91.4496 20.1016L101.146 22.7112L79.1024 25.6423Z"  stroke-width="0.368188" stroke-miterlimit="10"/>
<path d="M89.3759 29.3116L79.0859 25.6343L101.125 22.7031L112.639 25.7992L89.3759 29.3116Z"  stroke-width="0.368188" stroke-miterlimit="10"/>
<path d="M101.145 22.7115L91.4492 20.1019L109.63 17.9375L120.097 20.1884L101.145 22.7115Z"  stroke-width="0.368188" stroke-miterlimit="10"/>
<path d="M112.638 25.7993L101.124 22.7032L120.075 20.1802L132.365 22.8228L112.638 25.7993Z"  stroke-width="0.368188" stroke-miterlimit="10"/>
<path d="M34.6189 45.6L27.6436 38.6246L61.5808 33.5044L72.0933 39.0534L34.6189 45.6Z"  stroke-width="0.368188" stroke-miterlimit="10"/>
<path d="M43.9116 54.8715L34.6152 45.575L72.0731 39.0366L85.6362 46.1934L43.9116 54.8715Z"  stroke-width="0.368188" stroke-miterlimit="10"/>
<path d="M72.0946 39.0533L61.582 33.5044L89.426 29.2993L102.07 33.8135L72.0946 39.0533Z"  stroke-width="0.368188" stroke-miterlimit="10"/>
<path d="M85.6363 46.1937L72.0732 39.0369L102.044 33.8013L117.945 39.4781L85.6363 46.1937Z"  stroke-width="0.368188" stroke-miterlimit="10"/>
<path d="M102.007 33.8301L89.3672 29.3118L112.635 25.7993L126.544 29.5426L102.007 33.8301Z"  stroke-width="0.368188" stroke-miterlimit="10"/>
<path d="M117.879 39.4946L101.979 33.8136L126.512 29.5303L143.641 34.1352L117.879 39.4946Z"  stroke-width="0.368188" stroke-miterlimit="10"/>
<path d="M126.545 29.5421L112.636 25.7988L132.358 22.8223L146.989 25.9678L126.545 29.5421Z"  stroke-width="0.368188" stroke-miterlimit="10"/>
<path d="M143.641 34.135L126.512 29.5301L146.956 25.96L164.662 29.7651L143.641 34.135Z"  stroke-width="0.368188" stroke-miterlimit="10"/>
<path d="M120.052 20.1922L109.58 17.9413L125.551 16.0366L136.529 17.999L120.052 20.1922Z"  stroke-width="0.368188" stroke-miterlimit="10"/>
<path d="M132.316 22.8268L120.026 20.1842L136.504 17.9951L149.255 20.2708L132.316 22.8268Z"  stroke-width="0.368188" stroke-miterlimit="10"/>
<path d="M136.53 17.9993L125.552 16.037L139.688 14.355L150.984 16.0741L136.53 17.9993Z"  stroke-width="0.368188" stroke-miterlimit="10"/>
<path d="M149.256 20.2707L136.505 17.9951L150.958 16.0698L163.957 18.0528L149.256 20.2707Z"  stroke-width="0.368188" stroke-miterlimit="10"/>
<path d="M150.954 16.0825L139.658 14.3592L152.261 12.8545L163.738 14.3798L150.954 16.0825Z"  stroke-width="0.368188" stroke-miterlimit="10"/>
<path d="M163.928 18.0611L150.93 16.074L163.714 14.3755L176.811 16.1152L163.928 18.0611Z"  stroke-width="0.368188" stroke-miterlimit="10"/>
<path d="M163.739 14.3798L152.262 12.8544L163.57 11.5063L175.126 12.8627L163.739 14.3798Z"  stroke-width="0.368188" stroke-miterlimit="10"/>
<path d="M176.811 16.1152L163.714 14.3755L175.1 12.8584L188.194 14.3961L176.811 16.1152Z"  stroke-width="0.368188" stroke-miterlimit="10"/>
<path d="M146.939 25.9764L132.309 22.8309L149.252 20.2749L164.246 22.9505L146.939 25.9764Z"  stroke-width="0.368188" stroke-miterlimit="10"/>
<path d="M164.609 29.7735L146.906 25.9684L164.209 22.9424L182.089 26.1374L164.609 29.7735Z"  stroke-width="0.368188" stroke-miterlimit="10"/>
<path d="M164.246 22.9504L149.252 20.2748L163.953 18.0527L179.079 20.3614L164.246 22.9504Z"  stroke-width="0.368188" stroke-miterlimit="10"/>
<path d="M182.089 26.1375L164.209 22.9425L179.042 20.3535L196.847 23.0703L182.089 26.1375Z"  stroke-width="0.368188" stroke-miterlimit="10"/>
<path d="M179.05 20.3656L163.924 18.0611L176.811 16.1152L191.908 18.1188L179.05 20.3656Z"  stroke-width="0.368188" stroke-miterlimit="10"/>
<path d="M196.818 23.0783L179.013 20.3616L191.871 18.1147L209.454 20.4523L196.818 23.0783Z"  stroke-width="0.368188" stroke-miterlimit="10"/>
<path d="M191.907 18.1187L176.811 16.1151L188.189 14.396L203.158 16.1563L191.907 18.1187Z"  stroke-width="0.368188" stroke-miterlimit="10"/>
<path d="M209.454 20.4519L191.871 18.1144L203.122 16.1479L220.387 18.1763L209.454 20.4519Z"  stroke-width="0.368188" stroke-miterlimit="10"/>
<path d="M56.9314 67.9073L43.9082 54.8882L85.6453 46.2061L103.834 55.8117L56.9314 67.9073Z"  stroke-width="0.368188" stroke-miterlimit="10"/>
<path d="M76.4225 87.3743L56.9062 67.8662L103.792 55.7788L129.427 69.3091L76.4225 87.3743Z"  stroke-width="0.368188" stroke-miterlimit="10"/>
<path d="M103.833 55.8117L85.6445 46.2061L117.957 39.4863L138.574 46.8493L103.833 55.8117Z"  stroke-width="0.368188" stroke-miterlimit="10"/>
<path d="M129.427 69.3088L103.793 55.7785L138.526 46.8242L166.3 56.739L129.427 69.3088Z"  stroke-width="0.368188" stroke-miterlimit="10"/>
<path d="M138.509 46.87L117.892 39.5029L143.658 34.1436L165.293 39.9605L138.509 46.87Z"  stroke-width="0.368188" stroke-miterlimit="10"/>
<path d="M166.232 56.7681L138.459 46.845L165.239 39.9438L193.388 47.5129L166.232 56.7681Z"  stroke-width="0.368188" stroke-miterlimit="10"/>
<path d="M165.293 39.9603L143.657 34.1434L164.678 29.7734L186.557 34.4732L165.293 39.9603Z"  stroke-width="0.368188" stroke-miterlimit="10"/>
<path d="M193.388 47.513L165.239 39.944L186.504 34.4609L214.203 40.4139L193.388 47.513Z"  stroke-width="0.368188" stroke-miterlimit="10"/>
<path d="M108.925 119.905L76.4023 87.3823L129.411 69.313L168.27 89.8311L108.925 119.905Z"  stroke-width="0.368188" stroke-miterlimit="10"/>
<path d="M173.753 184.675L108.843 119.782L168.163 89.7568L233.959 124.49L173.753 184.675Z"  stroke-width="0.368188" stroke-miterlimit="10"/>
<path d="M168.27 89.831L129.41 69.3129L166.291 56.7432L205.756 70.8341L168.27 89.831Z"  stroke-width="0.368188" stroke-miterlimit="10"/>
<path d="M233.958 124.49L168.162 89.7568L205.649 70.7847L266.094 92.3623L233.958 124.49Z"  stroke-width="0.368188" stroke-miterlimit="10"/>
<path d="M205.694 70.8754L166.221 56.772L193.38 47.5127L231.543 57.7779L205.694 70.8754Z"  stroke-width="0.368188" stroke-miterlimit="10"/>
<path d="M266.058 92.4325L205.588 70.8302L231.436 57.7451L286.06 72.4339L266.058 92.4325Z"  stroke-width="0.368188" stroke-miterlimit="10"/>
<path d="M231.543 57.7782L193.38 47.5129L214.199 40.418L250.428 48.2055L231.543 57.7782Z"  stroke-width="0.368188" stroke-miterlimit="10"/>
<path d="M286.059 72.4338L231.435 57.745L250.328 48.1807L299.696 58.7922L286.059 72.4338Z"  stroke-width="0.368188" stroke-miterlimit="10"/>
<path d="M186.504 34.4855L164.625 29.7816L182.109 26.1455L203.81 30.0207L186.504 34.4855Z"  stroke-width="0.368188" stroke-miterlimit="10"/>
<path d="M214.15 40.4302L186.45 34.4689L203.753 30.0083L230.628 34.8111L214.15 40.4302Z"  stroke-width="0.368188" stroke-miterlimit="10"/>
<path d="M203.81 30.0208L182.109 26.1455L196.868 23.0742L218.157 26.3228L203.81 30.0208Z"  stroke-width="0.368188" stroke-miterlimit="10"/>
<path d="M230.627 34.8113L203.752 30.0085L218.102 26.3105L243.984 30.26L230.627 34.8113Z"  stroke-width="0.368188" stroke-miterlimit="10"/>
<path d="M218.132 26.331L196.839 23.0824L209.475 20.4521L230.228 23.2102L218.132 26.331Z"  stroke-width="0.368188" stroke-miterlimit="10"/>
<path d="M243.964 30.2683L218.078 26.3188L230.174 23.2021L255.016 26.5002L243.964 30.2683Z"  stroke-width="0.368188" stroke-miterlimit="10"/>
<path d="M230.229 23.2102L209.476 20.4522L220.408 18.1807L240.556 20.547L230.229 23.2102Z"  stroke-width="0.368188" stroke-miterlimit="10"/>
<path d="M255.016 26.5003L230.174 23.2022L240.505 20.5391L264.313 23.3342L255.016 26.5003Z"  stroke-width="0.368188" stroke-miterlimit="10"/>
<path d="M250.374 48.2221L214.141 40.4304L230.618 34.8154L264.786 40.921L250.374 48.2221Z"  stroke-width="0.368188" stroke-miterlimit="10"/>
<path d="M299.652 58.8166L250.275 48.1969L264.696 40.8999L309.554 48.9142L299.652 58.8166Z"  stroke-width="0.368188" stroke-miterlimit="10"/>
<path d="M264.788 40.9208L230.62 34.8152L243.981 30.2598L276.142 35.1656L264.788 40.9208Z"  stroke-width="0.368188" stroke-miterlimit="10"/>
<path d="M309.554 48.9147L264.696 40.9004L276.054 35.1494L317.07 41.4034L309.554 48.9147Z"  stroke-width="0.368188" stroke-miterlimit="10"/>
<path d="M276.129 35.1778L243.96 30.272L255.013 26.5039L285.31 30.5275L276.129 35.1778Z"  stroke-width="0.368188" stroke-miterlimit="10"/>
<path d="M317.069 41.424L276.041 35.1659L285.226 30.5156L322.964 35.5246L317.069 41.424Z"  stroke-width="0.368188" stroke-miterlimit="10"/>
<path d="M285.31 30.5279L255.013 26.5042L264.309 23.334L292.883 26.6898L285.31 30.5279Z"  stroke-width="0.368188" stroke-miterlimit="10"/>
<path d="M322.965 35.5243L285.227 30.5154L292.804 26.6772L327.714 30.7751L322.965 35.5243Z"  stroke-width="0.368188" stroke-miterlimit="10"/>
<path d="M109.704 5.18219L104.464 4.56793L113.509 3.96191L118.93 4.53083L109.704 5.18219Z"  stroke-width="0.368188" stroke-miterlimit="10"/>
<path d="M115.385 5.84999L109.691 5.18213L118.918 4.53076L124.788 5.14503L115.385 5.84999Z"  stroke-width="0.368188" stroke-miterlimit="10"/>
<path d="M118.93 4.53068L113.509 3.96177L121.964 3.39697L127.526 3.92467L118.93 4.53068Z"  stroke-width="0.368188" stroke-miterlimit="10"/>
<path d="M124.789 5.14508L118.918 4.53082L127.513 3.9248L133.524 4.49372L124.789 5.14508Z"  stroke-width="0.368188" stroke-miterlimit="10"/>
<path d="M127.506 3.92453L121.944 3.39683L129.864 2.86914L135.541 3.35973L127.506 3.92453Z"  stroke-width="0.368188" stroke-miterlimit="10"/>
<path d="M133.508 4.49357L127.497 3.92466L135.528 3.35986L141.65 3.88755L133.508 4.49357Z"  stroke-width="0.368188" stroke-miterlimit="10"/>
<path d="M135.54 3.36002L129.863 2.86943L137.296 2.37061L143.064 2.82821L135.54 3.36002Z"  stroke-width="0.368188" stroke-miterlimit="10"/>
<path d="M141.649 3.88762L135.527 3.35994L143.051 2.82812L149.251 3.31871L141.649 3.88762Z"  stroke-width="0.368188" stroke-miterlimit="10"/>
<path d="M121.594 6.57968L115.385 5.84998L124.785 5.14502L131.17 5.817L121.594 6.57968Z"  stroke-width="0.368188" stroke-miterlimit="10"/>
<path d="M128.383 7.37523L121.581 6.57545L131.158 5.81689L138.125 6.54659L128.383 7.37523Z"  stroke-width="0.368188" stroke-miterlimit="10"/>
<path d="M131.17 5.817L124.784 5.14502L133.524 4.49365L140.042 5.11204L131.17 5.817Z"  stroke-width="0.368188" stroke-miterlimit="10"/>
<path d="M138.124 6.54696L131.157 5.81727L140.029 5.1123L147.12 5.78429L138.124 6.54696Z"  stroke-width="0.368188" stroke-miterlimit="10"/>
<path d="M140.022 5.11623L133.504 4.49784L141.646 3.8877L148.263 4.46073L140.022 5.11623Z"  stroke-width="0.368188" stroke-miterlimit="10"/>
<path d="M147.101 5.78401L140.01 5.11203L148.251 4.45654L155.428 5.07905L147.101 5.78401Z"  stroke-width="0.368188" stroke-miterlimit="10"/>
<path d="M148.262 4.4608L141.646 3.88776L149.252 3.31885L155.938 3.85066L148.262 4.4608Z"  stroke-width="0.368188" stroke-miterlimit="10"/>
<path d="M155.427 5.07933L148.25 4.45682L155.922 3.84668L163.157 4.41972L155.427 5.07933Z"  stroke-width="0.368188" stroke-miterlimit="10"/>
<path d="M143.044 2.83237L137.276 2.37476L144.268 1.90479L150.101 2.33354L143.044 2.83237Z"  stroke-width="0.368188" stroke-miterlimit="10"/>
<path d="M149.231 3.31852L143.03 2.82794L150.088 2.3291L156.35 2.78671L149.231 3.31852Z"  stroke-width="0.368188" stroke-miterlimit="10"/>
<path d="M150.102 2.33373L144.269 1.90498L150.852 1.46387L156.739 1.86376L150.102 2.33373Z"  stroke-width="0.368188" stroke-miterlimit="10"/>
<path d="M156.351 2.78674L150.089 2.32913L156.726 1.86328L163.03 2.28791L156.351 2.78674Z"  stroke-width="0.368188" stroke-miterlimit="10"/>
<path d="M156.726 1.86342L150.839 1.46765L157.056 1.05127L162.976 1.4223L156.726 1.86342Z"  stroke-width="0.368188" stroke-miterlimit="10"/>
<path d="M163.013 2.29223L156.71 1.86348L162.964 1.42236L169.292 1.82225L163.013 2.29223Z"  stroke-width="0.368188" stroke-miterlimit="10"/>
<path d="M162.976 1.42235L157.056 1.05132L162.93 0.659668L168.875 1.00597L162.976 1.42235Z"  stroke-width="0.368188" stroke-miterlimit="10"/>
<path d="M169.292 1.82213L162.964 1.42224L168.864 1.00586L175.2 1.38101L169.292 1.82213Z"  stroke-width="0.368188" stroke-miterlimit="10"/>
<path d="M155.918 3.85074L149.231 3.31893L156.347 2.78711L163.087 3.28182L155.918 3.85074Z"  stroke-width="0.368188" stroke-miterlimit="10"/>
<path d="M163.137 4.42342L155.902 3.85038L163.071 3.27734L170.335 3.80915L163.137 4.42342Z"  stroke-width="0.368188" stroke-miterlimit="10"/>
<path d="M163.088 3.28162L156.348 2.78691L163.026 2.28809L169.792 2.74569L163.088 3.28162Z"  stroke-width="0.368188" stroke-miterlimit="10"/>
<path d="M170.334 3.80923L163.07 3.27742L169.774 2.74561L177.054 3.24031L170.334 3.80923Z"  stroke-width="0.368188" stroke-miterlimit="10"/>
<path d="M169.779 2.74985L163.014 2.29224L169.288 1.82227L176.07 2.25101L169.779 2.74985Z"  stroke-width="0.368188" stroke-miterlimit="10"/>
<path d="M177.042 3.24061L169.762 2.74591L176.053 2.24707L183.329 2.70468L177.042 3.24061Z"  stroke-width="0.368188" stroke-miterlimit="10"/>
<path d="M176.069 2.25121L169.287 1.82247L175.199 1.38135L181.977 1.78124L176.069 2.25121Z"  stroke-width="0.368188" stroke-miterlimit="10"/>
<path d="M183.329 2.70444L176.053 2.24683L181.96 1.77686L189.224 2.2056L183.329 2.70444Z"  stroke-width="0.368188" stroke-miterlimit="10"/>
<path d="M135.874 8.25363L128.392 7.37552L138.133 6.54688L145.772 7.35078L135.874 8.25363Z"  stroke-width="0.368188" stroke-miterlimit="10"/>
<path d="M144.133 9.22245L135.858 8.25365L145.753 7.34668L154.159 8.23304L144.133 9.22245Z"  stroke-width="0.368188" stroke-miterlimit="10"/>
<path d="M145.773 7.35076L138.134 6.54685L147.125 5.78418L154.871 6.518L145.773 7.35076Z"  stroke-width="0.368188" stroke-miterlimit="10"/>
<path d="M154.158 8.23257L145.752 7.34621L154.851 6.51758L163.339 7.32148L154.158 8.23257Z"  stroke-width="0.368188" stroke-miterlimit="10"/>
<path d="M154.851 6.522L147.104 5.78819L155.432 5.0791L163.244 5.7552L154.851 6.522Z"  stroke-width="0.368188" stroke-miterlimit="10"/>
<path d="M163.322 7.32581L154.834 6.51778L163.228 5.75098L171.761 6.48892L163.322 7.32581Z"  stroke-width="0.368188" stroke-miterlimit="10"/>
<path d="M163.244 5.75515L155.432 5.07904L163.166 4.41943L171.015 5.04194L163.244 5.75515Z"  stroke-width="0.368188" stroke-miterlimit="10"/>
<path d="M171.761 6.48902L163.228 5.75108L170.998 5.04199L179.544 5.7181L171.761 6.48902Z"  stroke-width="0.368188" stroke-miterlimit="10"/>
<path d="M153.317 10.3024L144.128 9.22233L154.154 8.23291L163.45 9.20584L153.317 10.3024Z"  stroke-width="0.368188" stroke-miterlimit="10"/>
<path d="M163.565 11.506L153.296 10.298L163.429 9.20557L173.765 10.2898L163.565 11.506Z"  stroke-width="0.368188" stroke-miterlimit="10"/>
<path d="M163.45 9.2058L154.153 8.23287L163.339 7.32178L172.688 8.20814L163.45 9.2058Z"  stroke-width="0.368188" stroke-miterlimit="10"/>
<path d="M173.765 10.2899L163.43 9.20567L172.664 8.20801L183.012 9.18918L173.765 10.2899Z"  stroke-width="0.368188" stroke-miterlimit="10"/>
<path d="M172.668 8.2125L163.318 7.32615L171.761 6.48926L181.124 7.29729L172.668 8.2125Z"  stroke-width="0.368188" stroke-miterlimit="10"/>
<path d="M182.991 9.18914L172.647 8.20797L181.099 7.29688L191.413 8.18735L182.991 9.18914Z"  stroke-width="0.368188" stroke-miterlimit="10"/>
<path d="M181.123 7.29721L171.761 6.48918L179.544 5.71826L188.886 6.46033L181.123 7.29721Z"  stroke-width="0.368188" stroke-miterlimit="10"/>
<path d="M191.412 8.18754L181.098 7.29706L188.865 6.45605L199.117 7.2682L191.412 8.18754Z"  stroke-width="0.368188" stroke-miterlimit="10"/>
<path d="M170.995 5.04634L163.146 4.42384L170.344 3.80957L178.209 4.38674L170.995 5.04634Z"  stroke-width="0.368188" stroke-miterlimit="10"/>
<path d="M179.523 5.72216L170.978 5.04194L178.188 4.38232L186.726 5.00896L179.523 5.72216Z"  stroke-width="0.368188" stroke-miterlimit="10"/>
<path d="M178.209 4.38631L170.343 3.80915L177.062 3.24023L184.92 3.77204L178.209 4.38631Z"  stroke-width="0.368188" stroke-miterlimit="10"/>
<path d="M186.727 5.00875L178.188 4.38211L184.904 3.77197L193.409 4.34501L186.727 5.00875Z"  stroke-width="0.368188" stroke-miterlimit="10"/>
<path d="M184.909 3.77212L177.051 3.24031L183.338 2.7085L191.175 3.19908L184.909 3.77212Z"  stroke-width="0.368188" stroke-miterlimit="10"/>
<path d="M193.397 4.34942L184.893 3.77226L191.155 3.19922L199.614 3.73104L193.397 4.34942Z"  stroke-width="0.368188" stroke-miterlimit="10"/>
<path d="M191.174 3.19911L183.337 2.70852L189.228 2.20557L197.028 2.6673L191.174 3.19911Z"  stroke-width="0.368188" stroke-miterlimit="10"/>
<path d="M199.613 3.73084L191.153 3.19902L197.011 2.66309L205.409 3.1578L199.613 3.73084Z"  stroke-width="0.368188" stroke-miterlimit="10"/>
<path d="M188.865 6.45994L179.523 5.72199L186.726 5.00879L196.022 5.68489L188.865 6.45994Z"  stroke-width="0.368188" stroke-miterlimit="10"/>
<path d="M199.099 7.27225L188.846 6.46011L196.003 5.68506L206.173 6.42712L199.099 7.27225Z"  stroke-width="0.368188" stroke-miterlimit="10"/>
<path d="M196.023 5.68505L186.727 5.00895L193.405 4.34521L202.644 4.97185L196.023 5.68505Z"  stroke-width="0.368188" stroke-miterlimit="10"/>
<path d="M206.172 6.42716L196.002 5.6851L202.623 4.96777L212.69 5.65212L206.172 6.42716Z"  stroke-width="0.368188" stroke-miterlimit="10"/>
<path d="M202.631 4.97185L193.393 4.34934L199.609 3.73096L208.77 4.30812L202.631 4.97185Z"  stroke-width="0.368188" stroke-miterlimit="10"/>
<path d="M212.678 5.65206L202.61 4.97184L208.749 4.30811L218.701 4.93474L212.678 5.65206Z"  stroke-width="0.368188" stroke-miterlimit="10"/>
<path d="M208.77 4.3084L199.609 3.73124L205.41 3.1582L214.479 3.69413L208.77 4.3084Z"  stroke-width="0.368188" stroke-miterlimit="10"/>
<path d="M218.701 4.93496L208.749 4.30833L214.459 3.68994L224.287 4.27123L218.701 4.93496Z"  stroke-width="0.368188" stroke-miterlimit="10"/>
<path d="M175.13 12.8625L163.574 11.5062L173.769 10.29L185.333 11.5062L175.13 12.8625Z"  stroke-width="0.368188" stroke-miterlimit="10"/>
<path d="M188.194 14.396L175.101 12.8583L185.304 11.502L198.319 12.8665L188.194 14.396Z"  stroke-width="0.368188" stroke-miterlimit="10"/>
<path d="M185.333 11.5063L173.77 10.2902L183.017 9.18945L194.531 10.2819L185.333 11.5063Z"  stroke-width="0.368188" stroke-miterlimit="10"/>
<path d="M198.319 12.8668L185.305 11.5022L194.502 10.2778L207.385 11.5022L198.319 12.8668Z"  stroke-width="0.368188" stroke-miterlimit="10"/>
<path d="M194.51 10.2859L183 9.19341L191.422 8.1875L202.846 9.17692L194.51 10.2859Z"  stroke-width="0.368188" stroke-miterlimit="10"/>
<path d="M207.368 11.5021L194.485 10.2818L202.817 9.17285L215.539 10.2695L207.368 11.5021Z"  stroke-width="0.368188" stroke-miterlimit="10"/>
<path d="M202.846 9.17682L191.422 8.18741L199.123 7.26807L210.431 8.16679L202.846 9.17682Z"  stroke-width="0.368188" stroke-miterlimit="10"/>
<path d="M215.539 10.2697L202.816 9.17312L210.406 8.16309L222.93 9.15662L215.539 10.2697Z"  stroke-width="0.368188" stroke-miterlimit="10"/>
<path d="M203.158 16.1524L188.193 14.3962L198.318 12.8667L213.081 14.4209L203.158 16.1524Z"  stroke-width="0.368188" stroke-miterlimit="10"/>
<path d="M220.387 18.1768L203.122 16.1485L213.049 14.417L229.939 16.1897L220.387 18.1768Z"  stroke-width="0.368188" stroke-miterlimit="10"/>
<path d="M213.082 14.4207L198.318 12.8665L207.384 11.502L221.904 12.8789L213.082 14.4207Z"  stroke-width="0.368188" stroke-miterlimit="10"/>
<path d="M229.939 16.1896L213.049 14.4168L221.871 12.875L238.357 14.4375L229.939 16.1896Z"  stroke-width="0.368188" stroke-miterlimit="10"/>
<path d="M221.892 12.8832L207.368 11.5022L215.535 10.2695L229.787 11.5022L221.892 12.8832Z"  stroke-width="0.368188" stroke-miterlimit="10"/>
<path d="M238.345 14.4416L221.854 12.8791L229.749 11.498L245.819 12.8874L238.345 14.4416Z"  stroke-width="0.368188" stroke-miterlimit="10"/>
<path d="M229.787 11.502L215.535 10.2694L222.931 9.15625L236.89 10.2611L229.787 11.502Z"  stroke-width="0.368188" stroke-miterlimit="10"/>
<path d="M245.819 12.887L229.749 11.4977L236.856 10.2568L252.506 11.4977L245.819 12.887Z"  stroke-width="0.368188" stroke-miterlimit="10"/>
<path d="M210.41 8.16698L199.102 7.27238L206.176 6.42725L217.344 7.24352L210.41 8.16698Z"  stroke-width="0.368188" stroke-miterlimit="10"/>
<path d="M222.909 9.15653L210.381 8.16711L217.319 7.24365L229.637 8.14238L222.909 9.15653Z"  stroke-width="0.368188" stroke-miterlimit="10"/>
<path d="M217.345 7.24366L206.177 6.42739L212.694 5.65234L223.71 6.39854L217.345 7.24366Z"  stroke-width="0.368188" stroke-miterlimit="10"/>
<path d="M229.639 8.14202L217.32 7.24329L223.681 6.39404L235.785 7.21444L229.639 8.14202Z"  stroke-width="0.368188" stroke-miterlimit="10"/>
<path d="M223.697 6.39809L212.682 5.6519L218.708 4.93457L229.559 5.61891L223.697 6.39809Z"  stroke-width="0.368188" stroke-miterlimit="10"/>
<path d="M235.773 7.2187L223.673 6.39831L229.535 5.61914L241.412 6.36533L235.773 7.2187Z"  stroke-width="0.368188" stroke-miterlimit="10"/>
<path d="M229.561 5.61908L218.71 4.93473L224.292 4.271L234.978 4.89762L229.561 5.61908Z"  stroke-width="0.368188" stroke-miterlimit="10"/>
<path d="M241.412 6.3651L229.535 5.61891L234.948 4.89746L246.602 5.58181L241.412 6.3651Z"  stroke-width="0.368188" stroke-miterlimit="10"/>
<path d="M236.869 10.2652L222.906 9.15624L229.638 8.14209L243.297 9.13975L236.869 10.2652Z"  stroke-width="0.368188" stroke-miterlimit="10"/>
<path d="M252.486 11.5021L236.832 10.2612L243.263 9.13574L258.497 10.2488L252.486 11.5021Z"  stroke-width="0.368188" stroke-miterlimit="10"/>
<path d="M243.296 9.1396L229.638 8.14194L235.78 7.21436L249.141 8.1172L243.296 9.1396Z"  stroke-width="0.368188" stroke-miterlimit="10"/>
<path d="M258.497 10.2486L243.264 9.13547L249.109 8.11719L263.93 9.11897L258.497 10.2486Z"  stroke-width="0.368188" stroke-miterlimit="10"/>
<path d="M249.134 8.12145L235.772 7.21861L241.412 6.36523L254.472 7.18975L249.134 8.12145Z"  stroke-width="0.368188" stroke-miterlimit="10"/>
<path d="M263.921 9.12316L249.101 8.11725L254.439 7.18555L268.86 8.09664L263.921 9.12316Z"  stroke-width="0.368188" stroke-miterlimit="10"/>
<path d="M254.472 7.18984L241.412 6.36533L246.598 5.58203L259.362 6.33646L254.472 7.18984Z"  stroke-width="0.368188" stroke-miterlimit="10"/>
<path d="M268.861 8.09649L254.44 7.1854L259.334 6.33203L273.371 7.15655L268.861 8.09649Z"  stroke-width="0.368188" stroke-miterlimit="10"/>
<path d="M240.554 20.5429L220.407 18.1765L229.959 16.1895L249.48 18.2425L240.554 20.5429Z"  stroke-width="0.368188" stroke-miterlimit="10"/>
<path d="M264.309 23.3299L240.505 20.5348L249.43 18.2344L272.232 20.6296L264.309 23.3299Z"  stroke-width="0.368188" stroke-miterlimit="10"/>
<path d="M249.481 18.2424L229.96 16.1894L238.378 14.4414L257.268 16.2306L249.481 18.2424Z"  stroke-width="0.368188" stroke-miterlimit="10"/>
<path d="M272.232 20.6295L249.431 18.2343L257.218 16.2266L279.068 18.3002L272.232 20.6295Z"  stroke-width="0.368188" stroke-miterlimit="10"/>
<path d="M257.256 16.2391L238.362 14.4458L245.841 12.8916L264.116 14.4705L257.256 16.2391Z"  stroke-width="0.368188" stroke-miterlimit="10"/>
<path d="M279.06 18.3042L257.206 16.2305L264.066 14.4619L285.017 16.2758L279.06 18.3042Z"  stroke-width="0.368188" stroke-miterlimit="10"/>
<path d="M264.115 14.4704L245.84 12.8915L252.523 11.498L270.196 12.8997L264.115 14.4704Z"  stroke-width="0.368188" stroke-miterlimit="10"/>
<path d="M285.017 16.276L264.065 14.4621L270.15 12.8955L290.256 14.4868L285.017 16.276Z"  stroke-width="0.368188" stroke-miterlimit="10"/>
<path d="M292.874 26.6855L264.305 23.3297L272.228 20.6294L299.227 23.4657L292.874 26.6855Z"  stroke-width="0.368188" stroke-miterlimit="10"/>
<path d="M327.707 30.771L292.801 26.6731L299.158 23.4575L331.615 26.8669L327.707 30.771Z"  stroke-width="0.368188" stroke-miterlimit="10"/>
<path d="M299.227 23.4659L272.229 20.6295L279.064 18.3003L304.636 20.7244L299.227 23.4659Z"  stroke-width="0.368188" stroke-miterlimit="10"/>
<path d="M331.614 26.867L299.157 23.4576L304.57 20.7202L334.888 23.5937L331.614 26.867Z"  stroke-width="0.368188" stroke-miterlimit="10"/>
<path d="M304.632 20.7324L279.056 18.3083L285.017 16.2759L309.291 18.3701L304.632 20.7324Z"  stroke-width="0.368188" stroke-miterlimit="10"/>
<path d="M334.888 23.6019L304.566 20.7243L309.225 18.3662L337.671 20.8233L334.888 23.6019Z"  stroke-width="0.368188" stroke-miterlimit="10"/>
<path d="M309.29 18.3703L285.017 16.276L290.256 14.4868L313.343 16.3172L309.29 18.3703Z"  stroke-width="0.368188" stroke-miterlimit="10"/>
<path d="M337.67 20.8231L309.225 18.366L313.285 16.313L340.057 18.432L337.67 20.8231Z"  stroke-width="0.368188" stroke-miterlimit="10"/>
<path d="M270.176 12.9038L252.503 11.5021L258.514 10.2529L275.61 11.5021L270.176 12.9038Z"  stroke-width="0.368188" stroke-miterlimit="10"/>
<path d="M290.24 14.491L270.13 12.8997L275.568 11.498L294.882 12.908L290.24 14.491Z"  stroke-width="0.368188" stroke-miterlimit="10"/>
<path d="M275.61 11.5018L258.514 10.2526L263.951 9.12305L280.495 10.2403L275.61 11.5018Z"  stroke-width="0.368188" stroke-miterlimit="10"/>
<path d="M294.882 12.9078L275.567 11.4978L280.448 10.2363L299.029 11.4937L294.882 12.9078Z"  stroke-width="0.368188" stroke-miterlimit="10"/>
<path d="M280.486 10.2445L263.942 9.1232L268.881 8.09668L284.897 9.10671L280.486 10.2445Z"  stroke-width="0.368188" stroke-miterlimit="10"/>
<path d="M299.025 11.4978L280.444 10.2404L284.856 9.10254L302.744 10.2321L299.025 11.4978Z"  stroke-width="0.368188" stroke-miterlimit="10"/>
<path d="M284.897 9.10699L268.881 8.09696L273.387 7.16113L288.904 8.07223L284.897 9.10699Z"  stroke-width="0.368188" stroke-miterlimit="10"/>
<path d="M302.745 10.2325L284.856 9.10291L288.864 8.07227L306.104 9.08642L302.745 10.2325Z"  stroke-width="0.368188" stroke-miterlimit="10"/>
<path d="M313.326 16.3212L290.235 14.4908L294.882 12.9077L316.888 14.5155L313.326 16.3212Z"  stroke-width="0.368188" stroke-miterlimit="10"/>
<path d="M340.044 18.4364L313.264 16.3174L316.83 14.5117L342.122 16.3586L340.044 18.4364Z"  stroke-width="0.368188" stroke-miterlimit="10"/>
<path d="M316.888 14.5158L294.882 12.908L299.025 11.498L320.042 12.9203L316.888 14.5158Z"  stroke-width="0.368188" stroke-miterlimit="10"/>
<path d="M342.123 16.3584L316.831 14.5115L319.989 12.916L343.945 14.5362L342.123 16.3584Z"  stroke-width="0.368188" stroke-miterlimit="10"/>
<path d="M320.043 12.9245L299.021 11.5022L302.744 10.2324L322.854 11.4981L320.043 12.9245Z"  stroke-width="0.368188" stroke-miterlimit="10"/>
<path d="M343.949 14.5402L319.984 12.9201L322.8 11.4937L345.561 12.9283L343.949 14.5402Z"  stroke-width="0.368188" stroke-miterlimit="10"/>
<path d="M322.854 11.4976L302.744 10.232L306.104 9.08594L325.373 10.2196L322.854 11.4976Z"  stroke-width="0.368188" stroke-miterlimit="10"/>
<path d="M345.562 12.9285L322.801 11.4938L325.324 10.2158L347 11.4938L345.562 12.9285Z"  stroke-width="0.368188" stroke-miterlimit="10"/>
</svg>
