<svg width="268" height="222" viewBox="0 0 268 222" fill="none" xmlns="http://www.w3.org/2000/svg" stroke="white">
<g clip-path="url(#clip0_307_130)">
<path d="M58.5764 218.297C55.8295 216.687 53.3578 214.562 51.0709 212.325C36.123 197.702 24.0663 177.589 14.5807 159.028C5.86183 141.974 -2.95175 119.16 2.90743 100.035C9.36201 78.971 27.0659 64.2847 46.8536 55.9537C68.3823 46.8921 92.1574 44.8849 115.495 43.87C136 42.9769 156.789 42.8777 176.978 38.7641C197.632 34.5557 216.003 20.6768 232.877 8.69684C237.13 5.6793 241.483 2.60762 246.485 1.12817C266.174 -4.69945 268.56 19.1883 266.075 32.8147C258.853 72.4127 219.458 105.994 191.818 132.534C174.366 149.29 155.999 165.136 136.794 179.854C118.553 193.832 89.5277 228.824 62.9787 220.291C61.4361 219.794 59.9702 219.113 58.581 218.297H58.5764Z"  stroke-width="0.451053" stroke-miterlimit="10"/>
<path d="M19.4158 156.872C11.1209 140.643 2.73129 118.93 8.30631 100.734C14.4497 80.6894 31.2965 66.7113 50.128 58.7863C70.6148 50.1621 93.2397 48.2542 115.445 47.2844C134.976 46.4319 154.795 46.3237 174.023 42.3905C193.581 38.3987 210.983 25.2865 226.968 13.9471C231.077 11.0378 235.267 8.03826 240.098 6.60842C258.835 1.06497 261.104 23.7981 258.74 36.7613C251.866 74.4424 214.379 106.4 188.074 131.654C171.488 147.576 154.037 162.637 135.792 176.629C118.535 189.858 91.3272 222.149 66.0412 214.882C64.5121 214.445 63.0326 213.931 61.6118 213.168C58.8694 211.693 56.4021 209.592 54.1379 207.408C39.8575 193.62 28.4188 174.5 19.4067 156.872H19.4158Z"  stroke-width="0.451053" stroke-miterlimit="10"/>
<path d="M24.2514 154.712C16.376 139.308 8.41487 118.7 13.7057 101.429C19.5333 82.4033 35.5232 69.1378 53.4029 61.6098C72.8479 53.4231 94.3225 51.6144 115.4 50.6943C133.961 49.8869 152.802 49.7696 171.078 46.0078C189.54 42.228 205.972 29.8872 221.069 19.1882C225.038 16.3916 229.061 13.4598 233.716 12.0841C251.501 6.82029 253.653 28.3987 251.411 40.7079C244.889 76.4765 209.305 106.805 184.339 130.779C168.625 145.871 152.089 160.138 134.8 173.408C118.531 185.884 93.0957 215.527 69.1177 209.474C67.6021 209.091 66.1046 208.752 64.6567 208.04C61.9188 206.696 59.4606 204.621 57.2189 202.487C43.6061 189.529 32.7853 171.41 24.2514 154.716V154.712Z"  stroke-width="0.451053" stroke-miterlimit="10"/>
<path d="M29.0815 152.551C21.6301 137.973 14.093 118.469 19.0997 102.119C24.6161 84.1125 39.749 71.5552 56.668 64.4331C75.071 56.684 95.3954 54.9745 115.346 54.1039C132.937 53.3372 150.798 53.2154 168.119 49.6295C185.48 46.0662 200.924 34.4651 215.155 24.4336C218.975 21.7409 222.836 18.8902 227.324 17.5596C244.157 12.58 246.196 32.9992 244.072 44.6499C237.897 78.5014 204.221 107.206 180.59 129.894C165.742 144.152 150.122 157.634 133.794 170.178C118.512 181.905 94.8045 208.969 72.1752 204.061C70.6687 203.736 69.1622 203.565 67.6872 202.911C64.9583 201.698 62.5046 199.65 60.2854 197.566C47.3492 185.428 37.1374 168.32 29.077 152.555L29.0815 152.551Z"  stroke-width="0.451053" stroke-miterlimit="10"/>
<path d="M33.917 150.391C26.8851 136.638 19.7765 118.235 24.5035 102.814C29.7087 85.8271 43.9845 73.9825 59.9473 67.2618C77.3129 59.9547 96.4826 58.3354 115.305 57.5145C131.926 56.7883 148.809 56.6575 165.174 53.2521C181.439 49.9007 195.908 39.0619 209.255 29.68C212.931 27.0955 216.63 24.317 220.946 23.0405C236.823 18.3405 238.749 37.6095 236.742 48.5972C230.919 80.5318 199.147 107.613 176.856 129.02C162.878 142.443 148.169 155.141 132.806 166.954C118.508 177.932 96.4871 202.488 75.2561 198.654C73.754 198.383 72.243 198.383 70.7365 197.783C68.0166 196.696 65.5674 194.675 63.3663 192.646C51.1157 181.324 41.5037 165.231 33.917 150.395V150.391Z"  stroke-width="0.451053" stroke-miterlimit="10"/>
<path d="M38.7472 148.23C32.1393 135.303 25.4546 118.005 29.8975 103.508C34.7914 87.5406 48.2103 76.4041 63.2168 70.0894C79.5405 63.2198 97.56 61.6998 115.255 60.9285C130.902 60.2474 146.815 60.1076 162.219 56.8735C177.383 53.7387 190.878 43.6576 203.346 34.9298C206.877 32.458 210.414 29.7517 214.559 28.5248C229.484 24.109 231.293 42.2188 229.407 52.5479C223.932 82.5655 194.067 108.023 173.111 128.144C159.999 140.733 146.206 152.641 131.804 163.733C118.493 173.958 98.1148 196.096 78.3181 193.245C76.8161 193.029 75.3096 193.2 73.767 192.654C71.0607 191.693 68.6114 189.704 66.4328 187.724C54.8723 177.21 45.8558 162.14 38.7472 148.234V148.23Z"  stroke-width="0.451053" stroke-miterlimit="10"/>
<path d="M43.5828 146.074C37.3943 133.967 31.1382 117.779 35.2969 104.202C39.8751 89.2544 52.4415 78.826 66.4873 72.9172C81.769 66.4852 98.6384 65.0644 115.201 64.3427C129.878 63.7022 144.813 63.5579 159.26 60.4997C173.328 57.5769 185.85 48.2582 197.433 40.1798C200.82 37.8163 204.194 35.1821 208.168 34.0049C222.141 29.8687 223.833 46.8238 222.069 56.4944C216.945 84.5995 188.984 108.429 169.368 127.269C157.122 139.028 144.244 150.147 130.803 160.512C118.48 169.988 99.7029 189.799 81.3856 187.841C79.8791 187.679 78.377 188.022 76.8074 187.53C74.1146 186.691 71.6654 184.738 69.5048 182.807C58.639 173.096 50.2133 159.055 43.5783 146.078L43.5828 146.074Z"  stroke-width="0.451053" stroke-miterlimit="10"/>
<path d="M48.4178 143.913C42.6534 132.632 36.8213 117.545 40.6958 104.897C44.9628 90.9685 56.6721 81.2528 69.7617 75.7454C84.0015 69.7509 99.7207 68.4248 115.156 67.7528C128.863 67.1574 142.814 66.9679 156.31 64.1218C169.273 61.3839 180.834 52.859 191.528 45.4256C194.771 43.1704 197.983 40.6084 201.785 39.4852C214.807 35.6333 216.386 51.4291 214.739 60.4412C209.963 86.6294 183.91 108.835 165.629 126.39C154.253 137.314 142.287 147.643 129.806 157.287C118.466 166.015 100.686 186.944 84.4525 182.429C82.946 182.632 81.4485 182.83 79.8427 182.397C77.1635 181.68 74.7143 179.763 72.5763 177.882C62.4185 168.965 54.5702 155.961 48.4133 143.913H48.4178Z"  stroke-width="0.451053" stroke-miterlimit="10"/>
<path d="M53.2486 141.752C47.9036 131.297 42.5 117.314 46.0903 105.592C50.0461 92.6824 60.8984 83.6748 73.0273 78.5689C86.2251 73.0119 100.799 71.7851 115.102 71.1626C127.835 70.6078 140.812 70.4093 153.351 67.7391C165.214 65.2132 175.804 57.4551 185.615 50.6667C188.713 48.5242 191.763 46.0344 195.394 44.9564C207.464 41.384 208.925 56.0298 207.401 64.3788C202.976 88.6499 178.826 109.236 161.885 125.501C151.375 135.591 140.329 145.135 128.805 154.048C118.453 162.027 102.278 180.945 87.5196 177.007C86.0176 177.309 84.5201 177.629 82.8783 177.259C80.2171 176.659 77.7678 174.779 75.6479 172.952C66.2028 164.824 58.9273 152.862 53.2441 141.743L53.2486 141.752Z"  stroke-width="0.451053" stroke-miterlimit="10"/>
<path d="M58.0845 139.592C53.1635 129.962 48.1838 117.08 51.4946 106.287C55.1391 94.3923 65.1344 86.102 76.307 81.3975C88.4629 76.2825 101.886 75.1504 115.062 74.573C126.825 74.0588 138.823 73.8513 150.406 71.3615C161.173 69.0476 170.789 62.0563 179.716 55.9175C182.674 53.8832 185.552 51.4656 189.016 50.4417C200.135 47.1535 201.479 60.64 200.076 68.3304C195.999 90.6892 173.757 109.647 158.151 124.631C148.512 133.887 138.377 142.641 127.817 150.833C118.453 158.059 103.884 174.973 90.5964 171.604C89.0989 172.005 87.6014 172.447 85.928 172.136C83.2848 171.649 80.8356 169.808 78.7292 168.036C70.0058 160.684 63.2941 149.777 58.0845 139.588V139.592Z"  stroke-width="0.451053" stroke-miterlimit="10"/>
<path d="M62.9152 137.432C58.4137 128.627 53.8625 116.85 56.8891 106.977C60.2224 96.1018 69.3607 88.5196 79.5771 84.2211C90.6911 79.5436 102.964 78.5062 115.012 77.983C125.806 77.5139 136.825 77.2929 147.452 74.979C157.118 72.8771 165.769 66.657 173.807 61.1587C176.621 59.2327 179.337 56.8872 182.629 55.9129C192.792 52.9044 194.023 65.2362 192.742 72.2726C189.012 92.7144 168.678 110.048 154.407 123.747C145.634 132.168 136.414 140.138 126.816 147.603C118.44 154.08 105.477 168.983 93.6635 166.191C92.1705 166.692 90.673 167.251 88.9635 167.003C86.3384 166.624 83.8892 164.833 81.8008 163.11C73.8081 156.529 67.6512 146.683 62.9197 137.423L62.9152 137.432Z"  stroke-width="0.451053" stroke-miterlimit="10"/>
<path d="M67.7502 135.276C63.6727 127.297 59.5456 116.625 62.288 107.676C65.3055 97.8202 73.5914 90.9506 82.847 87.0535C92.919 82.8136 104.042 81.8754 114.957 81.4018C124.781 80.9733 134.822 80.7433 144.492 78.6098C153.063 76.7199 160.744 71.2712 167.893 66.4133C170.563 64.6001 173.116 62.3268 176.238 61.4021C185.448 58.6778 186.567 69.8503 185.403 76.2282C182.025 94.753 163.595 110.463 150.663 122.881C142.76 130.472 134.452 137.648 125.814 144.391C118.422 150.12 107.064 163.011 96.7259 160.796C95.2374 161.396 93.7399 162.068 91.9944 161.888C89.3873 161.617 86.9381 159.867 84.8632 158.207C77.6103 152.384 71.9992 143.611 67.7412 135.28L67.7502 135.276Z"  stroke-width="0.451053" stroke-miterlimit="10"/>
<path d="M72.5858 133.115C68.9278 125.962 65.2292 116.39 67.6874 108.37C70.3937 99.5343 77.8181 93.3729 86.122 89.8818C95.1521 86.0794 105.125 85.2404 114.913 84.8119C123.762 84.424 132.829 84.1895 141.547 82.2319C149.017 80.554 155.738 75.881 161.994 71.6592C164.52 69.9542 166.91 67.7531 169.86 66.8825C178.119 64.4378 179.12 74.4602 178.078 80.1751C175.047 96.7829 158.525 110.869 146.928 122.001C139.892 128.758 132.513 135.163 124.822 141.167C118.426 146.155 108.666 157.026 99.8024 155.384C98.3184 156.083 96.8209 156.872 95.0438 156.759C92.4548 156.597 90.01 154.892 87.9487 153.286C81.4445 148.212 76.3702 140.522 72.5858 133.12V133.115Z"  stroke-width="0.451053" stroke-miterlimit="10"/>
<path d="M77.4159 130.955C74.1818 124.627 70.9072 116.16 73.0858 109.065C75.4809 101.249 82.0482 95.7998 89.3959 92.7056C97.384 89.3407 106.207 88.601 114.867 88.2221C122.747 87.8793 130.834 87.6312 138.597 85.8495C144.97 84.3881 150.726 80.4865 156.089 76.9051C158.475 75.3129 160.698 73.184 163.477 72.3585C170.784 70.198 171.668 79.0612 170.748 84.1175C168.069 98.8128 153.45 111.271 143.193 121.122C137.027 127.044 130.559 132.664 123.834 137.937C118.426 142.177 110.271 151.04 102.878 149.971C101.398 150.77 99.9009 151.667 98.0877 151.627C95.5167 151.564 93.0765 149.908 91.0287 148.361C85.2823 144.026 80.7356 137.427 77.4294 130.955H77.4159Z"  stroke-width="0.451053" stroke-miterlimit="10"/>
<path d="M82.2516 128.794C79.437 123.291 76.5954 115.93 78.4853 109.755C80.5692 102.958 86.2795 98.2173 92.6664 95.529C99.6127 92.6062 107.285 91.9567 114.818 91.6274C121.728 91.3252 128.841 91.0726 135.643 89.4669C140.916 88.222 145.71 85.0962 150.18 82.1463C152.422 80.6668 154.483 78.6055 157.09 77.8342C163.446 75.9533 164.213 83.6618 163.41 88.0596C161.078 100.838 148.367 111.672 139.445 120.238C134.145 125.326 128.593 130.161 122.828 134.708C118.404 138.199 111.859 145.05 105.941 144.554C104.466 145.452 102.969 146.462 101.119 146.489C98.5617 146.53 96.135 144.91 94.0918 143.431C89.1121 139.818 85.0842 134.329 82.2516 128.785V128.794Z"  stroke-width="0.451053" stroke-miterlimit="10"/>
<path d="M87.0828 126.638C84.6922 121.961 82.2745 115.7 83.8803 110.454C85.6529 104.676 90.5063 100.648 95.937 98.3615C101.841 95.8762 108.363 95.3259 114.768 95.0462C120.704 94.7891 126.843 94.532 132.689 93.0977C136.866 92.0738 140.699 89.7193 144.272 87.4009C146.374 86.0342 148.264 84.0405 150.704 83.3188C156.103 81.7221 156.762 88.2759 156.076 92.0106C154.096 102.872 143.289 112.087 135.706 119.367C131.277 123.62 126.636 127.666 121.832 131.491C118.395 134.229 113.451 139.074 109.008 139.155C107.543 140.152 106.041 141.27 104.16 141.369C101.62 141.509 99.2071 139.926 97.1683 138.519C92.9645 135.618 89.4463 131.243 87.0873 126.634L87.0828 126.638Z"  stroke-width="0.451053" stroke-miterlimit="10"/>
<path d="M91.9184 124.478C89.9473 120.626 87.9581 115.47 89.2797 111.149C90.7366 106.39 94.7375 103.071 99.2119 101.19C104.079 99.1421 109.446 98.691 114.719 98.461C119.685 98.2445 124.85 97.9919 129.735 96.7199C132.815 95.9215 135.693 94.3428 138.363 92.6469C140.33 91.402 142.048 89.4715 144.317 88.7994C148.765 87.4823 149.306 92.8814 148.742 95.9576C147.109 104.907 138.21 112.493 131.963 118.488C128.4 121.911 124.674 125.159 120.831 128.267C118.377 130.251 115.044 133.088 112.071 133.747C110.61 134.843 109.104 136.065 107.191 136.246C104.665 136.48 102.279 134.924 100.231 133.603C96.8123 131.397 93.7948 128.158 91.9139 124.482L91.9184 124.478Z"  stroke-width="0.451053" stroke-miterlimit="10"/>
<path d="M96.7534 122.317C95.2063 119.291 93.6412 115.236 94.6786 111.844C95.8243 108.104 98.9681 105.497 102.482 104.018C106.307 102.408 110.524 102.051 114.669 101.871C118.666 101.695 122.86 101.465 126.78 100.342C128.769 99.7735 130.686 98.9706 132.454 97.8971C134.29 96.7785 135.833 94.9021 137.93 94.2842C141.426 93.2513 141.85 97.4912 141.408 99.9088C140.127 106.941 133.131 112.904 128.223 117.617C125.526 120.206 122.707 122.66 119.834 125.046C118.359 126.273 116.64 127.112 115.143 128.339C113.645 129.566 112.179 130.86 110.231 131.117C107.714 131.446 105.378 129.886 103.307 128.682C100.678 127.152 98.1562 125.069 96.7489 122.322L96.7534 122.317Z"  stroke-width="0.451053" stroke-miterlimit="10"/>
</g>
<defs>
<clipPath id="clip0_307_130">
<rect width="266.32" height="221.837" fill="white" transform="translate(0.786133)"/>
</clipPath>
</defs>
</svg>
