<svg width="308" height="223" viewBox="0 0 308 223" fill="none" xmlns="http://www.w3.org/2000/svg">
<path d="M307.061 222.725L264.086 222.725C261.222 222.725 258.488 220.394 256.57 216.311L234.872 170.137C223.452 145.836 203.366 147.05 192.766 172.676L179.458 204.852C174.792 216.141 167.684 222.72 160.168 222.72L146.801 222.72C139.285 222.72 132.182 216.136 127.511 204.852L114.203 172.676C103.603 147.045 83.517 145.836 72.0973 170.137L50.3989 216.311C48.4811 220.394 45.7475 222.725 42.8829 222.725L0.505695 222.725" stroke="white" stroke-width="0.368188" stroke-miterlimit="10"/>
<path d="M307.061 213.805L264.086 213.805C261.222 213.805 258.488 211.475 256.57 207.392L234.872 161.218C223.452 136.917 203.366 138.131 192.766 163.757L179.458 195.933C174.792 207.222 167.684 213.801 160.168 213.801L146.801 213.801C139.285 213.801 132.182 207.217 127.511 195.933L114.203 163.757C103.603 138.126 83.517 136.917 72.0973 161.218L50.3989 207.392C48.4811 211.475 45.7475 213.805 42.8829 213.805L0.505695 213.805" stroke="white" stroke-width="0.368188" stroke-miterlimit="10"/>
<path d="M307.061 204.881L264.086 204.881C261.222 204.881 258.488 202.551 256.57 198.468L234.872 152.294C223.452 127.993 203.366 129.207 192.766 154.833L179.458 187.009C174.792 198.298 167.684 204.877 160.168 204.877L146.801 204.877C139.285 204.877 132.182 198.293 127.511 187.009L114.203 154.833C103.603 129.202 83.517 127.993 72.0973 152.294L50.3989 198.468C48.4811 202.551 45.7475 204.881 42.8829 204.881L0.505695 204.881" stroke="white" stroke-width="0.368188" stroke-miterlimit="10"/>
<path d="M307.061 195.962L264.086 195.962C261.222 195.962 258.488 193.632 256.57 189.548L234.872 143.374C223.452 119.073 203.366 120.287 192.766 145.914L179.458 178.09C174.792 189.378 167.684 195.957 160.168 195.957L146.801 195.957C139.285 195.957 132.182 189.374 127.511 178.09L114.203 145.914C103.603 120.282 83.517 119.073 72.0973 143.374L50.3989 189.548C48.4811 193.632 45.7475 195.962 42.8829 195.962L0.505695 195.962" stroke="white" stroke-width="0.368188" stroke-miterlimit="10"/>
<path d="M307.061 187.043L264.086 187.043C261.222 187.043 258.488 184.713 256.57 180.629L234.872 134.455C223.452 110.155 203.366 111.368 192.766 136.995L179.458 169.171C174.792 180.459 167.684 187.038 160.168 187.038L146.801 187.038C139.285 187.038 132.182 180.455 127.511 169.171L114.203 136.995C103.603 111.363 83.517 110.154 72.0973 134.455L50.3989 180.629C48.4811 184.713 45.7475 187.043 42.8829 187.043L0.505695 187.043" stroke="white" stroke-width="0.368188" stroke-miterlimit="10"/>
<path d="M307.061 178.119L264.086 178.119C261.222 178.119 258.488 175.788 256.57 171.705L234.872 125.531C223.452 101.23 203.366 102.444 192.766 128.07L179.458 160.247C174.792 171.535 167.684 178.114 160.168 178.114L146.801 178.114C139.285 178.114 132.182 171.53 127.511 160.247L114.203 128.07C103.603 102.439 83.517 101.23 72.0973 125.531L50.3989 171.705C48.4811 175.788 45.7475 178.119 42.8829 178.119L0.505695 178.119" stroke="white" stroke-width="0.368188" stroke-miterlimit="10"/>
<path d="M307.061 169.2L264.086 169.2C261.222 169.2 258.488 166.869 256.57 162.786L234.872 116.612C223.452 92.3108 203.366 93.5246 192.766 119.151L179.458 151.327C174.792 162.616 167.684 169.195 160.168 169.195L146.801 169.195C139.285 169.195 132.182 162.611 127.511 151.327L114.203 119.151C103.603 93.5197 83.517 92.3107 72.0973 116.612L50.3989 162.786C48.4811 166.869 45.7475 169.2 42.8829 169.2L0.505695 169.2" stroke="white" stroke-width="0.368188" stroke-miterlimit="10"/>
<path d="M307.061 160.281L264.086 160.281C261.222 160.281 258.488 157.95 256.57 153.867L234.872 107.693C223.452 83.3918 203.366 84.6056 192.766 110.232L179.458 142.408C174.792 153.697 167.684 160.276 160.168 160.276L146.801 160.276C139.285 160.276 132.182 153.692 127.511 142.408L114.203 110.232C103.603 84.6008 83.517 83.3918 72.0973 107.693L50.3989 153.867C48.4811 157.95 45.7475 160.281 42.8829 160.281L0.505695 160.281" stroke="white" stroke-width="0.368188" stroke-miterlimit="10"/>
<path d="M307.061 151.356L264.086 151.356C261.222 151.356 258.488 149.026 256.57 144.942L234.872 98.7683C223.452 74.4675 203.366 75.6813 192.766 101.308L179.458 133.484C174.792 144.772 167.684 151.351 160.168 151.351L146.801 151.351C139.285 151.351 132.182 144.768 127.511 133.484L114.203 101.308C103.603 75.6764 83.517 74.4675 72.0973 98.7683L50.3989 144.942C48.4811 149.026 45.7475 151.356 42.8829 151.356L0.505695 151.356" stroke="white" stroke-width="0.368188" stroke-miterlimit="10"/>
<path d="M307.061 142.437L264.086 142.437C261.222 142.437 258.488 140.107 256.57 136.023L234.872 89.8494C223.452 65.5485 203.366 66.7624 192.766 92.3887L179.458 124.565C174.792 135.853 167.684 142.433 160.168 142.433L146.801 142.433C139.285 142.433 132.182 135.849 127.511 124.565L114.203 92.3887C103.603 66.7575 83.517 65.5485 72.0973 89.8494L50.3989 136.023C48.4811 140.107 45.7475 142.437 42.8829 142.437L0.505695 142.437" stroke="white" stroke-width="0.368188" stroke-miterlimit="10"/>
<path d="M307.061 133.518L264.086 133.518C261.222 133.518 258.488 131.188 256.57 127.104L234.872 80.9303C223.452 56.6295 203.366 57.8435 192.766 83.4699L179.458 115.646C174.792 126.934 167.684 133.514 160.168 133.514L146.801 133.514C139.285 133.514 132.182 126.93 127.511 115.646L114.203 83.4699C103.603 57.8387 83.517 56.6295 72.0973 80.9303L50.3989 127.104C48.4811 131.188 45.7475 133.518 42.8829 133.518L0.505695 133.518" stroke="white" stroke-width="0.368188" stroke-miterlimit="10"/>
<path d="M307.061 124.594L264.086 124.594C261.222 124.594 258.488 122.264 256.57 118.18L234.872 72.0061C223.452 47.7053 203.366 48.9191 192.766 74.5454L179.458 106.722C174.792 118.01 167.684 124.589 160.168 124.589L146.801 124.589C139.285 124.589 132.182 118.005 127.511 106.722L114.203 74.5454C103.603 48.9142 83.517 47.7053 72.0973 72.0061L50.3989 118.18C48.4811 122.264 45.7475 124.594 42.8829 124.594L0.505695 124.594" stroke="white" stroke-width="0.368188" stroke-miterlimit="10"/>
<path d="M307.061 115.675L264.086 115.675C261.222 115.675 258.488 113.344 256.57 109.261L234.872 63.0866C223.452 38.7857 203.366 39.9998 192.766 65.6261L179.458 97.8021C174.792 109.091 167.684 115.67 160.168 115.67L146.801 115.67C139.285 115.67 132.182 109.086 127.511 97.8021L114.203 65.6261C103.603 39.9949 83.517 38.7857 72.0973 63.0866L50.3989 109.261C48.4811 113.344 45.7475 115.675 42.8829 115.675L0.505695 115.675" stroke="white" stroke-width="0.368188" stroke-miterlimit="10"/>
<path d="M307.061 106.756L264.086 106.756C261.222 106.756 258.488 104.425 256.57 100.342L234.872 54.1678C223.452 29.8669 203.366 31.0807 192.766 56.7071L179.458 88.8832C174.792 100.172 167.684 106.751 160.168 106.751L146.801 106.751C139.285 106.751 132.182 100.167 127.511 88.8832L114.203 56.7071C103.603 31.0759 83.517 29.8669 72.0973 54.1677L50.3989 100.342C48.4811 104.425 45.7475 106.756 42.8829 106.756L0.505695 106.756" stroke="white" stroke-width="0.368188" stroke-miterlimit="10"/>
<path d="M307.061 97.8317L264.086 97.8317C261.222 97.8317 258.488 95.5012 256.57 91.4179L234.872 45.2438C223.452 20.943 203.366 22.157 192.766 47.7834L179.458 79.9593C174.792 91.2479 167.684 97.827 160.168 97.827L146.801 97.827C139.285 97.827 132.182 91.2431 127.511 79.9593L114.203 47.7834C103.603 22.1522 83.517 20.943 72.0973 45.2438L50.3989 91.4179C48.4811 95.5012 45.7475 97.8317 42.8829 97.8317L0.505695 97.8317" stroke="white" stroke-width="0.368188" stroke-miterlimit="10"/>
<path d="M307.061 88.9124L264.086 88.9124C261.222 88.9124 258.488 86.5819 256.57 82.4986L234.872 36.3245C223.452 12.0236 203.366 13.2375 192.766 38.8638L179.458 71.04C174.792 82.3286 167.684 88.9074 160.168 88.9074L146.801 88.9074C139.285 88.9074 132.182 82.3237 127.511 71.04L114.203 38.8638C103.603 13.2326 83.517 12.0236 72.0973 36.3245L50.3989 82.4986C48.4811 86.5819 45.7475 88.9124 42.8829 88.9124L0.505695 88.9124" stroke="white" stroke-width="0.368188" stroke-miterlimit="10"/>
<path d="M307.061 79.993L264.086 79.993C261.222 79.993 258.488 77.6625 256.57 73.5791L234.872 27.4051C223.452 3.10421 203.366 4.31803 192.766 29.9444L179.458 62.1206C174.792 73.4092 167.684 79.988 160.168 79.988L146.801 79.988C139.285 79.988 132.182 73.4043 127.511 62.1206L114.203 29.9444C103.603 4.31317 83.517 3.1042 72.0973 27.4051L50.3989 73.5791C48.4811 77.6625 45.7475 79.993 42.8829 79.993L0.505695 79.993" stroke="white" stroke-width="0.368188" stroke-miterlimit="10"/>
<path d="M307.061 71.0692L264.086 71.0692C261.222 71.0692 258.488 68.7386 256.57 64.6553L234.872 18.4812C223.452 -5.81962 203.366 -4.6058 192.766 21.0205L179.458 53.1967C174.792 64.4853 167.684 71.0642 160.168 71.0642L146.801 71.0642C139.285 71.0642 132.182 64.4805 127.511 53.1967L114.203 21.0205C103.603 -4.61066 83.517 -5.81963 72.0973 18.4812L50.3989 64.6553C48.4811 68.7386 45.7475 71.0692 42.8829 71.0692L0.505695 71.0692" stroke="white" stroke-width="0.368188" stroke-miterlimit="10"/>
</svg>
