<svg width="206" height="48" viewBox="0 0 206 48" fill="none" xmlns="http://www.w3.org/2000/svg">
<g id="Frame 1171275664">
<g id="Group 1947">
<g id="g1231">
<path id="path1192" fill-rule="evenodd" clip-rule="evenodd" d="M1.34898 0.736037C0.809866 1.31596 0.5 2.20854 0.5 3.36839V44.6237C0.5 45.7835 0.809866 46.6761 1.36914 47.2359L1.51525 47.3594L24.6116 24.2431V23.7237L1.4951 0.612488L1.34898 0.736037Z" fill="white"/>
<path id="path1203" opacity="0.5" fill-rule="evenodd" clip-rule="evenodd" d="M32.2956 31.9787L24.5918 24.2658V23.7262L32.2981 16.0132L32.4644 16.1166L41.579 21.3006C44.1889 22.7731 44.1889 25.1987 41.579 26.6913L32.4644 31.8754C32.4619 31.8754 32.2956 31.9787 32.2956 31.9787Z" fill="white"/>
<path id="path1210" opacity="0.75" fill-rule="evenodd" clip-rule="evenodd" d="M32.4614 31.8754L24.5913 23.996L1.34888 47.2586C2.19786 48.1713 3.62626 48.2747 5.22346 47.3821L32.4614 31.8754Z" fill="white"/>
<path id="path1223" opacity="0.25" fill-rule="evenodd" clip-rule="evenodd" d="M32.4614 16.1192L5.22346 0.632689C3.62878 -0.280061 2.19786 -0.156512 1.34888 0.756238L24.5888 23.9961L32.4614 16.1192Z" fill="white"/>
<path id="path1225" opacity="0.2" fill-rule="evenodd" clip-rule="evenodd" d="M32.2952 31.709L5.2437 47.0922C3.73216 47.962 2.38438 47.9015 1.51524 47.1123L1.36913 47.2586L1.51524 47.3821C2.38438 48.1688 3.73216 48.2318 5.2437 47.362L32.4816 31.8755L32.2952 31.709Z" fill="white"/>
<path id="path1227" opacity="0.12" fill-rule="evenodd" clip-rule="evenodd" d="M41.5764 26.4217L32.2754 31.7091L32.4417 31.8755L41.5562 26.6915C42.8612 25.9451 43.5036 24.9719 43.5036 23.9961C43.4205 24.8887 42.7579 25.7384 41.5764 26.4217Z" fill="white"/>
<path id="path1229" opacity="0.25" fill-rule="evenodd" clip-rule="evenodd" d="M5.22356 0.902455L41.5761 21.573C42.7576 22.2361 43.4202 23.106 43.5234 23.9986C43.5234 23.0253 42.881 22.0495 41.5761 21.3032L5.22356 0.632665C2.61364 -0.860009 0.5 0.383045 0.5 3.36839V3.63818C0.5 0.652836 2.61364 -0.570047 5.22356 0.902455Z" fill="white"/>
</g>
<g id="g1237">
<path id="path1233" fill-rule="evenodd" clip-rule="evenodd" d="M52.3966 22.6874C52.3966 16.0788 57.9465 10.6981 64.5494 10.6981C68.1998 10.6981 70.7971 12.1328 72.7571 14.0012L70.4495 16.3108C69.0488 14.9946 67.1493 13.9734 64.5469 13.9734C59.7251 13.9734 55.9563 17.8589 55.9563 22.6849C55.9563 27.5109 59.7251 31.4014 64.5444 31.4014C67.6707 31.4014 69.4493 30.1457 70.5905 29.001C71.5252 28.0656 72.1373 26.7217 72.3741 24.8785H64.5494V21.6108H75.5635C75.6794 22.1957 75.7398 22.8967 75.7398 23.6556C75.7398 26.109 75.0672 29.1523 72.9032 31.3182C70.7971 33.5118 68.1116 34.6818 64.5469 34.6818C57.9415 34.6818 52.3916 29.3061 52.3916 22.6925L52.3966 22.6874ZM84.6428 19.2381C80.3777 19.2381 76.8962 22.4857 76.8962 26.9562C76.8962 31.4039 80.3752 34.6742 84.6428 34.6742C88.9104 34.6742 92.3844 31.3989 92.3844 26.9536C92.3844 22.4832 88.9079 19.2356 84.6428 19.2381ZM84.6428 31.6384C82.3075 31.6384 80.2896 29.7095 80.2896 26.9587C80.2896 24.1801 82.305 22.279 84.6428 22.279C86.9781 22.279 88.9935 24.1776 88.9935 26.9587C88.9935 29.707 86.9807 31.6384 84.6428 31.6384ZM101.534 19.2381C97.2692 19.2381 93.7927 22.4857 93.7927 26.9562C93.7927 31.4039 97.2692 34.6742 101.534 34.6742C105.799 34.6742 109.276 31.3989 109.276 26.9536C109.276 22.4832 105.802 19.2356 101.534 19.2381ZM101.534 31.6384C99.1989 31.6384 97.181 29.7095 97.181 26.9587C97.181 24.1801 99.1964 22.279 101.534 22.279C103.87 22.279 105.887 24.1776 105.887 26.9587C105.887 29.707 103.87 31.6384 101.534 31.6384ZM122.265 19.7071V20.9628H122.149C121.391 20.0525 119.93 19.2356 118.091 19.2356C114.234 19.2356 110.694 22.6294 110.694 26.9889C110.694 31.3132 114.231 34.6792 118.091 34.6792C119.93 34.6792 121.391 33.8623 122.149 32.9269H122.265V34.0363C122.265 36.9889 120.688 38.5698 118.146 38.5698C116.07 38.5698 114.785 37.0771 114.259 35.824L111.306 37.0519C112.153 39.0967 114.405 41.6131 118.144 41.6131C122.114 41.6131 125.475 39.2707 125.475 33.5698V19.7046L122.265 19.7071ZM118.38 31.6384C116.045 31.6384 114.083 29.6768 114.083 26.9889C114.083 24.2709 116.043 22.2815 118.38 22.2815C120.688 22.2815 122.499 24.2683 122.499 26.9889C122.502 29.6768 120.691 31.6384 118.38 31.6384ZM127.815 11.5176H131.206V34.2103H127.815V11.5176ZM140.499 31.6384C138.776 31.6384 137.547 30.8467 136.763 29.3011L147.077 25.0273L146.722 24.1498C146.082 22.4277 144.122 19.2381 140.119 19.2381C136.146 19.2381 132.843 22.3672 132.843 26.9587C132.843 31.2829 136.116 34.6767 140.499 34.6767C144.036 34.6767 146.082 32.5159 146.928 31.2552L144.298 29.5028C143.419 30.7912 142.22 31.6409 140.499 31.6384ZM140.235 22.221C141.577 22.221 142.716 22.8942 143.097 23.8574L136.199 26.7242C136.113 23.7414 138.509 22.221 140.235 22.221Z" fill="white"/>
<path id="path1235" fill-rule="evenodd" clip-rule="evenodd" d="M161.956 11.5176H153.85V34.2103H157.233V25.6148H161.959C165.71 25.6148 169.398 22.8967 169.398 18.5649C169.398 14.2407 165.713 11.5201 161.964 11.5201L161.956 11.5176ZM162.045 22.4554H157.233V14.6744H162.045C164.574 14.6744 166.015 16.7747 166.015 18.5649C166.015 20.3249 164.574 22.4554 162.045 22.4554ZM174.646 34.2103V11.5176H171.263V34.2103H174.646ZM189.844 34.1699V25.4711C189.844 21.4418 186.836 19.1953 182.954 19.1953C180.508 19.1953 177.971 20.277 176.921 22.6698L179.924 23.9229C180.566 22.6698 181.76 22.2588 183.017 22.2588C184.766 22.2588 186.544 23.3102 186.572 25.1811V25.4156C185.96 25.0651 184.65 24.5381 183.042 24.5381C179.805 24.5381 176.51 26.3182 176.51 29.6465C176.51 32.6848 179.165 34.6389 182.141 34.6389C184.418 34.6389 185.67 33.6177 186.456 32.4226H186.572V34.175H189.842L189.844 34.1699ZM182.551 31.6334C181.443 31.6334 179.896 31.0787 179.896 29.7095C179.896 27.9572 181.823 27.2814 183.486 27.2814C184.975 27.2814 185.673 27.6016 186.579 28.0404C186.32 30.0777 184.599 31.6082 182.551 31.6334ZM201.743 19.692L197.863 29.528H197.747L193.721 19.692H190.076L196.112 33.4437L192.668 41.0912H196.198L205.501 19.692H201.743Z" fill="white"/>
</g>
</g>
</g>
</svg>
