<svg width="147" height="48" viewBox="0 0 147 48" fill="none" xmlns="http://www.w3.org/2000/svg">
<path id="Vector" d="M62.9071 25.26C62.9071 32.1658 57.4608 37.2546 50.777 37.2546C44.0932 37.2546 38.647 32.1658 38.647 25.26C38.647 18.3055 44.0932 13.2654 50.777 13.2654C57.4608 13.2654 62.9071 18.3055 62.9071 25.26ZM57.5971 25.26C57.5971 20.9446 54.4406 17.9919 50.777 17.9919C47.1135 17.9919 43.9569 20.9446 43.9569 25.26C43.9569 29.5322 47.1135 32.5282 50.777 32.5282C54.4406 32.5282 57.5971 29.5268 57.5971 25.26Z" fill="white"/>
<path id="Vector_2" d="M89.0757 25.26C89.0757 32.1658 83.6294 37.2546 76.9456 37.2546C70.2618 37.2546 64.8156 32.1658 64.8156 25.26C64.8156 18.311 70.2618 13.2654 76.9456 13.2654C83.6294 13.2654 89.0757 18.3055 89.0757 25.26ZM83.7657 25.26C83.7657 20.9446 80.6092 17.9919 76.9456 17.9919C73.2821 17.9919 70.1255 20.9446 70.1255 25.26C70.1255 29.5322 73.2821 32.5282 76.9456 32.5282C80.6092 32.5282 83.7657 29.5268 83.7657 25.26Z" fill="white"/>
<path id="Vector_3" d="M114.153 13.9901V35.5241C114.153 44.3822 108.887 48 102.661 48C96.8007 48 93.2734 44.1118 91.9432 40.932L96.5663 39.023C97.3895 40.9752 99.4066 43.279 102.656 43.279C106.641 43.279 109.111 40.84 109.111 36.2488V34.5237H108.925C107.737 35.9784 105.447 37.2492 102.558 37.2492C96.5117 37.2492 90.9728 32.0252 90.9728 25.3033C90.9728 18.5327 96.5117 13.2654 102.558 13.2654C105.442 13.2654 107.731 14.5363 108.925 15.9477H109.111V13.9955H114.153V13.9901ZM109.487 25.3033C109.487 21.0798 106.646 17.9919 103.032 17.9919C99.3685 17.9919 96.2991 21.0798 96.2991 25.3033C96.2991 29.4836 99.3685 32.5282 103.032 32.5282C106.646 32.5282 109.487 29.4836 109.487 25.3033Z" fill="white"/>
<path id="Vector_4" d="M122.467 1.36816V36.5191H117.288V1.36816H122.467Z" fill="white"/>
<path id="Vector_5" d="M142.649 29.2077L146.771 31.9333C145.441 33.8855 142.235 37.2492 136.696 37.2492C129.827 37.2492 124.697 31.982 124.697 25.2546C124.697 18.1217 129.871 13.26 136.102 13.26C142.377 13.26 145.446 18.2136 146.449 20.8905L147 22.2533L130.835 28.8941C132.073 31.3006 133.997 32.5281 136.696 32.5281C139.4 32.5281 141.276 31.2086 142.649 29.2077ZM129.963 24.8923L140.768 20.4416C140.174 18.9437 138.386 17.8999 136.282 17.8999C133.583 17.8999 129.827 20.2632 129.963 24.8923Z" fill="white"/>
<path id="Vector_6" d="M19.0428 22.1397V17.0509H36.3302C36.4992 17.9378 36.5864 18.9869 36.5864 20.1226C36.5864 23.9405 35.5343 28.6616 32.1433 32.0252C28.845 35.4322 24.6308 37.2492 19.0483 37.2492C8.70093 37.2492 0 28.8887 0 18.6246C0 8.36052 8.70093 0 19.0483 0C24.7726 0 28.8505 2.22803 31.9143 5.13204L28.2944 8.72285C26.0973 6.67868 23.1207 5.08878 19.0428 5.08878C11.4868 5.08878 5.5771 11.1293 5.5771 18.6246C5.5771 26.1199 11.4868 32.1604 19.0428 32.1604C23.9439 32.1604 26.7352 30.2082 28.5234 28.4344C29.9735 26.9959 30.9276 24.941 31.3037 22.1343L19.0428 22.1397Z" fill="white"/>
</svg>
