<svg width="254" height="48" viewBox="0 0 254 48"  xmlns="http://www.w3.org/2000/svg">
<path d="M17.9322 6.04393C18.4415 4.71104 19.1419 3.48394 20.1817 2.48956C24.3413 -1.55143 31.2172 -0.535891 34.0397 4.54179C36.1619 8.39236 38.4115 12.1583 40.5973 15.9666C44.2475 22.2925 47.9402 28.6184 51.5479 34.9655C54.5827 40.2759 51.2932 46.9827 45.2662 47.8925C41.5736 48.4425 38.1144 46.75 36.2044 43.4495C32.9999 37.8852 29.7741 32.3209 26.5696 26.7778C26.5059 26.6508 26.421 26.5451 26.3361 26.4393C25.9966 26.1642 25.848 25.7622 25.6358 25.4026C24.2139 22.9061 22.7496 20.4307 21.3277 17.9553C20.4152 16.3474 19.4602 14.7606 18.5477 13.1527C17.72 11.714 17.338 10.1484 17.3804 8.49814C17.4441 7.65186 17.5502 6.80558 17.9322 6.04393Z" />
<path opacity="0.2" d="M17.9319 6.04395C17.7409 6.8056 17.5712 7.56725 17.5287 8.37121C17.4651 10.1484 17.9107 11.7986 18.802 13.3431C21.1365 17.3418 23.4709 21.3616 25.7841 25.3814C25.9963 25.7411 26.1661 26.1008 26.3783 26.4393C25.105 28.6396 23.8317 30.8188 22.5371 33.0191C20.7545 36.0869 18.9718 39.1758 17.1679 42.2435C17.0831 42.2435 17.0618 42.2012 17.0406 42.1378C17.0194 41.9685 17.0831 41.8204 17.1255 41.6512C17.9956 38.4776 17.2741 35.6637 15.0882 33.2518C13.7512 31.792 12.0534 30.9669 10.101 30.6918C7.55436 30.3322 5.30483 30.988 3.28873 32.5748C2.92796 32.8498 2.69452 33.2518 2.27008 33.4634C2.18519 33.4634 2.14274 33.4211 2.12152 33.3576C3.14018 31.6016 4.13761 29.8456 5.15627 28.0895C9.35823 20.8115 13.5602 13.5335 17.7834 6.27667C17.8258 6.19204 17.8895 6.12857 17.9319 6.04395Z" />
<path d="M2.20662 33.4212C2.60984 33.0615 2.99184 32.6807 3.41628 32.3422C8.57323 28.28 16.3193 31.2208 17.444 37.6526C17.7199 39.197 17.5714 40.678 17.1045 42.159C17.0833 42.2859 17.062 42.3917 17.0196 42.5187C16.8286 42.8572 16.6588 43.2169 16.4466 43.5554C14.5578 46.6654 11.7778 48.2099 8.12757 47.9772C3.94683 47.681 0.657413 44.5497 0.0844183 40.403C-0.191468 38.3931 0.21175 36.5101 1.25163 34.7752C1.46385 34.3944 1.71851 34.0559 1.95196 33.6751C2.05807 33.5904 2.01562 33.4212 2.20662 33.4212Z" />
<path d="M80.2948 8.63306C71.7792 8.63306 64.6955 15.4697 64.6955 23.884C64.6955 32.2984 71.7792 39.0598 80.2948 39.0598C84.8917 39.0598 88.2828 37.5573 90.9957 34.7776C93.784 31.9978 94.613 28.1663 94.613 25.0861C94.613 24.1094 94.5376 23.2079 94.3869 22.4566H80.2948V26.5886H90.3175C90.0161 28.9176 89.2625 30.6455 88.0567 31.8476C86.6249 33.275 84.2888 34.9278 80.2948 34.9278C74.1154 34.9278 69.2924 29.9694 69.2924 23.884C69.2924 17.7987 74.1154 12.8402 80.2948 12.8402C83.6106 12.8402 86.0974 14.1174 87.8307 15.8453L90.7697 12.9154C88.2828 10.5113 84.967 8.63306 80.2948 8.63306ZM105.841 19.5266C100.491 19.5266 96.0448 23.6586 96.0448 29.4435C96.0448 35.1532 100.416 39.3604 105.841 39.3604C111.267 39.3604 115.638 35.1532 115.638 29.4435C115.638 23.7338 111.192 19.5266 105.841 19.5266ZM105.841 35.4537C102.902 35.4537 100.34 32.9745 100.34 29.4435C100.34 25.9125 102.902 23.4333 105.841 23.4333C108.78 23.4333 111.343 25.8374 111.343 29.4435C111.343 32.9745 108.78 35.4537 105.841 35.4537ZM127.093 19.5266C121.667 19.5266 117.296 23.6586 117.296 29.4435C117.296 35.1532 121.667 39.3604 127.093 39.3604C132.443 39.3604 136.889 35.1532 136.889 29.4435C136.889 23.7338 132.518 19.5266 127.093 19.5266ZM127.093 35.4537C124.154 35.4537 121.591 32.9745 121.591 29.4435C121.591 25.9125 124.154 23.4333 127.093 23.4333C130.032 23.4333 132.594 25.8374 132.594 29.4435C132.594 32.9745 130.107 35.4537 127.093 35.4537ZM148.268 19.5266C143.37 19.5266 138.924 23.8089 138.924 29.3684C138.924 34.8527 143.37 39.135 148.268 39.135C150.605 39.135 152.413 38.0832 153.393 36.8811H153.544V38.3086C153.544 42.065 151.584 44.0934 148.344 44.0934C145.706 44.0934 144.124 42.2152 143.445 40.6375L139.678 42.2152C140.733 44.8447 143.596 48.0001 148.344 48.0001C153.393 48.0001 157.613 44.995 157.613 37.7827V20.2027H153.544V21.7804H153.393C152.413 20.5784 150.605 19.5266 148.268 19.5266ZM148.645 35.3035C145.706 35.3035 143.219 32.8242 143.219 29.3684C143.219 25.9125 145.706 23.3581 148.645 23.3581C151.584 23.3581 153.845 25.9125 153.845 29.3684C153.845 32.8242 151.584 35.3035 148.645 35.3035ZM160.778 9.83511H165.073V38.8345H160.778V9.83511ZM176.603 19.5266C171.479 19.5266 167.184 23.5084 167.184 29.4435C167.184 35.003 171.404 39.3604 177.056 39.3604C181.652 39.3604 184.29 36.5806 185.345 35.0029L181.954 32.7491C180.823 34.4019 179.241 35.4537 177.056 35.4537C174.795 35.4537 173.212 34.4771 172.233 32.4486L185.571 26.9643L185.119 25.8373C184.29 23.6586 181.728 19.5266 176.603 19.5266ZM171.479 29.143C171.328 25.3115 174.493 23.3581 176.679 23.3581C178.412 23.3581 179.919 24.1845 180.371 25.4617L171.479 29.143Z" />
<path d="M193.107 38.3836L203.054 12.0137H206.898L216.845 38.3836H213.077L210.515 31.2464H199.437L196.875 38.3836H193.107ZM200.568 28.091H209.385L205.089 16.2208H204.938L200.568 28.091Z" />
<path d="M220.312 36.2049C218.654 34.3267 217.825 32.0728 217.825 29.3682C217.825 26.7387 218.654 24.4849 220.312 22.5316C222.045 20.6534 224.004 19.7519 226.416 19.7519C227.772 19.7519 228.978 20.0524 230.033 20.5782C231.163 21.1793 231.992 21.8554 232.595 22.8321H232.746L232.595 20.3529V12.0137H235.986V38.3836H232.746V35.9044H232.595C231.992 36.8059 231.163 37.5572 230.033 38.1582C228.903 38.7592 227.697 38.9846 226.416 38.9846C224.004 38.9846 221.97 38.0831 220.312 36.2049ZM231.013 34.1013C232.143 32.8992 232.671 31.3215 232.671 29.3682C232.671 27.49 232.143 25.9123 231.013 24.7103C229.958 23.5082 228.601 22.9072 226.943 22.9072C225.285 22.9072 223.929 23.5082 222.874 24.7103C221.744 25.9123 221.216 27.49 221.216 29.3682C221.216 31.2464 221.744 32.8241 222.874 34.0262C224.004 35.2282 225.361 35.8292 226.943 35.8292C228.601 35.9043 229.958 35.3033 231.013 34.1013Z" />
<path d="M251.661 37.3319C250.304 38.3837 248.571 38.9847 246.461 38.9847C244.652 38.9847 243.07 38.5339 241.638 37.5572C240.281 36.5806 239.302 35.3785 238.699 33.8009L241.713 32.5237C242.165 33.5755 242.768 34.477 243.673 35.078C244.502 35.6791 245.481 35.9796 246.461 35.9796C247.516 35.9796 248.42 35.7542 249.174 35.3034C249.927 34.8526 250.229 34.2516 250.229 33.6506C250.229 32.5237 249.325 31.6221 247.591 31.0962L244.502 30.345C240.96 29.4434 239.226 27.7906 239.226 25.2363C239.226 23.5835 239.905 22.3063 241.261 21.2545C242.618 20.2778 244.351 19.752 246.386 19.752C247.968 19.752 249.4 20.1276 250.756 20.8789C252.037 21.6302 252.942 22.6819 253.469 23.9591L250.455 25.2363C250.078 24.485 249.551 23.884 248.797 23.4332C248.043 22.9824 247.139 22.7571 246.159 22.7571C245.255 22.7571 244.502 22.9824 243.748 23.4332C243.07 23.884 242.693 24.4099 242.693 25.086C242.693 26.1378 243.673 26.8891 245.632 27.2647L248.345 27.9409C251.962 28.8424 253.695 30.6455 253.695 33.3501C253.771 34.9278 253.017 36.2801 251.661 37.3319Z" />
</svg>
