<svg width="1440" height="867" viewBox="0 0 1440 867" fill="none" xmlns="http://www.w3.org/2000/svg">
<path d="M1445 331.757L1427.26 323.724M720 3.39807L12.7378 323.724M720 3.39807L71.7121 323.724M720 3.39807L130.013 323.724M720 3.39807L189.554 323.724M720 3.39807L307.745 323.724M720 3.39807L544.939 323.724M720 3.39807L663.384 323.724M720 3.39807L717.765 323.724M720 3.39807L776.616 323.724M720 3.39807L895.062 323.724M720 3.39807L954.657 323.724M720 3.39807L1013.87 323.724M720 3.39807L1073.09 323.724M720 3.39807L1132.26 323.724M720 3.39807L1191.03 323.724M720 3.39807L1250.45 323.724M720 3.39807L1309.99 323.724M720 3.39807L1368.29 323.724M720 3.39807L1427.26 323.724M1444.5 361.379L1368.29 323.724M1445 397.027L1309.99 323.724M1445 441.21L1250.45 323.724M1445 496.437L1191.03 323.724M1445 566.729L1132.26 323.724M1445 661.12L1073.09 323.724M1445 793.668L1013.87 323.724M1352.62 866.972L954.657 323.724M1191.95 866.972L895.062 323.724M1032.29 866.972L835.837 323.724M872.632 866.972L776.616 323.724M713.975 866.972L717.765 323.724M-5 331.757L12.7378 323.724M-4.49707 361.379L71.7121 323.724M-5 397.027L130.013 323.724M-5 441.21L189.554 323.724M-5 496.439L248.973 323.724M720 3.39917L248.973 323.724M720 3.39917L366.909 323.724M720 3.39917L426.132 323.724M-4.99999 566.729L307.745 323.724M-4.99999 661.12L366.909 323.724M-4.99999 793.668L426.132 323.724M87.3819 866.972L485.342 323.724M248.048 866.972L544.939 323.724M407.709 866.972L604.163 323.724M720.001 3.39817L604.163 323.724M567.368 866.972L663.384 323.724M1445 761.536H-0.983386M1445 678.191H-0.983386M1445 609.908H-0.983386M1445 555.684H-0.983386M1445 509.493L-0.983386 509.493M1445 471.334L-0.983386 471.334M1445 438.197L-0.983386 438.197M1445 409.078L-0.983386 409.078M1445 382.969L-0.983386 382.969M1445 360.878L-0.983386 360.878M1445 341.799L-0.983386 341.799M1445 323.724H1427.26M-0.983386 323.724H12.7378M12.7378 323.724H71.7121M71.7121 323.724H130.013M130.013 323.724H189.554M189.554 323.724H248.973M248.973 323.724H307.745M307.745 323.724H366.909M366.909 323.724H426.132M426.132 323.724H485.342M485.342 323.724L719.999 3.39818L835.837 323.724M485.342 323.724H544.939M544.939 323.724H604.163M604.163 323.724H663.384M663.384 323.724H717.765M717.765 323.724H776.616M776.616 323.724H835.837M835.837 323.724H895.062M895.062 323.724H954.657M954.657 323.724H1013.87M1013.87 323.724H1073.09M1073.09 323.724H1132.26M1132.26 323.724H1191.03M1191.03 323.724H1250.45M1250.45 323.724L1309.99 323.724M1309.99 323.724H1368.29M1368.29 323.724L1427.26 323.724" stroke="url(#paint0_linear_273_12)" stroke-width="2.51367"/>
<defs>
<linearGradient id="paint0_linear_273_12" x1="720" y1="3.39807" x2="720" y2="866.972" gradientUnits="userSpaceOnUse">
<stop offset="0.34375" stop-color="white" stop-opacity="0"/>
<stop offset="0.676008" stop-color="white"/>
<stop offset="1" stop-color="white" stop-opacity="0"/>
</linearGradient>
</defs>
</svg>
