<svg width="1920" height="960" viewBox="0 0 1920 960" fill="none" xmlns="http://www.w3.org/2000/svg">
<g clip-path="url(#clip0_122_65)">
<rect width="1920" height="960" fill="white"/>
<g filter="url(#filter0_f_122_65)">
<path d="M-213.018 492.113C-256.778 599.429 -376.951 741.842 -549.006 835.247L-732 1971H2325.2L2352.05 1237.68C2437.25 1125.07 2616 865.653 2649.42 728.924C2682.84 592.196 2383.55 383.791 2229.72 296.68C2059.99 202.282 1798.44 365.888 1586.01 369.863C1320.47 374.831 886.912 136.091 700.934 318.925C514.956 501.759 605.885 696.316 424.88 599.931C243.874 503.546 -158.319 357.968 -213.018 492.113Z" fill="#7E378F"/>
<path d="M151.192 642.373C87.5169 755.599 -253.409 857.236 -415.912 893.901V2000.78L2562.88 2016.93C2580.12 1612.08 2563.75 -53.1078 2466.82 -101.951C1851.88 -411.803 1786.57 439.144 1588.58 401.453C1390.59 363.762 1250.11 574.065 1107.84 683.292C965.567 792.518 853.604 596.991 597.91 516.225C342.216 435.459 230.785 500.84 151.192 642.373Z" fill="#C349B1"/>
<path d="M-112.678 814.554C-182.216 960.885 -554.533 1092.24 -732 1139.62V2570.12L2521.07 2591C2539.9 2067.78 2521.59 389.762 2476.39 260.132C2419.89 98.0948 1704.96 649.221 1488.74 600.51C1272.52 551.799 971.52 459.349 816.146 600.51C660.773 741.671 654.412 755.903 375.174 651.523C95.9359 547.143 -25.7555 631.641 -112.678 814.554Z" fill="#111111"/>
</g>
<g opacity="0.1">
<path d="M1685 424.757L1667.26 416.723M960 96.3979L252.738 416.723M960 96.3979L311.712 416.723M960 96.3979L370.013 416.723M960 96.3979L429.554 416.723M960 96.3979L547.745 416.723M960 96.3979L784.939 416.723M960 96.3979L903.384 416.723M960 96.3979L957.765 416.723M960 96.3979L1016.62 416.723M960 96.3979L1135.06 416.723M960 96.3979L1194.66 416.723M960 96.3979L1253.87 416.723M960 96.3979L1313.09 416.723M960 96.3979L1372.26 416.723M960 96.3979L1431.03 416.723M960 96.3979L1490.45 416.723M960 96.3979L1549.99 416.723M960 96.3979L1608.29 416.723M960 96.3979L1667.26 416.723M1684.5 454.379L1608.29 416.723M1685 490.027L1549.99 416.723M1685 534.21L1490.45 416.723M1685 589.437L1431.03 416.723M1685 659.729L1372.26 416.723M1685 754.12L1313.09 416.723M1685 886.668L1253.87 416.723M1592.62 959.971L1194.66 416.723M1431.95 959.971L1135.06 416.723M1272.29 959.971L1075.84 416.723M1112.63 959.971L1016.62 416.723M953.975 959.971L957.765 416.723M235 424.757L252.738 416.723M235.503 454.379L311.712 416.723M235 490.027L370.013 416.723M235 534.21L429.554 416.723M235 589.439L488.973 416.723M960 96.399L488.973 416.723M960 96.399L606.909 416.723M960 96.399L666.132 416.723M235 659.729L547.745 416.723M235 754.12L606.909 416.723M235 886.668L666.132 416.723M327.382 959.971L725.342 416.723M488.048 959.971L784.939 416.723M647.709 959.971L844.163 416.723M960.001 96.398L844.163 416.723M807.368 959.971L903.384 416.723M1685 854.535H239.017M1685 771.191H239.017M1685 702.908H239.017M1685 648.683H239.017M1685 602.492L239.017 602.493M1685 564.334L239.017 564.334M1685 531.197L239.017 531.197M1685 502.077L239.017 502.077M1685 475.969L239.017 475.969M1685 453.878L239.017 453.878M1685 434.799L239.017 434.799M1685 416.723H1667.26M239.017 416.723H252.738M252.738 416.723H311.712M311.712 416.723H370.013M370.013 416.723H429.554M429.554 416.723H488.973M488.973 416.723H547.745M547.745 416.723H606.909M606.909 416.723H666.132M666.132 416.723H725.342M725.342 416.723L959.999 96.3981L1075.84 416.723M725.342 416.723H784.939M784.939 416.723H844.163M844.163 416.723H903.384M903.384 416.723H957.765M957.765 416.723H1016.62M1016.62 416.723H1075.84M1075.84 416.723H1135.06M1135.06 416.723H1194.66M1194.66 416.723H1253.87M1253.87 416.723H1313.09M1313.09 416.723H1372.26M1372.26 416.723H1431.03M1431.03 416.723H1490.45M1490.45 416.723L1549.99 416.723M1549.99 416.723H1608.29M1608.29 416.723L1667.26 416.723" stroke="url(#paint0_radial_122_65)" stroke-width="2.51367"/>
</g>
</g>
<defs>
<filter id="filter0_f_122_65" x="-962" y="-400" width="3844" height="3221" filterUnits="userSpaceOnUse" color-interpolation-filters="sRGB">
<feFlood flood-opacity="0" result="BackgroundImageFix"/>
<feBlend mode="normal" in="SourceGraphic" in2="BackgroundImageFix" result="shape"/>
<feGaussianBlur stdDeviation="115" result="effect1_foregroundBlur_122_65"/>
</filter>
<radialGradient id="paint0_radial_122_65" cx="0" cy="0" r="1" gradientUnits="userSpaceOnUse" gradientTransform="translate(960 449.5) rotate(90) scale(510.472 857.118)">
<stop stop-color="white" stop-opacity="0"/>
<stop offset="0.331969" stop-color="white"/>
<stop offset="1" stop-color="white" stop-opacity="0"/>
</radialGradient>
<clipPath id="clip0_122_65">
<rect width="1920" height="960" fill="white"/>
</clipPath>
</defs>
</svg>
