<svg width="1920" height="2400" viewBox="0 0 1920 2400" fill="none" xmlns="http://www.w3.org/2000/svg">
<g clip-path="url(#clip0_122_57)">
<rect width="1920" height="2400" fill="white"/>
<g filter="url(#filter0_f_122_57)">
<path d="M219.156 1661.46C111.559 1702.58 -53.6434 2073.25 -122.795 2253.45L-263 2579.58L2052.62 2900L2163 2558.01V2043.43C2072.28 1948.25 1860.77 1746.1 1740.48 1698.9C1590.13 1639.89 1395.36 1913.99 1320.5 1989.5C1245.64 2065 1156.19 1795.97 1067.37 1698.9C978.551 1601.82 797.742 1707.14 765.387 1757.9C733.032 1808.66 576.967 1661.46 512.256 1615.14C447.546 1568.82 353.651 1610.07 219.156 1661.46Z" fill="#7E378F"/>
<path d="M345.819 1595.94C189.804 1549.65 -149.14 1677.1 -277.884 1731C-441.256 1731 -644.033 2297.89 -725 2581.33L2157.12 2724C2153.53 2560.61 2144.69 2227.37 2138.09 2201.5C2129.85 2169.16 2055.01 1862.89 2051.84 1900.31C2048.67 1937.72 1817.82 1660.62 1696.68 1609.89C1575.55 1559.16 1417 1679.64 1392.9 1731C1368.8 1782.36 1134.14 1937.72 1104.97 1824.85C1075.79 1711.98 881.091 1628.28 757.42 1595.94C633.75 1563.6 709.222 1816.6 631.214 1862.89C553.207 1909.18 501.834 1642.23 345.819 1595.94Z" fill="#C349B1"/>
<path d="M240.444 1699.84C76.5069 1684.1 -49.4923 1947.94 -91.9991 2081.83C-165.312 2252.52 -210.547 2091.19 -258.764 2151.47C-306.98 2211.75 -459.878 2604.53 -389.456 2777.76C-319.034 2950.99 2042.32 2871.83 2107.67 2879.45C2173.01 2887.06 2214.88 2233.49 2230.11 2190.34C2245.34 2147.19 2061.35 1960 2025.82 1973.96C1990.3 1987.92 1773.32 1804.54 1751.75 1731.56C1730.18 1658.59 1484.02 1678.26 1505.59 1776.62C1527.16 1874.97 1204.23 2020.92 1149.67 2064.7C1095.11 2108.48 871.793 1947.94 883.847 1857.84C895.901 1767.73 659.259 1629.4 598.354 1627.5C537.449 1625.6 445.365 1719.51 240.444 1699.84Z" fill="#111111"/>
</g>
<g filter="url(#filter1_f_122_57)">
<path d="M2146 -55.748L-308.966 -62V612.662C-310.599 652.923 -252.901 690.215 -82.1704 628.391C131.243 551.112 122.854 562.946 272.155 579.397C611.847 653.444 256.859 917.907 768.334 903.428C1190.4 891.479 1645.89 598.609 1645.89 598.609C1645.89 598.609 1673.14 522.85 1645.89 392.428L2146 -55.748Z" fill="#7E378F"/>
<path d="M2423 -127.849L-383.976 -135V582.152C-385.842 628.201 -280.694 627.256 -95.3147 544.104C32.1526 486.928 -27.1934 419.852 230.706 419.852C1371.97 419.853 469.596 972.196 1054.41 955.635C1536.99 941.969 1363.5 672.299 1581.74 613.742C1883.7 532.725 2214.28 600.161 2183.12 450.989L2423 -127.849Z" fill="#C349B1"/>
<path d="M2495.2 -529.359L-310.945 -537V471.829C-312.811 521.032 -267.754 600.551 -72.6011 524.995C171.34 430.549 152.115 274.593 542.568 374.941C933.02 475.289 658.419 910.631 1208.57 824.885C1758.72 739.138 1730.97 632.133 1868.65 404.913L2586 257.106L2495.2 -529.359Z" fill="#111111"/>
</g>
<g opacity="0.1">
<path d="M1881.64 387.146L1857.93 376.408M912.524 -51.774L-32.881 376.408M912.524 -51.774L45.9506 376.408M912.524 -51.774L123.881 376.408M912.524 -51.774L203.47 376.408M912.524 -51.774L361.458 376.408M912.524 -51.774L678.517 376.408M912.524 -51.774L836.845 376.408M912.524 -51.774L909.536 376.408M912.524 -51.774L988.203 376.408M912.524 -51.774L1146.53 376.408M912.524 -51.774L1226.19 376.408M912.524 -51.774L1305.34 376.408M912.524 -51.774L1384.5 376.408M912.524 -51.774L1463.59 376.408M912.524 -51.774L1542.15 376.408M912.524 -51.774L1621.58 376.408M912.524 -51.774L1701.17 376.408M912.524 -51.774L1779.1 376.408M912.524 -51.774L1857.93 376.408M1880.97 426.743L1779.1 376.408M1881.64 474.393L1701.17 376.408M1881.64 533.454L1621.58 376.408M1881.64 607.277L1542.15 376.408M1881.64 701.236L1463.59 376.408M1881.64 827.41L1384.5 376.408M1881.64 1004.59L1305.34 376.408M1758.15 1102.57L1226.19 376.408M1543.39 1102.57L1146.53 376.408M1329.97 1102.57L1067.36 376.408M1116.55 1102.57L988.203 376.408M904.47 1102.57L909.536 376.408M-56.5913 387.147L-32.881 376.408M-55.919 426.743L45.9506 376.408M-56.5913 474.394L123.881 376.408M-56.5913 533.454L203.47 376.408M-56.5913 607.279L282.897 376.408M912.524 -51.7726L282.897 376.408M912.524 -51.7726L440.544 376.408M912.524 -51.7726L519.707 376.408M-56.5913 701.236L361.458 376.408M-56.5913 827.41L440.544 376.408M-56.5913 1004.59L519.707 376.408M66.8965 1102.57L598.854 376.408M281.66 1102.57L678.517 376.408M495.081 1102.57L757.683 376.408M912.525 -51.7739L757.683 376.408M708.499 1102.57L836.845 376.408M1881.64 961.636H-51.2223M1881.64 850.228H-51.2223M1881.64 758.954H-51.2223M1881.64 686.472H-51.2223M1881.64 624.728L-51.2223 624.728M1881.64 573.721L-51.2223 573.721M1881.64 529.426L-51.2223 529.426M1881.64 490.502L-51.2223 490.502M1881.64 455.603L-51.2223 455.603M1881.64 426.073L-51.2223 426.073M1881.64 400.57L-51.2223 400.57M1881.64 376.408H1857.93M-51.2223 376.408H-32.881M-32.881 376.408H45.9506M45.9506 376.408H123.881M123.881 376.408H203.47M203.47 376.408H282.897M282.897 376.408H361.458M361.458 376.408H440.544M440.544 376.408H519.707M519.707 376.408H598.854M598.854 376.408L912.522 -51.7739L1067.36 376.408M598.854 376.408H678.517M678.517 376.408H757.683M757.683 376.408H836.845M836.845 376.408H909.536M909.536 376.408H988.203M988.203 376.408H1067.36M1067.36 376.408H1146.53M1146.53 376.408H1226.19M1226.19 376.408H1305.34M1305.34 376.408H1384.5M1384.5 376.408H1463.59M1463.59 376.408H1542.15M1542.15 376.408H1621.58M1621.58 376.408L1701.17 376.408M1701.17 376.408H1779.1M1779.1 376.408L1857.93 376.408" stroke="url(#paint0_radial_122_57)" stroke-width="2.51367"/>
</g>
</g>
<defs>
<filter id="filter0_f_122_57" x="-955" y="1356" width="3416" height="1774" filterUnits="userSpaceOnUse" color-interpolation-filters="sRGB">
<feFlood flood-opacity="0" result="BackgroundImageFix"/>
<feBlend mode="normal" in="SourceGraphic" in2="BackgroundImageFix" result="shape"/>
<feGaussianBlur stdDeviation="115" result="effect1_foregroundBlur_122_57"/>
</filter>
<filter id="filter1_f_122_57" x="-614" y="-767" width="3430" height="1953" filterUnits="userSpaceOnUse" color-interpolation-filters="sRGB">
<feFlood flood-opacity="0" result="BackgroundImageFix"/>
<feBlend mode="normal" in="SourceGraphic" in2="BackgroundImageFix" result="shape"/>
<feGaussianBlur stdDeviation="115" result="effect1_foregroundBlur_122_57"/>
</filter>
<radialGradient id="paint0_radial_122_57" cx="0" cy="0" r="1" gradientUnits="userSpaceOnUse" gradientTransform="translate(913 823) rotate(-90) scale(538.5 904.179)">
<stop stop-color="white" stop-opacity="0"/>
<stop offset="0.494623" stop-color="white"/>
<stop offset="1" stop-color="white" stop-opacity="0"/>
</radialGradient>
<clipPath id="clip0_122_57">
<rect width="1920" height="2400" fill="white"/>
</clipPath>
</defs>
</svg>
