<svg width="513" height="236" viewBox="0 0 513 236" fill="none" xmlns="http://www.w3.org/2000/svg">
<path d="M20.5 215.5C74.3485 161.651 74.3486 74.3485 20.5 20.5C74.3486 74.3485 161.651 74.3485 215.5 20.5C161.651 74.3485 161.651 161.651 215.5 215.5C161.651 161.651 74.3485 161.651 20.5 215.5Z" stroke="#7E378F" stroke-width="0.5" stroke-miterlimit="10"/>
<path d="M210.139 26.205C159.344 77.0003 159.347 159.353 210.139 210.146C159.344 159.35 76.9907 159.353 26.1986 210.146C76.9938 159.35 76.9907 76.9972 26.1985 26.205C76.9938 77.0003 159.347 76.9972 210.139 26.205Z" stroke="#7E378F" stroke-width="0.5" stroke-miterlimit="10"/>
<path d="M204.788 31.9062C157.046 79.6481 157.046 157.052 204.788 204.794C157.046 157.052 79.6426 157.052 31.9007 204.793C79.6426 157.052 79.6426 79.6482 31.9007 31.9062C79.6426 79.6482 157.046 79.6481 204.788 31.9062Z" stroke="#7E378F" stroke-width="0.5" stroke-miterlimit="10"/>
<path d="M199.433 37.6051C154.744 82.2938 154.744 154.744 199.433 199.433C154.744 154.744 82.2935 154.744 37.6049 199.433C82.2935 154.744 82.2936 82.2937 37.6049 37.605C82.2936 82.2937 154.744 82.2938 199.433 37.6051Z" stroke="#7E378F" stroke-width="0.5" stroke-miterlimit="10"/>
<path d="M194.078 43.3095C152.443 84.9448 152.443 152.449 194.078 194.084C152.443 152.449 84.9389 152.449 43.3036 194.084C84.9389 152.449 84.9389 84.9448 43.3036 43.3095C84.9389 84.9448 152.443 84.9448 194.078 43.3095Z" stroke="#7E378F" stroke-width="0.5" stroke-miterlimit="10"/>
<path d="M188.723 49.0078C150.141 87.5899 150.141 150.141 188.723 188.723C150.141 150.141 87.5898 150.141 49.0078 188.723C87.5898 150.141 87.5899 87.5898 49.0078 49.0078C87.5899 87.5898 150.141 87.5899 188.723 49.0078Z" stroke="#7E378F" stroke-width="0.5" stroke-miterlimit="10"/>
<path d="M183.368 54.7122C147.839 90.2409 147.839 147.846 183.368 183.374C147.839 147.846 90.2347 147.845 54.706 183.374C90.2347 147.845 90.2347 90.241 54.706 54.7122C90.2347 90.241 147.839 90.2409 183.368 54.7122Z" stroke="#7E378F" stroke-width="0.5" stroke-miterlimit="10"/>
<path d="M178.017 60.4138C145.541 92.8893 145.541 145.541 178.017 178.016C145.541 145.541 92.8895 145.541 60.4141 178.016C92.8895 145.541 92.8896 92.8892 60.4141 60.4137C92.8896 92.8892 145.541 92.8893 178.017 60.4138Z" stroke="#7E378F" stroke-width="0.5" stroke-miterlimit="10"/>
<path d="M172.659 66.1154C143.237 95.5375 143.237 143.243 172.659 172.665C143.237 143.243 95.5318 143.243 66.1097 172.665C95.5318 143.243 95.5318 95.5376 66.1096 66.1155C95.5318 95.5376 143.237 95.5375 172.659 66.1154Z" stroke="#7E378F" stroke-width="0.5" stroke-miterlimit="10"/>
<path d="M167.307 71.817C140.938 98.1859 140.938 140.938 167.307 167.307C140.938 140.938 98.1861 140.938 71.8173 167.307C98.1861 140.938 98.1861 98.1858 71.8173 71.817C98.1861 98.1858 140.938 98.1859 167.307 71.817Z" stroke="#7E378F" stroke-width="0.5" stroke-miterlimit="10"/>
<path d="M161.949 77.5186C138.634 100.834 138.634 138.64 161.949 161.955C138.634 138.64 100.828 138.64 77.5126 161.955C100.828 138.64 100.828 100.834 77.5126 77.5187C100.828 100.834 138.634 100.834 161.949 77.5186Z" stroke="#7E378F" stroke-width="0.5" stroke-miterlimit="10"/>
<path d="M156.598 83.2202C136.335 103.482 136.335 136.335 156.598 156.598C136.335 136.335 103.482 136.335 83.2202 156.598C103.482 136.335 103.482 103.482 83.2202 83.2202C103.482 103.482 136.335 103.482 156.598 83.2202Z" stroke="#7E378F" stroke-width="0.5" stroke-miterlimit="10"/>
<path d="M151.24 88.9214C134.031 106.13 134.028 134.034 151.24 151.246C134.031 134.037 106.127 134.034 88.9155 151.246C106.124 134.037 106.127 106.134 88.9154 88.9215C106.124 106.13 134.028 106.133 151.24 88.9214Z" stroke="#7E378F" stroke-width="0.5" stroke-miterlimit="10"/>
<path d="M94.6202 145.891C108.776 131.735 108.776 108.782 94.6201 94.626C108.776 108.782 131.729 108.782 145.885 94.6259C131.729 108.782 131.729 131.735 145.885 145.891C131.729 131.735 108.776 131.735 94.6202 145.891Z" stroke="#7E378F" stroke-width="0.5" stroke-miterlimit="10"/>
<g opacity="0.25" clip-path="url(#clip0_255_218)">
<g clip-path="url(#clip1_255_218)">
<g clip-path="url(#clip2_255_218)">
<path d="M235.5 184C271.951 147.549 271.951 88.4513 235.5 52C271.951 88.4513 331.049 88.4513 367.5 52C331.049 88.4513 331.049 147.549 367.5 184C331.049 147.549 271.951 147.549 235.5 184Z" stroke="#7E378F" stroke-width="0.338462" stroke-miterlimit="10"/>
<path d="M363.871 55.8619C329.487 90.2463 329.489 145.993 363.871 180.375C329.487 145.991 273.74 145.993 239.357 180.375C273.742 145.991 273.74 90.2442 239.357 55.8619C273.742 90.2463 329.489 90.2443 363.871 55.8619Z" stroke="#7E378F" stroke-width="0.338462" stroke-miterlimit="10"/>
<path d="M360.249 59.7211C327.932 92.0387 327.932 144.435 360.249 176.753C327.932 144.435 275.535 144.435 243.218 176.753C275.535 144.435 275.535 92.0387 243.218 59.7211C275.535 92.0387 327.932 92.0387 360.249 59.7211Z" stroke="#7E378F" stroke-width="0.338462" stroke-miterlimit="10"/>
<path d="M356.624 63.5791C326.373 93.8298 326.373 142.873 356.624 173.124C326.373 142.873 277.33 142.873 247.079 173.124C277.33 142.873 277.33 93.8298 247.079 63.579C277.33 93.8298 326.373 93.8298 356.624 63.5791Z" stroke="#7E378F" stroke-width="0.338462" stroke-miterlimit="10"/>
<path d="M353 67.4403C324.816 95.6242 324.816 141.319 353 169.503C324.816 141.319 279.121 141.319 250.937 169.503C279.121 141.319 279.121 95.6242 250.937 67.4403C279.121 95.6242 324.816 95.6242 353 67.4403Z" stroke="#7E378F" stroke-width="0.338462" stroke-miterlimit="10"/>
<path d="M349.375 71.2977C323.257 97.4147 323.257 139.757 349.375 165.874C323.257 139.757 280.915 139.757 254.798 165.874C280.915 139.757 280.915 97.4147 254.798 71.2977C280.915 97.4147 323.257 97.4147 349.375 71.2977Z" stroke="#7E378F" stroke-width="0.338462" stroke-miterlimit="10"/>
<path d="M345.749 75.1589C321.699 99.2091 321.699 138.203 345.749 162.253C321.699 138.203 282.705 138.203 258.655 162.253C282.705 138.203 282.705 99.2092 258.655 75.1589C282.705 99.2092 321.699 99.2091 345.749 75.1589Z" stroke="#7E378F" stroke-width="0.338462" stroke-miterlimit="10"/>
<path d="M342.127 79.0186C320.143 101.002 320.143 136.643 342.127 158.626C320.143 136.643 284.502 136.643 262.519 158.626C284.502 136.643 284.502 101.002 262.519 79.0185C284.502 101.002 320.143 101.002 342.127 79.0186Z" stroke="#7E378F" stroke-width="0.338462" stroke-miterlimit="10"/>
<path d="M338.5 82.878C318.583 102.795 318.583 135.087 338.5 155.004C318.583 135.087 286.291 135.087 266.374 155.004C286.291 135.087 286.291 102.795 266.374 82.8781C286.291 102.795 318.583 102.795 338.5 82.878Z" stroke="#7E378F" stroke-width="0.338462" stroke-miterlimit="10"/>
<path d="M334.877 86.7377C317.028 104.587 317.028 133.527 334.877 151.377C317.028 133.527 288.088 133.527 270.238 151.377C288.088 133.527 288.088 104.587 270.238 86.7377C288.088 104.587 317.028 104.587 334.877 86.7377Z" stroke="#7E378F" stroke-width="0.338462" stroke-miterlimit="10"/>
<path d="M331.25 90.5972C315.468 106.38 315.468 131.972 331.25 147.754C315.468 131.972 289.876 131.972 274.093 147.754C289.876 131.972 289.876 106.38 274.093 90.5972C289.876 106.38 315.468 106.38 331.25 90.5972Z" stroke="#7E378F" stroke-width="0.338462" stroke-miterlimit="10"/>
<path d="M327.627 94.4568C313.911 108.173 313.911 130.412 327.627 144.128C313.911 130.412 291.672 130.412 277.957 144.128C291.672 130.412 291.673 108.173 277.957 94.4568C291.673 108.173 313.911 108.173 327.627 94.4568Z" stroke="#7E378F" stroke-width="0.338462" stroke-miterlimit="10"/>
<path d="M324.001 98.3161C312.352 109.965 312.349 128.854 324.001 140.505C312.352 128.856 293.463 128.854 281.812 140.505C293.461 128.856 293.463 109.967 281.812 98.3161C293.461 109.965 312.35 109.967 324.001 98.3161Z" stroke="#7E378F" stroke-width="0.338462" stroke-miterlimit="10"/>
<path d="M285.673 136.88C295.256 127.298 295.256 111.76 285.673 102.178C295.256 111.76 310.793 111.76 320.376 102.178C310.793 111.76 310.793 127.298 320.376 136.88C310.793 127.298 295.256 127.298 285.673 136.88Z" stroke="#7E378F" stroke-width="0.338462" stroke-miterlimit="10"/>
</g>
</g>
</g>
<g opacity="0.1" clip-path="url(#clip3_255_218)">
<g clip-path="url(#clip4_255_218)">
<path d="M400.707 121.018C430.496 121.018 454.644 96.8696 454.644 67.0806C454.644 96.8696 478.792 121.018 508.581 121.018C478.792 121.018 454.644 145.165 454.644 174.954C454.644 145.165 430.496 121.018 400.707 121.018Z" stroke="#7E378F" stroke-width="0.195586" stroke-miterlimit="10"/>
<path d="M505.52 121.112C477.42 121.112 454.642 143.892 454.642 171.99C454.642 143.89 431.862 121.112 403.764 121.112C431.864 121.112 454.642 98.3326 454.642 70.2344C454.642 98.3343 477.421 121.112 505.52 121.112Z" stroke="#7E378F" stroke-width="0.195586" stroke-miterlimit="10"/>
<path d="M502.462 121.209C476.052 121.209 454.642 142.619 454.642 169.03C454.642 142.619 433.232 121.209 406.821 121.209C433.232 121.209 454.642 99.7995 454.642 73.3887C454.642 99.7995 476.052 121.209 502.462 121.209Z" stroke="#7E378F" stroke-width="0.195586" stroke-miterlimit="10"/>
<path d="M499.405 121.305C474.683 121.305 454.643 141.344 454.643 166.066C454.643 141.344 434.604 121.305 409.882 121.305C434.604 121.305 454.643 101.265 454.643 76.543C454.643 101.265 474.683 121.305 499.405 121.305Z" stroke="#7E378F" stroke-width="0.195586" stroke-miterlimit="10"/>
<path d="M496.346 121.401C473.313 121.401 454.642 140.073 454.642 163.105C454.642 140.073 435.97 121.401 412.938 121.401C435.97 121.401 454.642 102.729 454.642 79.6968C454.642 102.729 473.313 121.401 496.346 121.401Z" stroke="#7E378F" stroke-width="0.195586" stroke-miterlimit="10"/>
<path d="M493.288 121.496C471.945 121.496 454.643 138.798 454.643 160.142C454.643 138.798 437.342 121.496 415.998 121.496C437.342 121.496 454.643 104.195 454.643 82.8511C454.643 104.195 471.945 121.496 493.288 121.496Z" stroke="#7E378F" stroke-width="0.195586" stroke-miterlimit="10"/>
<path d="M490.229 121.593C470.575 121.593 454.642 137.526 454.642 157.181C454.642 137.526 438.708 121.593 419.054 121.593C438.708 121.593 454.642 105.659 454.642 86.0049C454.642 105.659 470.575 121.593 490.229 121.593Z" stroke="#7E378F" stroke-width="0.195586" stroke-miterlimit="10"/>
<path d="M487.173 121.69C469.208 121.69 454.644 136.253 454.644 154.219C454.644 136.253 440.081 121.69 422.115 121.69C440.081 121.69 454.644 107.127 454.644 89.1611C454.644 107.127 469.208 121.69 487.173 121.69Z" stroke="#7E378F" stroke-width="0.195586" stroke-miterlimit="10"/>
<path d="M484.113 121.785C467.837 121.785 454.641 134.98 454.641 151.257C454.641 134.98 441.446 121.785 425.17 121.785C441.446 121.785 454.641 108.59 454.641 92.3135C454.641 108.59 467.837 121.785 484.113 121.785Z" stroke="#7E378F" stroke-width="0.195586" stroke-miterlimit="10"/>
<path d="M481.056 121.882C466.469 121.882 454.644 133.707 454.644 148.294C454.644 133.707 442.819 121.882 428.231 121.882C442.819 121.882 454.644 110.056 454.644 95.4692C454.644 110.056 466.469 121.882 481.056 121.882Z" stroke="#7E378F" stroke-width="0.195586" stroke-miterlimit="10"/>
<path d="M477.997 121.977C465.098 121.977 454.641 132.434 454.641 145.332C454.641 132.434 444.184 121.977 431.286 121.977C444.184 121.977 454.641 111.52 454.641 98.6216C454.641 111.52 465.098 121.977 477.997 121.977Z" stroke="#7E378F" stroke-width="0.195586" stroke-miterlimit="10"/>
<path d="M474.94 122.074C463.731 122.074 454.644 131.161 454.644 142.37C454.644 131.161 445.557 122.074 434.348 122.074C445.557 122.074 454.644 112.986 454.644 101.777C454.644 112.986 463.731 122.074 474.94 122.074Z" stroke="#7E378F" stroke-width="0.195586" stroke-miterlimit="10"/>
<path d="M471.881 122.169C462.361 122.169 454.642 129.886 454.642 139.407C454.642 129.887 446.925 122.169 437.403 122.169C446.923 122.169 454.642 114.451 454.642 104.93C454.642 114.45 462.359 122.169 471.881 122.169Z" stroke="#7E378F" stroke-width="0.195586" stroke-miterlimit="10"/>
<path d="M440.462 122.265C448.293 122.265 454.642 115.916 454.642 108.085C454.642 115.916 460.991 122.265 468.822 122.265C460.991 122.265 454.642 128.614 454.642 136.445C454.642 128.614 448.293 122.265 440.462 122.265Z" stroke="#7E378F" stroke-width="0.195586" stroke-miterlimit="10"/>
</g>
</g>
<defs>
<clipPath id="clip0_255_218">
<rect width="90" height="178" fill="white" transform="matrix(-1 0 0 1 390 29)"/>
</clipPath>
<clipPath id="clip1_255_218">
<rect width="178" height="178" fill="white" transform="matrix(4.37114e-08 -1 -1 -4.37114e-08 390 207)"/>
</clipPath>
<clipPath id="clip2_255_218">
<rect width="178" height="178" fill="white" transform="matrix(-1 0 0 1 390 29)"/>
</clipPath>
<clipPath id="clip3_255_218">
<rect width="59" height="87.5" fill="white" transform="translate(454 74.25)"/>
</clipPath>
<clipPath id="clip4_255_218">
<rect width="87.5" height="87.5" fill="white" transform="translate(454 161.75) rotate(-90)"/>
</clipPath>
</defs>
</svg>
