<svg width="216" height="215" viewBox="0 0 216 215" fill="white" xmlns="http://www.w3.org/2000/svg">
<g id="Group">
<path id="Vector (Stroke)" opacity="0.7" fill-rule="evenodd" clip-rule="evenodd" d="M0.373047 107.55V107.18C59.5684 107.18 107.553 59.1954 107.553 0H107.923C107.923 59.1954 155.908 107.18 215.103 107.18V107.55C155.908 107.55 107.923 155.535 107.923 214.73H107.553C107.553 155.535 59.5684 107.55 0.373047 107.55ZM107.738 208.369C107.753 208.122 107.768 207.875 107.784 207.629H107.692C107.709 207.875 107.724 208.122 107.738 208.369ZM202.377 107.925C151.978 113.866 112.25 154.652 107.941 205.533C109.019 153.156 150.43 110.688 202.377 107.925ZM207.766 107.426C208.091 107.404 208.416 107.384 208.742 107.365C155.315 104.249 112.363 62.1361 107.93 9.07329C108.737 63.5219 153.126 107.412 207.766 107.412V107.426ZM201.626 107.597C152.061 104.602 112.216 65.5803 107.931 16.3732C108.596 66.893 149.755 107.64 200.432 107.64V107.676C200.83 107.648 201.228 107.621 201.626 107.597ZM194.522 107.825C148.747 104.951 111.968 68.9212 107.922 23.4738C108.34 70.1568 146.314 107.872 193.095 107.872V107.926C193.57 107.889 194.045 107.855 194.522 107.825ZM187.424 108.057C145.5 105.313 111.817 72.3668 107.925 30.7658C108.194 73.5252 142.939 108.104 185.762 108.104V108.182C186.314 108.135 186.868 108.094 187.424 108.057ZM180.34 108.289C142.199 105.678 111.574 75.7215 107.919 37.8768C107.946 76.7922 139.503 108.332 178.424 108.332V108.444C179.061 108.385 179.699 108.333 180.34 108.289ZM173.264 108.517C138.234 105.997 110.254 78.0168 107.734 42.9873C105.213 78.0168 77.2331 105.997 42.2036 108.517C42.9339 108.57 43.6612 108.634 44.3852 108.708V108.564C79.272 108.564 107.553 80.2832 107.553 45.3964H107.923C107.923 80.2832 136.205 108.564 171.091 108.564V108.707C171.812 108.633 172.537 108.57 173.264 108.517ZM166.206 108.749C135.01 106.378 110.11 81.4778 107.738 50.2815C105.366 81.4778 80.4666 106.378 49.2703 108.749C50.0894 108.812 50.9041 108.89 51.7142 108.983V108.792C82.5496 108.792 107.549 83.7928 107.549 52.9575H107.919C107.919 83.7928 132.918 108.792 163.754 108.792V108.984C164.567 108.89 165.384 108.812 166.206 108.749ZM159.161 108.977C131.784 106.763 109.949 84.9273 107.734 57.5506C105.52 84.9273 83.6841 106.763 56.3073 108.977C57.2299 109.052 58.1462 109.149 59.0556 109.267V109.025C85.8395 109.025 107.553 87.311 107.553 60.5272H107.923C107.923 87.311 129.637 109.025 156.42 109.025V109.266C157.327 109.148 158.241 109.052 159.161 108.977ZM152.139 109.21C128.566 107.163 109.784 88.3811 107.738 64.8088C105.692 88.3811 86.9095 107.163 63.3373 109.21C64.3626 109.299 65.3789 109.419 66.3852 109.571V109.253C89.1176 109.253 107.549 90.825 107.549 68.0885H107.919C107.919 90.8209 126.347 109.253 149.083 109.253V109.572C150.092 109.42 151.111 109.299 152.139 109.21ZM145.137 109.438C125.347 107.573 109.599 91.8221 107.734 72.0344C105.869 91.825 90.1188 107.573 70.3311 109.438C90.1217 111.303 105.869 127.053 107.734 146.841C109.599 127.05 125.35 111.302 145.137 109.438ZM107.919 150.787H107.549C107.549 128.17 89.3087 109.81 66.7318 109.624C88.692 113.089 105.791 131.181 107.738 153.61C109.685 131.181 126.784 113.089 148.745 109.624C126.168 109.806 107.919 128.163 107.919 150.787ZM107.923 157.892H107.553C107.553 131.436 86.3678 109.927 60.0368 109.404C85.6452 113.206 105.621 134.282 107.734 160.404C109.847 134.283 129.822 113.206 155.43 109.404C129.103 109.932 107.923 131.439 107.923 157.892ZM107.919 164.997H107.549C107.549 134.69 83.3991 110.021 53.2944 109.184C82.585 113.294 105.469 137.375 107.738 167.217C110.007 137.374 132.893 113.293 162.184 109.184C132.075 110.015 107.919 134.687 107.919 164.997ZM107.9 172.103H107.567C107.631 172.748 107.687 173.397 107.734 174.048C107.781 173.397 107.836 172.748 107.9 172.103ZM107.871 179.208H107.605C107.655 179.767 107.7 180.328 107.738 180.891C107.777 180.328 107.821 179.767 107.871 179.208ZM107.84 186.313H107.628C107.667 186.79 107.703 187.268 107.734 187.747C107.765 187.268 107.801 186.79 107.84 186.313ZM107.82 193.418H107.655C107.685 193.815 107.713 194.212 107.738 194.609C107.763 194.212 107.79 193.815 107.82 193.418ZM107.798 200.52H107.671C107.694 200.842 107.715 201.165 107.734 201.489C107.754 201.165 107.775 200.842 107.798 200.52ZM19.7348 108.127C68.0869 110.542 106.66 150.079 107.538 198.821C103.424 151.58 66.5348 113.727 19.7348 108.127ZM20.9537 107.825C21.4277 107.855 21.9008 107.888 22.373 107.925V107.872C69.1223 107.872 107.076 70.2087 107.545 23.5703C103.455 68.9722 66.696 104.953 20.9537 107.825ZM107.734 28.3672C107.692 29.0019 107.644 29.6347 107.589 30.2655H107.879C107.824 29.6347 107.776 29.0019 107.734 28.3672ZM107.552 30.6725C103.701 72.3175 69.9999 105.311 28.0441 108.057C28.6023 108.094 29.1591 108.136 29.7143 108.183V108.104C72.5682 108.104 107.333 73.4748 107.552 30.6725ZM107.548 185.396C103.837 145.493 72.7183 113.542 33.2001 108.551C74.2693 110.361 107.07 143.994 107.548 185.396ZM35.1362 108.289C73.246 105.68 103.853 75.7698 107.549 37.9683C107.472 76.8416 75.9344 108.332 37.0433 108.332V108.443C36.4098 108.384 35.774 108.333 35.1362 108.289ZM107.546 178.584C103.994 142.375 75.7503 113.413 39.8768 108.758C77.2952 110.237 107.219 140.88 107.546 178.584ZM107.562 37.8271C107.63 37.1165 107.689 36.4033 107.738 35.6873C107.787 36.4033 107.846 37.1165 107.914 37.8271H107.562ZM107.537 192.001C103.581 148.489 69.617 113.648 26.5096 108.341C71.1617 110.476 106.803 146.995 107.537 192.001ZM107.619 22.6961H107.857C107.812 22.1457 107.773 21.594 107.738 21.0409C107.703 21.594 107.664 22.1457 107.619 22.6961ZM107.638 15.1307H107.831C107.795 14.6564 107.763 14.1812 107.734 13.7051C107.706 14.1812 107.673 14.6564 107.638 15.1307ZM107.661 7.56536H107.815C107.787 7.16461 107.762 6.76326 107.738 6.36132C107.715 6.76326 107.689 7.16461 107.661 7.56536ZM107.536 9.18565C106.671 63.5823 62.3054 107.412 7.7026 107.412V107.426C7.38024 107.404 7.0575 107.384 6.73437 107.365C60.1232 104.251 103.053 62.1956 107.536 9.18565ZM107.525 205.413C103.164 154.59 63.4612 113.865 13.1055 107.926C65.0062 110.693 106.386 153.095 107.525 205.413ZM13.8424 107.597C14.2434 107.621 14.6437 107.648 15.0434 107.677V107.64C65.7533 107.64 106.932 66.8413 107.546 16.2771C103.305 65.5294 63.4402 104.6 13.8424 107.597ZM107.94 198.718C108.87 150.027 147.416 110.547 195.729 108.128C148.965 113.725 112.098 151.527 107.94 198.718ZM107.929 192.104C108.61 147.047 144.279 110.471 188.971 108.34C145.827 113.649 111.841 148.543 107.929 192.104ZM107.93 185.296C108.459 143.944 141.233 110.366 182.264 108.551C142.781 113.54 111.683 145.441 107.93 185.296ZM107.921 178.682C108.197 140.929 138.146 110.232 175.603 108.758C139.695 113.415 111.431 142.427 107.921 178.682ZM46.6125 108.973C80.4225 110.145 107.481 137.887 107.553 171.965C104.246 139.385 78.8718 113.327 46.6125 108.973ZM107.924 171.873C108.045 137.841 135.078 110.15 168.852 108.973C136.625 113.325 111.269 139.337 107.924 171.873ZM73.7222 109.855V109.485C92.4032 109.485 107.549 94.3389 107.549 75.6579H107.919C107.919 94.3389 123.065 109.485 141.746 109.485V109.855C123.065 109.855 107.919 125 107.919 143.681H107.549C107.549 125 92.4032 109.855 73.7222 109.855ZM107.734 140.103C109.401 124.075 122.14 111.336 138.167 109.67C122.14 108.003 109.401 95.2639 107.734 79.2362C106.067 95.2639 93.3283 108.003 77.3005 109.67C93.3283 111.336 106.067 124.075 107.734 140.103Z"/>
</g>
</svg>
