<svg width="233" height="48" viewBox="0 0 233 48"  xmlns="http://www.w3.org/2000/svg">
<path
        d="M31.5716 17.327C34.6799 19.5413 38.4876 20.8442 42.6001 20.8442V12.9572C41.8218 12.9574 41.0455 12.8765 40.2841 12.7157V18.9239C36.1719 18.9239 32.3646 17.621 29.2556 15.4068V31.5018C29.2556 39.5533 22.7063 46.0799 14.628 46.0799C11.6137 46.0799 8.8121 45.1717 6.4848 43.6142C9.14103 46.3209 12.8453 48 16.9435 48C25.0224 48 31.572 41.4734 31.572 33.4216V17.327H31.5716ZM34.4287 9.37C32.8403 7.64046 31.7973 5.40535 31.5716 2.93435V1.91992H29.3768C29.9293 5.06057 31.8137 7.74375 34.4287 9.37ZM11.5944 37.4357C10.7069 36.2759 10.2273 34.8572 10.2294 33.3985C10.2294 29.7161 13.225 26.7303 16.9207 26.7303C17.6095 26.7301 18.2941 26.8352 18.9505 27.0428V18.9796C18.1834 18.8748 17.4092 18.8303 16.6354 18.8466V25.1226C15.9785 24.9151 15.2936 24.8096 14.6047 24.8103C10.9089 24.8103 7.91353 27.7958 7.91353 31.4787C7.91353 34.0828 9.41082 36.3374 11.5944 37.4357Z"   fill-opacity="0.2"/>
<path
        d="M29.2557 15.4067C32.3648 17.6208 36.172 18.9237 40.2842 18.9237V12.7156C37.9888 12.2283 35.9568 11.0328 34.4289 9.37C31.8136 7.74358 29.9294 5.0604 29.377 1.91992H23.6118V33.4213C23.5988 37.0937 20.6084 40.0673 16.9206 40.0673C14.7474 40.0673 12.8168 39.0349 11.5941 37.4357C9.41065 36.3374 7.91336 34.0827 7.91336 31.4789C7.91336 27.7963 10.9088 24.8105 14.6045 24.8105C15.3126 24.8105 15.9951 24.9204 16.6352 25.1228V18.8468C8.69877 19.0102 2.31592 25.473 2.31592 33.4214C2.31592 37.3892 3.90539 40.9862 6.48513 43.6143C8.81243 45.1717 11.614 46.08 14.6283 46.08C22.7068 46.08 29.2559 39.5531 29.2559 31.5018V15.4067H29.2557Z"  />
<path
        d="M40.2842 12.7156V11.037C38.2143 11.0401 36.1851 10.4624 34.4289 9.36988C35.9835 11.0661 38.0306 12.2358 40.2842 12.7156ZM29.377 1.91997C29.3243 1.61983 29.2838 1.3177 29.2557 1.01443V0H21.2956V31.5017C21.2829 35.1736 18.2926 38.1472 14.6045 38.1472C13.5217 38.1472 12.4994 37.891 11.594 37.4359C12.8167 39.0349 14.7474 40.0672 16.9205 40.0672C20.608 40.0672 23.5989 37.0939 23.6118 33.4215V1.91997H29.377ZM16.6356 18.8468V17.0598C15.9704 16.9692 15.2998 16.9237 14.6284 16.9241C6.54921 16.9239 0 23.4508 0 31.5017C0 36.5491 2.57396 40.9974 6.48528 43.614C3.90554 40.986 2.31606 37.3889 2.31606 33.4213C2.31606 25.4731 8.69875 19.0103 16.6356 18.8468Z"   fill-opacity="0.5"/>
<path
        d="M132.518 39.4798C138.299 39.4798 142.985 34.8448 142.985 29.1279C142.985 23.4112 138.299 18.7754 132.518 18.7754H130.941C136.722 18.7754 141.408 23.411 141.408 29.1279C141.408 34.8448 136.722 39.4798 130.941 39.4798H132.518Z"   fill-opacity="0.2"/>
<path
        d="M130.799 18.7754H129.222C123.441 18.7754 118.754 23.411 118.754 29.1279C118.754 34.8448 123.441 39.4798 129.222 39.4798H130.799C125.017 39.4798 120.331 34.8448 120.331 29.1279C120.331 23.4112 125.017 18.7754 130.799 18.7754Z"   fill-opacity="0.5"/>
<path
        d="M51.225 14.0964V19.3437H57.3891V39.3381H63.5557V19.4854H68.5734L70.2939 14.0966L51.225 14.0964ZM101.693 14.0964V19.3437H107.857V39.3381H114.024V19.4854H119.042L120.762 14.0966L101.693 14.0964ZM71.4419 17.0742C71.4419 15.43 72.7877 14.0964 74.4504 14.0964C76.1145 14.0964 77.4618 15.43 77.4618 17.0742C77.4618 18.7185 76.1154 20.052 74.4504 20.052C72.7877 20.0512 71.4419 18.7185 71.4419 17.0742ZM71.4419 22.1797H77.4618V39.3381H71.4419V22.1797ZM80.043 14.0964V39.3379H86.0652V32.8154L87.9293 31.1123L93.8069 39.4796H100.258L91.7985 27.2843L99.3976 19.9096H92.0858L86.0652 25.8652V14.0964H80.043ZM144.991 14.0964V39.3379H151.014V32.8154L152.877 31.1123L158.757 39.4796H165.209L156.749 27.2843L164.348 19.9096H157.036L151.014 25.8652V14.0964H144.991Z"  />
<path
        d="M130.941 39.4798C136.721 39.4798 141.408 34.8448 141.408 29.1279C141.408 23.4112 136.721 18.7754 130.941 18.7754H130.798C125.017 18.7754 120.331 23.411 120.331 29.1279C120.331 34.8448 125.017 39.4798 130.798 39.4798H130.941ZM125.78 29.1279C125.78 26.347 128.059 24.0945 130.871 24.0945C133.68 24.0945 135.96 26.347 135.96 29.1279C135.96 31.9088 133.68 34.1627 130.871 34.1627C128.059 34.1622 125.78 31.9088 125.78 29.1279Z"  />
<g opacity="0.5">
<path
        d="M197.389 39H192.753L191.045 34.5382H180.379L178.671 39H174.035L183.167 15.7502H188.257L197.389 39ZM189.895 30.948L185.712 19.8634L181.529 30.948H189.895Z"  />
<path
        d="M215.335 39H211.675V36.6994C210.281 38.512 208.48 39.4182 206.273 39.4182C204.065 39.4182 202.264 38.6282 200.87 37.048C199.475 35.4678 198.778 33.3182 198.778 30.5994C198.778 27.9038 199.475 25.7542 200.87 24.1508C202.264 22.5474 204.065 21.7457 206.273 21.7457C208.48 21.7457 210.281 22.6636 211.675 24.4994V15.7502H215.335V39ZM207.318 36.1765C208.178 36.1765 209.015 35.9674 209.828 35.5491C210.641 35.1308 211.257 34.5963 211.675 33.9457V27.2531C211.257 26.6024 210.641 26.068 209.828 25.6497C209.015 25.2082 208.178 24.9874 207.318 24.9874C205.877 24.9874 204.727 25.5102 203.867 26.556C203.008 27.6017 202.578 28.9495 202.578 30.5994C202.578 32.2493 203.008 33.5971 203.867 34.6428C204.727 35.6653 205.877 36.1765 207.318 36.1765Z"  />
<path
        d="M225.829 39.4182C222.808 39.4182 220.403 38.5468 218.614 36.804L220.287 34.1548C220.914 34.8055 221.763 35.3632 222.832 35.828C223.901 36.2927 224.958 36.5251 226.004 36.5251C227.073 36.5251 227.886 36.316 228.444 35.8977C229.025 35.4794 229.315 34.9333 229.315 34.2594C229.315 33.6552 228.966 33.1904 228.269 32.8651C227.572 32.5165 226.724 32.2493 225.725 32.0634C224.725 31.8542 223.726 31.6102 222.727 31.3314C221.728 31.0293 220.88 30.5064 220.182 29.7628C219.485 29.0192 219.137 28.0548 219.137 26.8697C219.137 25.4289 219.729 24.2205 220.914 23.2445C222.1 22.2453 223.715 21.7457 225.76 21.7457C228.339 21.7457 230.523 22.5358 232.313 24.116L230.779 26.6954C230.245 26.0912 229.536 25.6032 228.653 25.2314C227.77 24.8596 226.817 24.6737 225.794 24.6737C224.842 24.6737 224.075 24.8712 223.494 25.2662C222.936 25.6381 222.657 26.1261 222.657 26.7302C222.657 27.195 222.901 27.5784 223.389 27.8805C223.901 28.1594 224.528 28.3685 225.272 28.508C226.038 28.6474 226.863 28.8449 227.746 29.1005C228.629 29.3329 229.443 29.6118 230.186 29.9371C230.953 30.2624 231.581 30.7969 232.069 31.5405C232.58 32.2609 232.836 33.144 232.836 34.1897C232.836 35.7234 232.22 36.9782 230.988 37.9542C229.757 38.9302 228.037 39.4182 225.829 39.4182Z"  />
</g>
</svg>
