<svg width="216" height="221" viewBox="0 0 216 221" stroke="white" fill="none" xmlns="http://www.w3.org/2000/svg">
<g id="Group">
<path id="Vector" d="M120.319 34.7964L92.747 171.345L141.511 158.316L120.319 34.7964Z"  stroke-width="0.368188" stroke-miterlimit="10"/>
<path id="Vector_2" d="M215.319 110.298L120.409 34.6458L204.012 183.851L215.319 110.298Z"  stroke-width="0.368188" stroke-miterlimit="10"/>
<path id="Vector_3" d="M204.049 36.1546L133.626 1L215.163 110.302L204.049 36.1546Z"  stroke-width="0.368188" stroke-miterlimit="10"/>
<path id="Vector_4" d="M133.626 1L51.5567 70.1445L120.536 34.4806L133.626 1Z"  stroke-width="0.368188" stroke-miterlimit="10"/>
<path id="Vector_5" d="M0.449135 134.39L92.3652 171.181L51.557 70.1445L0.449135 134.39Z"  stroke-width="0.368188" stroke-miterlimit="10"/>
<path id="Vector_6" d="M204.049 183.922L141.667 158.109L133.164 188.807L204.049 183.922Z"  stroke-width="0.368188" stroke-miterlimit="10"/>
<path id="Vector_7" d="M92.365 171.181L85.8438 212.211L133.164 188.807L92.365 171.181Z"  stroke-width="0.368188" stroke-miterlimit="10"/>
<path id="Vector_8" d="M0.449135 134.39L13.2378 219.968L85.8439 212.211L0.449135 134.39Z"  stroke-width="0.368188" stroke-miterlimit="10"/>
</g>
</svg>
