<svg width="213" height="220" viewBox="0 0 213 220" fill="none" xmlns="http://www.w3.org/2000/svg">
<g id="Group">
<path id="Vector" d="M185.182 90.4462V45.4157C185.182 36.0891 177.596 28.4971 168.264 28.4971C158.937 28.4971 151.345 36.0836 151.345 45.4157V175.232C151.345 199.726 131.418 219.653 106.924 219.653C82.4296 219.653 62.5026 199.726 62.5026 175.232V76.448C62.5026 67.1213 54.9161 59.5293 45.584 59.5293C36.2573 59.5293 28.6653 67.1158 28.6653 76.448V175.391" stroke="white" stroke-width="0.368188" stroke-miterlimit="10"/>
<path id="Vector_2" d="M23.1759 175.397V76.4536C23.1759 64.0912 33.2327 54.0344 45.595 54.0344C57.9574 54.0344 68.0142 64.0912 68.0142 76.4536V175.237C68.0142 196.696 85.4709 214.158 106.935 214.158C128.393 214.158 145.855 196.701 145.855 175.237V45.4214C145.855 33.059 155.912 23.0022 168.275 23.0022C180.637 23.0022 190.694 33.059 190.694 45.4214V90.4519" stroke="white" stroke-width="0.368188" stroke-miterlimit="10"/>
<path id="Vector_3" d="M17.676 175.396V76.4531C17.676 61.0605 30.1976 48.5334 45.5957 48.5334C60.9883 48.5334 73.5153 61.055 73.5153 76.4531V175.237C73.5153 193.665 88.5072 208.657 106.936 208.657C125.364 208.657 140.356 193.665 140.356 175.237V45.4209C140.356 30.0283 152.877 17.5012 168.275 17.5012C183.668 17.5012 196.195 30.0228 196.195 45.4209V90.4514" stroke="white" stroke-width="0.368188" stroke-miterlimit="10"/>
<path id="Vector_4" d="M12.175 175.396V76.4532C12.175 58.0249 27.1668 43.0331 45.5951 43.0331C64.0234 43.0331 79.0153 58.0249 79.0153 76.4532V175.237C79.0153 190.63 91.5368 203.157 106.935 203.157C122.328 203.157 134.855 190.635 134.855 175.237V45.421C134.855 26.9927 149.846 12.0009 168.275 12.0009C186.703 12.0009 201.695 26.9927 201.695 45.421V90.4515" stroke="white" stroke-width="0.368188" stroke-miterlimit="10"/>
<path id="Vector_5" d="M6.67416 175.396V76.4534C6.67416 54.9949 24.1308 37.5327 45.5948 37.5327C67.0533 37.5327 84.5155 54.9894 84.5155 76.4534V175.237C84.5155 187.6 94.5722 197.656 106.935 197.656C119.297 197.656 129.354 187.6 129.354 175.237V45.4211C129.354 23.9626 146.81 6.50049 168.274 6.50049C189.738 6.50049 207.195 23.9571 207.195 45.4211V90.4516" stroke="white" stroke-width="0.368188" stroke-miterlimit="10"/>
<path id="Vector_6" d="M1.17407 175.396V76.4534C1.17407 51.9592 21.101 32.0322 45.5952 32.0322C70.0894 32.0322 90.0164 51.9592 90.0164 76.4534V175.237C90.0164 184.564 97.6029 192.156 106.935 192.156C116.267 192.156 123.854 184.569 123.854 175.237V45.4211C123.854 20.9269 143.781 1 168.275 1C192.769 1 212.696 20.9269 212.696 45.4211V90.4516" stroke="white" stroke-width="0.368188" stroke-miterlimit="10"/>
</g>
</svg>
