<svg width="165" height="48" viewBox="0 0 165 48" fill="none" xmlns="http://www.w3.org/2000/svg">
<g id="Group 1946">
<g id="g7433">
<path id="Subtract" fill-rule="evenodd" clip-rule="evenodd" d="M46.8374 6.86366C49.0691 7.46494 50.8287 9.22582 51.4296 11.4591C52.5454 15.5392 52.5025 24.043 52.5025 24.043C52.5025 24.043 52.5025 32.5038 51.4296 36.5839C50.8287 38.8172 49.0691 40.5781 46.8374 41.1793C42.7602 42.253 26.4515 42.253 26.4515 42.253C26.4515 42.253 10.1856 42.253 6.06553 41.1364C3.83381 40.5351 2.07418 38.7742 1.47333 36.5409C0.400391 32.5038 0.400391 24 0.400391 24C0.400391 24 0.400391 15.5392 1.47333 11.4591C2.07418 9.22582 3.87673 7.42199 6.06553 6.82072C10.1427 5.74701 26.4515 5.74701 26.4515 5.74701C26.4515 5.74701 42.7602 5.74701 46.8374 6.86366ZM34.8206 24L21.2586 31.8166V16.1834L34.8206 24Z" fill="white"/>
</g>
<g id="g7451">
<g id="g7449">
<path id="path7435" d="M76.0638 38.9889C75.0338 38.3017 74.3042 37.228 73.875 35.7248C73.4459 34.2646 73.2313 32.289 73.2313 29.8839V26.5769C73.2313 24.1288 73.4888 22.1532 73.9609 20.65C74.4759 19.1468 75.2484 18.0731 76.2784 17.3859C77.3514 16.6987 78.7247 16.3552 80.4414 16.3552C82.1152 16.3552 83.4886 16.6987 84.5186 17.3859C85.5487 18.0731 86.2783 19.1897 86.7503 20.65C87.2224 22.1102 87.48 24.0859 87.48 26.5769V29.8839C87.48 32.3319 87.2654 34.2646 86.7933 35.7678C86.3212 37.228 85.5916 38.3447 84.5615 39.0319C83.5315 39.719 82.1152 40.0626 80.3556 40.0626C78.5531 40.0197 77.0939 39.6761 76.0638 38.9889ZM81.8577 35.3813C82.1582 34.6511 82.2869 33.4056 82.2869 31.7306V24.6012C82.2869 22.9692 82.1582 21.7666 81.8577 20.9936C81.5573 20.2205 81.0852 19.8769 80.3556 19.8769C79.6689 19.8769 79.1539 20.2635 78.8964 20.9936C78.596 21.7666 78.4672 22.9692 78.4672 24.6012V31.7306C78.4672 33.4056 78.596 34.6511 78.8964 35.3813C79.1539 36.1114 79.6689 36.4979 80.3985 36.4979C81.0852 36.4979 81.5573 36.1543 81.8577 35.3813Z" fill="white"/>
<path id="path7437" d="M155.29 29.9268V31.0864C155.29 32.5467 155.333 33.6633 155.419 34.3935C155.505 35.1236 155.676 35.6819 155.977 35.9825C156.234 36.3261 156.663 36.4979 157.264 36.4979C158.037 36.4979 158.552 36.1973 158.852 35.596C159.153 34.9947 159.281 34.0069 159.324 32.5896L163.745 32.8473C163.788 33.0621 163.788 33.3198 163.788 33.6633C163.788 35.7678 163.23 37.3569 162.071 38.3876C160.912 39.4184 159.281 39.9338 157.178 39.9338C154.646 39.9338 152.887 39.1178 151.857 37.5287C150.827 35.9396 150.312 33.4915 150.312 30.1416V26.1474C150.312 22.7115 150.827 20.2205 151.9 18.6314C152.972 17.0424 154.775 16.2693 157.307 16.2693C159.067 16.2693 160.44 16.6129 161.384 17.2571C162.329 17.9013 162.972 18.9321 163.359 20.2635C163.745 21.6378 163.916 23.5275 163.916 25.9326V29.8409H155.29V29.9268ZM155.934 20.3064C155.676 20.65 155.505 21.1654 155.419 21.8955C155.333 22.6256 155.29 23.7423 155.29 25.2455V26.8775H159.067V25.2455C159.067 23.7852 159.024 22.6686 158.938 21.8955C158.852 21.1224 158.638 20.6071 158.38 20.3064C158.123 20.0058 157.693 19.834 157.178 19.834C156.578 19.791 156.191 19.9628 155.934 20.3064Z" fill="white"/>
<path id="path7439" d="M63.5319 29.4974L57.6951 8.32385H62.8023L64.8623 17.9013C65.3773 20.2635 65.7636 22.282 66.0211 23.957H66.1499C66.3215 22.7545 66.7078 20.7789 67.3086 17.9443L69.4545 8.32385H74.5617L68.6391 29.4974V39.6331H63.5748V29.4974H63.5319Z" fill="white"/>
<path id="path7441" d="M104.089 16.7847V39.6761H100.055L99.6254 36.8845H99.4967C98.4237 38.9889 96.75 40.0626 94.5611 40.0626C93.059 40.0626 91.9432 39.5473 91.2136 38.5594C90.484 37.5716 90.1406 36.0255 90.1406 33.8781V16.7847H95.2908V33.5774C95.2908 34.6082 95.4195 35.3383 95.6341 35.7678C95.8487 36.1973 96.2349 36.412 96.75 36.412C97.1791 36.412 97.6083 36.2832 98.0375 35.9825C98.4667 35.7249 98.7671 35.3813 98.9388 34.9518V16.7847H104.089Z" fill="white"/>
<path id="path7443" d="M130.484 16.7847V39.6761H126.449L126.02 36.8845H125.891C124.819 38.9889 123.145 40.0626 120.956 40.0626C119.454 40.0626 118.338 39.5473 117.608 38.5594C116.879 37.5716 116.535 36.0255 116.535 33.8781V16.7847H121.686V33.5774C121.686 34.6082 121.814 35.3383 122.029 35.7678C122.243 36.1973 122.63 36.412 123.145 36.412C123.574 36.412 124.003 36.2832 124.432 35.9825C124.861 35.7249 125.162 35.3813 125.334 34.9518V16.7847H130.484Z" fill="white"/>
<path id="path7445" d="M118.081 12.4898H112.973V39.6331H107.952V12.4898H102.845V8.32379H118.081V12.4898Z" fill="white"/>
<path id="path7447" d="M147.522 20.4353C147.221 18.975 146.706 17.9443 146.019 17.3C145.333 16.6558 144.346 16.3122 143.144 16.3122C142.2 16.3122 141.298 16.5699 140.483 17.1282C139.668 17.6436 139.024 18.3737 138.595 19.2327H138.552V7.16425H133.573V39.6331H137.822L138.337 37.4857H138.466C138.852 38.2588 139.453 38.8601 140.268 39.3325C141.084 39.762 141.942 40.0197 142.929 40.0197C144.689 40.0197 145.934 39.2037 146.749 37.6146C147.564 36.0255 147.994 33.4915 147.994 30.0986V26.491C147.951 23.8711 147.822 21.8526 147.522 20.4353ZM142.801 29.755C142.801 31.43 142.715 32.7185 142.586 33.6633C142.457 34.6082 142.2 35.2954 141.899 35.6819C141.556 36.0684 141.127 36.2832 140.612 36.2832C140.183 36.2832 139.796 36.1973 139.453 35.9825C139.11 35.7678 138.809 35.4672 138.595 35.0806V22.1102C138.766 21.509 139.067 20.9936 139.496 20.5641C139.925 20.1776 140.397 19.9628 140.869 19.9628C141.384 19.9628 141.813 20.1776 142.071 20.5641C142.371 20.9936 142.543 21.6808 142.672 22.6256C142.801 23.6134 142.843 24.9878 142.843 26.7487V29.755H142.801Z" fill="white"/>
</g>
</g>
</g>
</svg>
